<svg xmlns="http://www.w3.org/2000/svg" width="224.5" height="187.85" viewBox="0 0 224.5 187.85"><defs><style>.a{fill:#d8f9fb;}.b{fill:#e6e6e7;}.c{fill:#4b4b70;}.d{fill:#a0cfe6;}.e{fill:#629abf;}.f{fill:#8bb8dc;}.g{fill:#f0f1f1;}.h{fill:#c3dfed;}.i{fill:#78abce;}.j{fill:#be1e2c;}.k{fill:#f7cf9c;}.l{fill:#221f1f;}.m{fill:#81b2d3;}.n{fill:#fff;}.o{fill:#601402;}.p{fill:#0a75c4;}.q{fill:#343444;}.r{fill:#f7a96d;}.s{fill:#035693;}.t{fill:#d0d2d3;}.u{fill:#ffba7f;}.v{fill:#bbbdbf;}.w{fill:#57585a;}.x{fill:#929597;}.y{fill:#d15c58;}.z{fill:#f88976;}.aa{fill:#f69d5e;}.ab,.ac,.ad,.ae,.af{fill:none;stroke:#221f1f;}.ab,.ac,.ad,.af{stroke-miterlimit:10;}.ab{stroke-width:0.5px;}.ac{stroke-linecap:round;}.af{stroke-linecap:square;}.ag{fill:#d34a4a;}.ah{fill:#3d3d77;}.ai{fill:#262260;}.aj{fill:#ea5e5e;}.ak{fill:#3b2314;}</style></defs><g transform="translate(-856 -4329.39)"><path class="a" d="M495.561,370.247c21.769-12.61,35.477-30.966,35.477-51.4,0-38.026-47.458-68.852-106-68.852s-106,30.826-106,68.852c0,31.38,32.32,57.857,76.518,66.153-6.753,5.183-10.619,11.2-10.619,17.62,0,19.454,35.5,35.226,79.3,35.226s79.3-15.771,79.3-35.226C543.536,388.105,523.779,375.643,495.561,370.247Z" transform="translate(536.964 4079.397)"/><g transform="translate(900.313 4355.689)"><g transform="translate(99.791 23.51)"><path class="b" d="M1492.609,470.574a.741.741,0,1,0,.741.741A.74.74,0,0,0,1492.609,470.574Z" transform="translate(-1491.868 -470.574)"/><path class="c" d="M1497.274,475.574a.406.406,0,1,0,.406.406A.406.406,0,0,0,1497.274,475.574Z" transform="translate(-1496.534 -475.24)"/></g><g transform="translate(127.624 0)"><path class="b" d="M1908.707,119.1a.741.741,0,1,0,.741.741A.741.741,0,0,0,1908.707,119.1Z" transform="translate(-1907.966 -119.095)"/><ellipse class="c" cx="0.406" cy="0.406" rx="0.406" ry="0.406" transform="translate(0.334 0.334)"/></g><g transform="translate(99.791 0.004)"><path class="b" d="M1492.609,119.155a.741.741,0,1,0,.741.74A.74.74,0,0,0,1492.609,119.155Z" transform="translate(-1491.868 -119.155)"/><path class="c" d="M1497.274,124.151a.406.406,0,1,0,.406.406A.406.406,0,0,0,1497.274,124.151Z" transform="translate(-1496.534 -123.817)"/></g><rect class="d" width="151.687" height="5.088" transform="translate(0 117.931)"/><rect class="e" width="151.687" height="20.702" transform="translate(0 123.019)"/><g transform="translate(90.785 1.175)"><rect class="f" width="19.494" height="19.494" transform="translate(0 0)"/><rect class="g" width="16.795" height="16.795" transform="translate(1.35 1.349)"/></g><rect class="f" width="28.609" height="42.661" transform="translate(114.06 1.175)"/><rect class="g" width="25.902" height="40.118" transform="translate(115.413 2.464)"/><g transform="translate(90.793 24.677)"><rect class="f" width="19.477" height="19.478"/><rect class="g" width="16.78" height="16.781" transform="translate(1.349 1.348)"/></g><path class="h" d="M1803.18,220.676c-4.587,0-8.305,1.095-8.305,2.446s3.719,2.445,8.305,2.445,8.306-1.095,8.306-2.445S1807.768,220.676,1803.18,220.676Z" transform="translate(-1674.816 -213.881)"/><g transform="translate(117.155 16.559)"><rect class="h" width="10.033" height="0.764" transform="translate(0 0)"/><rect class="h" width="10.033" height="0.765" transform="translate(0 1.624)"/><rect class="h" width="10.033" height="0.764" transform="translate(0 3.249)"/><rect class="h" width="10.033" height="0.764" transform="translate(0 4.873)"/><rect class="h" width="10.033" height="0.764" transform="translate(0 6.498)"/><rect class="h" width="10.033" height="0.764" transform="translate(0 8.122)"/></g><g transform="translate(117.155 28.074)"><rect class="h" width="10.033" height="0.764"/><rect class="h" width="10.033" height="0.764" transform="translate(0 1.624)"/><rect class="h" width="10.033" height="0.764" transform="translate(0 3.249)"/><rect class="h" width="10.033" height="0.764" transform="translate(0 4.873)"/><rect class="h" width="10.033" height="0.764" transform="translate(0 6.498)"/><rect class="h" width="10.033" height="0.764" transform="translate(0 8.122)"/></g><g transform="translate(129.768 16.559)"><rect class="h" width="10.033" height="0.764" transform="translate(0 0)"/><rect class="h" width="10.033" height="0.765" transform="translate(0 1.624)"/><rect class="h" width="10.033" height="0.764" transform="translate(0 3.249)"/><rect class="h" width="10.033" height="0.764" transform="translate(0 4.873)"/><rect class="h" width="10.033" height="0.764" transform="translate(0 6.498)"/><rect class="h" width="10.033" height="0.764" transform="translate(0 8.122)"/></g><g transform="translate(131.154 27.95)"><path class="f" d="M1976.783,602.622l2.75-1.593,2.75,1.593v-8.537h-5.5Z" transform="translate(-1975.71 -590.263)"/><path class="d" d="M1964.568,536.942a3.822,3.822,0,1,0,3.823,3.822A3.823,3.823,0,0,0,1964.568,536.942Z" transform="translate(-1960.746 -536.942)"/><path class="f" d="M1979.532,552.984a2.749,2.749,0,1,0,2.75,2.749A2.749,2.749,0,0,0,1979.532,552.984Z" transform="translate(-1975.71 -551.911)"/></g><path class="d" d="M1433.078,181.135c-1.444-.641-1.871.2-2.1,0-.546-.475-.081-.763.341-1.532.212-.386.677-.724.555-.9a3.094,3.094,0,0,0-.565-.51l-1.09,1.315a7.464,7.464,0,0,0-1.68,4.33c-.085,2.548-1.153,3.1-2.538,4.387a4.187,4.187,0,0,0-1.25,3.633c.054.5,1.068.092,1.068.092s-.631-1.62.458-2.424,2.952,1.9,5.642.258C1434.919,187.948,1436.408,182.614,1433.078,181.135Z" transform="translate(-1329.414 -174.241)"/><path class="f" d="M1508.132,304.749a1.019,1.019,0,1,0,1.019,1.019A1.019,1.019,0,0,0,1508.132,304.749Z" transform="translate(-1406.302 -292.331)"/><path class="f" d="M1480.087,319.983a.541.541,0,1,0,.542.541A.542.542,0,0,0,1480.087,319.983Z" transform="translate(-1380.579 -306.546)"/><path class="f" d="M1497.381,282.377a.541.541,0,1,0,.572.508A.541.541,0,0,0,1497.381,282.377Z" transform="translate(-1396.746 -271.454)"/><path class="f" d="M1522.745,270.3a.4.4,0,1,0,.4.4A.4.4,0,0,0,1522.745,270.3Z" transform="translate(-1420.517 -260.186)"/><path class="f" d="M1510.837,251.282a.4.4,0,1,0,.4.4A.4.4,0,0,0,1510.837,251.282Z" transform="translate(-1409.406 -242.44)"/><g transform="translate(93.808 29.332)"><path class="d" d="M1457.9,611.574c-1.08-.641-.321.642-.321.642a3.637,3.637,0,0,1,.759,1.633c0,.671-.991.438-1.137.292s-.175.846-.175.846.816-.174,1.312-.291.73,4.081.875,4.578.787,0,.787,0S1458.982,612.215,1457.9,611.574Z" transform="translate(-1453.375 -607.797)"/><path class="f" d="M1407.68,558.6c-.33-.976-2.719-1.721-4.117.222s-1.572,5.794-.179,7.42,2.578,1.678,3.528,1.073c1.3-.823-.312-2.176-.174-4.473S1408.277,560.353,1407.68,558.6Z" transform="translate(-1402.422 -557.604)"/><g transform="translate(6.82)"><path class="d" d="M1507.186,614.14c-.146.146-1.137.379-1.137-.292a3.637,3.637,0,0,1,.759-1.633s.758-1.283-.321-.642-2.1,7.7-2.1,7.7.641.5.787,0,.379-4.695.875-4.578,1.312.291,1.312.291S1507.332,613.995,1507.186,614.14Z" transform="translate(-1504.386 -607.797)"/><path class="f" d="M1522.8,558.6c-.6,1.757.8,1.943.941,4.241s-1.469,3.651-.173,4.473c.951.605,2.135.553,3.528-1.073s1.22-5.477-.179-7.42S1523.128,557.62,1522.8,558.6Z" transform="translate(-1521.429 -557.604)"/></g></g><g transform="translate(7.488 46.737)"><g transform="translate(54.868 6.799)"><g transform="translate(1.429 48.192)"><rect class="i" width="4.258" height="3.881" transform="translate(13.257)"/><rect class="i" width="4.258" height="1.94" transform="translate(13.257 14.811)"/><rect class="f" width="2.971" height="10.93" transform="translate(13.9 3.881)"/><rect class="i" width="26.758" height="2.153" transform="translate(2.007 16.672)"/><path class="e" d="M955.587,1898.214a2.007,2.007,0,1,0,2.006,2.008A2.008,2.008,0,0,0,955.587,1898.214Z" transform="translate(-953.579 -1880.938)"/><path class="e" d="M1355.613,1898.214a2.007,2.007,0,1,0,2.006,2.008A2.007,2.007,0,0,0,1355.613,1898.214Z" transform="translate(-1326.848 -1880.938)"/></g><path class="i" d="M965.154,919.47c-7.106,0-15.883,4.047-15.883,10.609s4.6,30.64,4.6,30.64l23.407.32s3.344-24.426,3.344-30.371C980.619,923.517,972.26,919.47,965.154,919.47Z" transform="translate(-948.13 -919.47)"/><path class="f" d="M948.936,1500.088c-9.234,0-16.719,0-16.719,5.011,0,2.768,7.485,5.011,16.719,5.011s16.719-2.243,16.719-5.011C965.655,1500.088,958.171,1500.088,948.936,1500.088Z" transform="translate(-932.217 -1461.25)"/></g><rect class="f" width="44.723" height="44.29" transform="translate(6.269 31.992)"/><rect class="f" width="10.867" height="44.29" transform="translate(92.373 31.992)"/><g transform="translate(96.286 10.349)"><g transform="translate(4.871)"><path class="g" d="M1627.329,1219.724l.12.2.142-.176.057-.533-.263-.027Z" transform="translate(-1627.122 -1202.694)"/><path class="j" d="M1625.9,1212.711l.465.05.178-.708-.666-.078Z" transform="translate(-1625.764 -1195.96)"/><path class="f" d="M1626.416,972.551l-.077-.008a.664.664,0,0,0-.731.591l-1.214,11.476a33.287,33.287,0,0,0-.11,4.125,1.238,1.238,0,0,0,.737.06c.115-.078.747-3.805.771-4.037l1.215-11.477A.665.665,0,0,0,1626.416,972.551Z" transform="translate(-1624.236 -972.539)"/><path class="d" d="M1625.608,973.134l-1.214,11.476a33.287,33.287,0,0,0-.11,4.125.991.991,0,0,0,.368.087l1.723-16.276-.035,0A.664.664,0,0,0,1625.608,973.134Z" transform="translate(-1624.236 -972.539)"/><path class="i" d="M1642.315,985.306l-1.465-.156c-.079-.008-.148.032-.155.09s-.043.1.037.109l1.561.165a.13.13,0,0,0,.155-.089C1642.453,985.367,1642.394,985.314,1642.315,985.306Z" transform="translate(-1639.582 -984.306)"/><path class="i" d="M1633.681,985.506c-.019.184-.4,4.367-.37,4.471s.231-.077.25-.26a.632.632,0,0,0-.058-.311c.01,0,.382-4,.382-4l.093-.294S1633.73,985.039,1633.681,985.506Z" transform="translate(-1632.703 -984.27)"/></g><g transform="translate(0 1.27)"><path class="f" d="M1552.427,991.608a.128.128,0,0,0-.164-.077l-.769.275a.129.129,0,0,0-.077.165l.265.74a.129.129,0,0,0,.165.077l.769-.275a.129.129,0,0,0,.078-.164Z" transform="translate(-1551.409 -991.523)"/><path class="k" d="M1630.269,1211.249l0-1.529-1.021.366Z" transform="translate(-1624.044 -1195.126)"/><path class="l" d="M1639.763,1225.819l.019-.484-.356.127Z" transform="translate(-1633.539 -1209.695)"/><rect class="d" width="1.084" height="14.647" transform="translate(0.266 1.172) rotate(-19.713)"/><path class="g" d="M1553.992,1000.013l.094.263,1.021-.365-.095-.263Z" transform="translate(-1553.819 -999.104)"/><rect class="f" width="0.547" height="14.647" transform="translate(0.772 0.991) rotate(-19.713)"/></g><g transform="translate(1.248 8.07)"><rect class="f" width="7.637" height="9.823"/><rect class="i" width="3.819" height="9.823" transform="translate(3.819)"/></g></g><g transform="translate(10.892)"><path class="i" d="M276.47,817.818a1.692,1.692,0,0,0-1.693,1.693v17.924a1.691,1.691,0,0,0,1.69,1.693h21.671l-12.864-21.31Z" transform="translate(-274.777 -817.818)"/><path class="m" d="M451.159,817.818H431.714l12.864,21.31h6.579a1.692,1.692,0,0,0,1.692-1.693v-3.212h0V819.511A1.692,1.692,0,0,0,451.159,817.818Z" transform="translate(-421.216 -817.818)"/><path class="f" d="M469.326,1017.564a2.9,2.9,0,0,0-2.9,2.9v9.4c0,1.6,1.3,1.921,2.9,1.921s2.9-.317,2.9-1.921v-9.4A2.9,2.9,0,0,0,469.326,1017.564Z" transform="translate(-453.605 -1004.203)"/><path class="i" d="M410.595,1189.7H397.678a1.219,1.219,0,0,0-1.22,1.218v2.149h15.356v-2.148A1.219,1.219,0,0,0,410.595,1189.7Z" transform="translate(-388.319 -1164.824)"/></g><rect class="d" width="109.51" height="3.749" transform="translate(0 28.243)"/></g><g transform="translate(7.488 2.321)"><rect class="f" width="12.614" height="4.587" transform="translate(42.236 24.463)"/><rect class="f" width="12.613" height="4.587" transform="translate(6.88 24.463)"/><g transform="translate(48.925 8.887)"><rect class="d" width="4.109" height="12.772"/><rect class="f" width="4.109" height="1.624"/><rect class="f" width="4.109" height="1.242" transform="translate(0 11.53)"/></g><rect class="i" width="4.587" height="16.499" transform="translate(44.338 5.16)"/><rect class="f" width="2.102" height="11.61" transform="translate(45.581 6.976)"/><rect class="f" width="3.504" height="13.951" transform="translate(40.834 7.708)"/><g transform="translate(23.694 0)"><rect class="f" width="6.307" height="21.659"/><path class="n" d="M479.5,190.94v10.384h4.523V190.94l-2.261,1.4Z" transform="translate(-478.609 -188.455)"/><path class="h" d="M489.993,367.375a1.672,1.672,0,1,0,1.672,1.672A1.671,1.671,0,0,0,489.993,367.375Z" transform="translate(-486.839 -353.089)"/><path class="e" d="M494.492,372.2a1.349,1.349,0,1,0,1.349,1.349A1.349,1.349,0,0,0,494.492,372.2Z" transform="translate(-491.339 -357.587)"/></g><g transform="translate(17.388 0)"><rect class="i" width="6.307" height="21.659"/><path class="n" d="M385.219,190.94v10.384h4.523V190.94l-2.261,1.4Z" transform="translate(-384.327 -188.455)"/><path class="h" d="M395.7,367.375a1.672,1.672,0,1,0,1.672,1.672A1.671,1.671,0,0,0,395.7,367.375Z" transform="translate(-392.551 -353.089)"/><path class="e" d="M400.21,372.2a1.349,1.349,0,1,0,1.349,1.349A1.349,1.349,0,0,0,400.21,372.2Z" transform="translate(-397.057 -357.587)"/></g><g transform="translate(11.081 0)"><rect class="f" width="6.307" height="21.659"/><path class="n" d="M290.93,190.94v10.384h4.523V190.94l-2.262,1.4Z" transform="translate(-290.038 -188.455)"/><path class="h" d="M301.419,367.375a1.672,1.672,0,1,0,1.672,1.672A1.671,1.671,0,0,0,301.419,367.375Z" transform="translate(-298.265 -353.089)"/><path class="e" d="M305.921,372.2a1.349,1.349,0,1,0,1.349,1.349A1.349,1.349,0,0,0,305.921,372.2Z" transform="translate(-302.768 -357.587)"/></g><g transform="translate(4.774 0)"><rect class="i" width="6.307" height="21.659"/><path class="n" d="M196.645,190.94v10.384h4.523V190.94l-2.262,1.4Z" transform="translate(-195.753 -188.455)"/><path class="h" d="M207.13,367.375a1.672,1.672,0,1,0,1.672,1.672A1.672,1.672,0,0,0,207.13,367.375Z" transform="translate(-203.977 -353.089)"/><path class="e" d="M211.636,372.2a1.349,1.349,0,1,0,1.349,1.349A1.349,1.349,0,0,0,211.636,372.2Z" transform="translate(-208.483 -357.587)"/></g><rect class="i" width="12.772" height="2.275" transform="matrix(0.269, -0.963, 0.963, 0.269, 35.21, 21.047)"/><rect class="n" width="60.838" height="2.803" transform="translate(0 21.659)"/></g><g transform="translate(126.207 53.811)"><rect class="e" width="25.48" height="2.754"/><rect class="g" width="23.11" height="66.223" transform="translate(2.37 2.754)"/><rect class="d" width="20.464" height="9.672" transform="translate(5.016 5.656)"/><rect class="d" width="20.464" height="9.672" transform="translate(5.016 17.153)"/><rect class="d" width="20.464" height="9.671" transform="translate(5.016 28.649)"/><rect class="d" width="20.464" height="9.671" transform="translate(5.016 40.145)"/><rect class="d" width="20.464" height="9.671" transform="translate(5.016 51.641)"/></g><g transform="translate(68.825 15.854)"><path class="o" d="M225.974,161.594c-6.747-4.09-15.68-12.657-20.617-13.323-5.583-.754-21.933-13.076-21.288-5.7,2.112,24.179-6.621,20.89-6.621,20.89s7.674,5.931,15.55,6.217,16.88,1.219,24.879.168,14.356-6.9,14.356-6.9S229.943,164,225.974,161.594Z" transform="translate(-171.731 -117.366)"/><g transform="translate(0 47.159)"><path class="p" d="M219.649,268.175l-14.383,5.408,8.748,54.387,25.061.016,8.2-54.39L233.7,268.7Z" transform="translate(-193.162 -263.095)"/><g transform="translate(0.019 5.291)"><path class="n" d="M209.1,462.843l-1.157.051A1.151,1.151,0,0,0,209.1,462.843Z" transform="translate(-195.24 -418.356)"/><path class="n" d="M160.726,274.291c-4.689,1.822-7.692,18.334-8.094,33.984l1.412,5.859,11.287-.5c-.8-.456-1.625-2.241-1.121-8.123a112.453,112.453,0,0,0,.621-14.307L175.064,269.1S163.983,273.025,160.726,274.291Z" transform="translate(-152.632 -269.097)"/></g><g transform="translate(43.768 5.291)"><path class="g" d="M357.5,274.291c-3.206-1.387-14.338-5.194-14.338-5.194L353.4,291.205s.24,4.084,1.116,14.307c.495,5.763.338,7.593.108,8.094l9.562.528,1.413-5.859C365.2,292.625,361.717,276.113,357.5,274.291Z" transform="translate(-343.167 -269.097)"/><path class="g" d="M391.717,462.865l-.4-.022S391.539,463.253,391.717,462.865Z" transform="translate(-380.26 -418.356)"/></g><path class="q" d="M204.795,571.067l.305,5.56h42.74l.194-5.507Z" transform="translate(-192.799 -496.439)"/><g transform="translate(22.491)"><path class="r" d="M268.376,273.143l2.678.152,7.236-12.946-17.089.932Z" transform="translate(-258.746 -257.066)"/><path class="s" d="M250.5,251.8l7.38,12.228,3.793-1.947-10.25-16.033Z" transform="translate(-250.504 -246.053)"/><path class="s" d="M297.567,262.1l3.789,1.952,6.925-11.761-.462-6.215Z" transform="translate(-286.761 -246.075)"/></g><path class="n" d="M207.267,269.1l-10.42,4.069-3.211,13.217s8.518,18.682,4.672,27.592c-3.928,9.1-5,20.827-5.124,30.019h24.7l.689-33.095Z" transform="translate(-183.854 -263.806)"/><path class="g" d="M231.944,261.083l-2.716,11.182,4.389,4.307-.4,3.386,13.124,22.928L234.453,258.7Z" transform="translate(-211.622 -255.792)"/><path class="t" d="M215.834,522.074l9.338,0v-1.23l-9.338-.006Z" transform="translate(-201.303 -457.745)"/><path class="g" d="M319.878,285.005l-4.369-13.219-10.419-4.073-11.332,41.794.017,33.42h25.061c-.305-9.053-1.591-20.706-5.542-30.16C307.94,299.953,319.878,285.005,319.878,285.005Z" transform="translate(-261.336 -262.74)"/><path class="t" d="M301.033,470.589a.922.922,0,1,0,.921.922A.92.92,0,0,0,301.033,470.589Z" transform="translate(-266.227 -419.032)"/><path class="t" d="M301.014,512.812a.922.922,0,1,0,.922.921A.921.921,0,0,0,301.014,512.812Z" transform="translate(-266.213 -451.56)"/><path class="t" d="M301.279,557.658a.923.923,0,1,0,.922.925A.922.922,0,0,0,301.279,557.658Z" transform="translate(-266.417 -486.109)"/><path class="t" d="M338.464,522.121l9.337,0v-1.233l-9.338,0Z" transform="translate(-295.776 -457.785)"/><path class="n" d="M306.87,261.112l-2.507-2.389-11.918,44.183,14.521-22.92-1.782-3.386,4.395-4.3Z" transform="translate(-260.323 -255.814)"/><path class="t" d="M251.232,444.856l-.832,3.154,31.215,6.088-.918-3.641Z" transform="translate(-227.933 -399.208)"/><path class="u" d="M200.726,398.6c-.454,1.011,1.2,2.064,1.2,2.064s-3.978-1.079-5.407-.649-2.229,2.2-2.425,3.452,1.059,3.559,3.242,4.338,8.847,1.746,9.482.973,1.7-6.9,1.7-6.9l-5.324-3.6S201.181,397.589,200.726,398.6Z" transform="translate(-184.542 -363.151)"/><path class="g" d="M283.255,412.591l-33.791-5.561-1.838,10.515s30.774,6.006,37.919,7.184S292,412.981,292,412.981Z" transform="translate(-225.795 -370.067)"/><path class="t" d="M208.415,451.214l-.792,3.007,31.929-6.139-.5-3.224Z" transform="translate(-194.978 -399.208)"/><path class="u" d="M334.572,410.6a11.71,11.71,0,0,0-6.154,1.028s1.071,6.13,1.7,6.9,3.556-2.37,5.741-3.151,4.3-.466,5.649-.628C342.763,414.6,338.134,410.838,334.572,410.6Z" transform="translate(-288.036 -372.79)"/><path class="n" d="M161.81,409.286l-9.241.312s-.7,12.979,6.45,11.8,37.919-7.184,37.919-7.184L195.1,402.706Z" transform="translate(-152.551 -366.736)"/><g transform="translate(9.891 16.995)"><g transform="translate(0 9.203)"><path class="v" d="M200.1,373.785c-1.169.012-2.6-.234-3.029-.77a4.631,4.631,0,0,1-.486-2.692,98.782,98.782,0,0,1,1.115-10.055l-.947-.122a98.892,98.892,0,0,0-1.127,10.17c.009,1.454.113,2.606.734,3.339.906.953,2.479,1.056,3.733,1.084a14.8,14.8,0,0,0,1.85-.1l-.125-.946A14.136,14.136,0,0,1,200.1,373.785Z" transform="translate(-195.626 -360.147)"/><g transform="translate(4.494 13.096)"><path class="w" d="M216.337,417.186c-.659.049-1.167.44-1.137.879s.588.758,1.248.711,1.168-.44,1.135-.879S217,417.14,216.337,417.186Z" transform="translate(-215.199 -417.182)"/></g></g><g transform="translate(10.015 9.285)"><g transform="translate(0.557)"><path class="v" d="M246.074,360.617a99.655,99.655,0,0,1,1,10.067,4.685,4.685,0,0,1-.518,2.688c-.436.53-1.868.761-3.039.733a14.649,14.649,0,0,1-1.716-.114l-.133.945a15.041,15.041,0,0,0,1.844.125c1.256-.013,2.83-.1,3.749-1.043a5.248,5.248,0,0,0,.767-3.328,98.435,98.435,0,0,0-1.009-10.184Z" transform="translate(-241.671 -360.505)"/></g><g transform="translate(0 13.044)"><path class="w" d="M240.5,417.321c-.659-.053-1.222.259-1.257.7s.469.837,1.126.892,1.218-.261,1.255-.7S241.16,417.376,240.5,417.321Z" transform="translate(-239.245 -417.315)"/></g></g><g transform="translate(0.978)"><path class="w" d="M207.493,320.067c-4.317.015-7.569,4.457-7.607,9.741l1.248.005a10.152,10.152,0,0,1,1.935-6.088,5.2,5.2,0,0,1,8.806.049,10.178,10.178,0,0,1,1.867,6.111l1.246.008C215.012,324.609,211.809,320.131,207.493,320.067Z" transform="translate(-199.886 -320.067)"/></g></g><g transform="translate(17.011 0.425)"><path class="w" d="M229.382,250.808a13.215,13.215,0,0,0-2.534,5.452,20.366,20.366,0,0,0-.211,3.017v1.168c.044,1.3.433,4.615.442,4.646h1.163s-.41-3.149-.408-4.646v-1.168a19.008,19.008,0,0,1,.19-2.8,12.031,12.031,0,0,1,2.3-4.941,6.823,6.823,0,0,1,2.987-2.473l-.287-1.158A7.757,7.757,0,0,0,229.382,250.808Z" transform="translate(-226.636 -247.905)"/></g><g transform="translate(43.267 0.425)"><path class="w" d="M344.918,250.808a7.762,7.762,0,0,0-3.642-2.9l-.29,1.158a6.816,6.816,0,0,1,2.986,2.473,12.034,12.034,0,0,1,2.306,4.941,14.706,14.706,0,0,1,.189,2.611,67.157,67.157,0,0,1-.915,9.321l1.179.206v0a67.717,67.717,0,0,0,.932-9.523,15.98,15.98,0,0,0-.21-2.829A13.211,13.211,0,0,0,344.918,250.808Z" transform="translate(-340.986 -247.905)"/></g><g transform="translate(42.86 20.596)"><path class="x" d="M343.513,335.751a4.3,4.3,0,1,0,4.3,4.3A4.3,4.3,0,0,0,343.513,335.751Z" transform="translate(-339.213 -335.751)"/><ellipse class="t" cx="2.071" cy="2.071" rx="2.071" ry="2.071" transform="translate(2.229 2.231)"/></g></g><path class="s" d="M296.068,324.521a.7.7,0,1,0,.7.7A.7.7,0,0,0,296.068,324.521Z" transform="translate(-262.577 -259.345)"/><path class="s" d="M296.068,352.61a.7.7,0,1,0,.7.7A.7.7,0,0,0,296.068,352.61Z" transform="translate(-262.577 -280.984)"/><path class="s" d="M296.068,380.695a.7.7,0,1,0,.7.7A.7.7,0,0,0,296.068,380.695Z" transform="translate(-262.577 -302.62)"/><g transform="translate(5.717)"><g transform="translate(6.744 6.861)"><path class="u" d="M208.335,156.361c-1.912.6-1.47,3.682-1.471,4.829s1.6,5.212,2.67,5.659c2.711,1.131,2.714-3.121,2.714-3.121v-4.949S210.245,155.766,208.335,156.361Z" transform="translate(-206.82 -136.598)"/><path class="u" d="M369.726,156.581c-1.91-.6-3.916,2.41-3.916,2.41v4.951s0,4.386,2.712,3.125c1.053-.491,2.671-4.511,2.671-5.659S371.637,157.177,369.726,156.581Z" transform="translate(-329.304 -136.767)"/><path class="u" d="M245.437,70.555l-9.5,0c-6.889,0-12.476,6.077-12.481,15.74l0,13.309c0,9.665,9.366,16.439,12.471,17.5a14.856,14.856,0,0,0,9.5,0c3.262-1.034,12.478-7.828,12.482-17.491l.005-13.313C257.911,76.64,252.329,70.557,245.437,70.555Z" transform="translate(-219.637 -70.552)"/><g transform="translate(7.708 17.337)"><path class="l" d="M258.161,165.665a2.2,2.2,0,1,0,2.042,2.2A2.126,2.126,0,0,0,258.161,165.665Z" transform="translate(-252.505 -161.162)"/><path class="l" d="M325.983,165.692a2.2,2.2,0,1,0,2.042,2.2A2.127,2.127,0,0,0,325.983,165.692Z" transform="translate(-304.753 -161.183)"/><g transform="translate(16.849)"><path class="o" d="M321.638,146.367a9.185,9.185,0,0,0-5.558.238c-.616.114-2.579.837-2.28,1.376.564,1.013,2.964-.092,3.953-.386,1.956-.58,3.232-1.008,6.872.787C325.183,148.658,323.009,146.679,321.638,146.367Z" transform="translate(-313.769 -146.056)"/></g><path class="o" d="M249.024,146.605a9.18,9.18,0,0,0-5.557-.238c-1.37.312-3.546,2.291-2.988,2.016,3.639-1.795,4.917-1.368,6.873-.787.987.293,3.39,1.4,3.953.386C251.6,147.442,249.639,146.719,249.024,146.605Z" transform="translate(-240.39 -146.056)"/></g><g transform="translate(14.865 33.972)"><path class="y" d="M271.561,220.317c.995,2.219,2.461,5.84,6.9,5.833,4.654-.008,7.537-7.647,7.537-7.647C280.129,221.494,276.78,221.851,271.561,220.317Z" transform="translate(-271.561 -218.503)"/><path class="n" d="M276.661,223.137c.37,1.313,2.086,1.852,5.555,1.588,4.59-.354,5.613-1.569,6.181-2.975A19.619,19.619,0,0,1,276.661,223.137Z" transform="translate(-275.49 -221.004)"/><path class="z" d="M285.035,239.549a3.321,3.321,0,0,0-1.895-.741,12.465,12.465,0,0,0-2.961.69,5.575,5.575,0,0,0,4.789,2.28,6.162,6.162,0,0,0,4.632-2.486,15.843,15.843,0,0,0-3.046-.484A2.476,2.476,0,0,0,285.035,239.549Z" transform="translate(-278.201 -234.146)"/></g><path class="aa" d="M293.444,205.275c-1.778,1.594-4.3,1.111-5.04,0,0,0,.741,2.864,2.52,2.773S295.224,203.682,293.444,205.275Z" transform="translate(-269.671 -174.067)"/></g><g transform="translate(8.733 26.466)"><g transform="translate(4.133 1.057)"><path class="ab" d="M246.141,166.427s0,3.923-2.3,5.171c-1.829.994-6.96.893-8.364-.515s-2-5.144-2-5.144" transform="translate(-233.481 -164.699)"/><path class="ac" d="M234.129,162.155s5.067-3.765,12.932.191" transform="translate(-233.98 -160.537)"/></g><line class="ad" x1="4.515" y1="3.318"/><g transform="translate(21.137 1.018)"><path class="ab" d="M309.371,166.42s0,3.942,2.3,5.2c1.835,1,6.986.9,8.4-.517s2.008-5.168,2.008-5.168" transform="translate(-308.949 -164.653)"/><path class="ac" d="M307.535,162.217c8.976-4.121,13.076-.073,13.076-.073" transform="translate(-307.535 -160.367)"/></g><path class="ae" d="M0,3.318,4.52,0" transform="translate(33.881)"/><path class="af" d="M289.7,170.272a6.663,6.663,0,0,1,2.229-.635,4.8,4.8,0,0,1,2.051.522" transform="translate(-272.661 -166.49)"/></g><path class="o" d="M226.786,56.178C224.129,45.934,213,41.955,211.187,41.5c-7.889-1.959-12.263.151-12.263.151s-5.587,1.65-7.008,5.238c-3.936.063-5.876,3.025-7.337,5.137-5.915,8.544-2.962,15.9-1.656,27.064.828,7.073-4.428,7.123-5.476,7.668,0,0,10.431,4.174,11.36,3.118,1.1-1.251-4.185-7.414-4.042-13.468.024-.974,6.336-8.044,9.444-20.809,0,0,6.5,8.006,21.29,7.422-1.857-2-2.556-6.028-2.556-6.028s4.37,6.32,8.836,9.68c2.349,11.3-4.447,23.452-1.54,22.919a79.793,79.793,0,0,0,11.993-3.345C218.433,83.327,231.753,75.332,226.786,56.178Z" transform="translate(-177.448 -40.671)"/></g></g><g transform="translate(16.325 1.635)"><g transform="translate(0 53.916)"><g transform="translate(0 5.321)"><path class="n" d="M807.293,1755.8l-1.232.055A1.226,1.226,0,0,0,807.293,1755.8Z" transform="translate(-792.541 -1707.19)"/><path class="n" d="M612.551,1035.275c-9.552,2.052-8.191,20.143-8.617,36.8l1.5,6.24,12.016-.534c-.847-.485-1.73-2.386-1.193-8.647.933-10.885.661-15.232.661-15.232l10.894-24.782S616.188,1034.494,612.551,1035.275Z" transform="translate(-603.934 -1029.123)"/></g><path class="b" d="M775.533,1413.731l1.319-.312-.264-16.854Z" transform="translate(-764.055 -1366.666)"/><path class="q" d="M857.323,2155.164l-.045,7.037H875.04l.241-7.564Z" transform="translate(-840.331 -2074.031)"/><path class="q" d="M1158.012,2162.524l.224,7.036h17.776l-.042-6.508Z" transform="translate(-1120.95 -2081.39)"/><g transform="translate(46.577 5.321)"><path class="g" d="M1476.667,1755.821l-.428-.024S1476.476,1756.234,1476.667,1755.821Z" transform="translate(-1464.468 -1707.19)"/><path class="g" d="M1315.527,1035.275c-3.636-.78-15.265-6.152-15.265-6.152l10.894,24.782s.257,4.348,1.19,15.232c.527,6.134.36,8.083.115,8.616l10.18.565,1.5-6.24C1323.717,1055.417,1325.078,1037.327,1315.527,1035.275Z" transform="translate(-1300.262 -1029.123)"/></g><path class="ag" d="M798.975,1047.724l-15.9,5.978-.018,57.481,46.436.017.021-57.481-15.009-8.059Z" transform="translate(-771.074 -1039.232)"/><path class="ah" d="M1072.581,1181.127l-2.433,34.186,4.421,7.741,4.57-7.4-2.95-34.527Z" transform="translate(-1038.963 -1165.639)"/><path class="ai" d="M1063.6,1064.305s-3.6.073-4.483,1.69c-1.942,3.573,2.73,6.634,2.73,6.634h3.6s3.864-2.775,2.772-5.46C1067.345,1065.006,1063.6,1064.305,1063.6,1064.305Z" transform="translate(-1028.232 -1056.631)"/><g transform="translate(23.221)"><path class="aj" d="M951.082,955.94l5.576,7.7,6.775-6.674L952.1,949.581Z" transform="translate(-951.082 -949.581)"/><path class="aj" d="M1129.675,957.082l6.774,6.679,5.071-7.189-.51-6.869Z" transform="translate(-1117.729 -949.696)"/></g><path class="n" d="M758.462,1037.036l-11.518,5.2-2.258,13.908s-.841,39.67-1.124,63.212h26.646l.752-36.112Z" transform="translate(-734.222 -1031.186)"/><path class="g" d="M873.338,1000.2l-3,12.361,4.856,4.763-.443,3.741,14.505,25.345-13.14-48.849Z" transform="translate(-852.515 -994.348)"/><path class="t" d="M819.528,1993.7l10.324,0v-1.36l-10.324,0Z" transform="translate(-805.107 -1922.585)"/><path class="g" d="M1134.3,1042.36l-11.517-5.205-12.526,46.2.02,36.112h27.371c-.273-23.544-1.1-63.2-1.1-63.2Z" transform="translate(-1076.387 -1031.297)"/><path class="n" d="M1126.2,1000.325l-2.771-2.641-13.174,48.841,16.052-25.337-1.97-3.741,4.858-4.759Z" transform="translate(-1076.387 -994.466)"/><path class="t" d="M1140.336,1801.614a1.02,1.02,0,1,0,1.018,1.021A1.021,1.021,0,0,0,1140.336,1801.614Z" transform="translate(-1103.502 -1744.622)"/><path class="t" d="M1140.287,1961.828a1.02,1.02,0,1,0,1.021,1.019A1.02,1.02,0,0,0,1140.287,1961.828Z" transform="translate(-1103.458 -1894.12)"/><path class="t" d="M1141.249,2132.021a1.02,1.02,0,1,0,1.017,1.021A1.025,1.025,0,0,0,1141.249,2132.021Z" transform="translate(-1104.352 -2052.928)"/><path class="t" d="M1284.856,1993.873l10.323.005v-1.365h-10.324Z" transform="translate(-1239.309 -1922.752)"/><path class="t" d="M952.712,1692.155l37.236,7.13v-3.169l-36.708-7.4Z" transform="translate(-929.382 -1639.28)"/><path class="t" d="M1192.245,1579.38l.307,3.768,18.6,2.42-.089-3.337Z" transform="translate(-1152.893 -1537.253)"/><path class="t" d="M1458.074,1413.418l1.32.313-1.056-17.167Z" transform="translate(-1400.941 -1366.666)"/><path class="u" d="M762.478,1519.613c-.483,1.078,1.281,2.2,1.281,2.2s-4.236-1.15-5.758-.691-2.372,2.345-2.581,3.674,1.127,3.789,3.451,4.618,9.42,1.858,10.092,1.036,1.813-7.346,1.813-7.346l-5.667-3.828S762.963,1518.534,762.478,1519.613Z" transform="translate(-745.267 -1480.936)"/><path class="g" d="M988.5,1558.824l-35.441-7.007-1.957,11.2s32.762,6.393,40.372,7.649,6.633-12.651,6.633-12.651Z" transform="translate(-927.883 -1511.534)"/><path class="t" d="M751.828,1696.116v3.169l37.238-7.13-.529-3.434Z" transform="translate(-741.935 -1639.28)"/><path class="u" d="M1252.908,1555.488a12.47,12.47,0,0,0-6.552,1.093s1.141,6.526,1.814,7.346,3.784-2.524,6.111-3.354,4.581-.5,6.013-.67C1261.631,1559.744,1256.7,1555.741,1252.908,1555.488Z" transform="translate(-1203.385 -1514.924)"/><path class="n" d="M616.468,1543.026l-9.606.245s-.977,13.906,6.633,12.651,40.37-7.649,40.37-7.649l-1.957-12.253Z" transform="translate(-606.628 -1496.794)"/></g><g transform="translate(11.883 75.553)"><g transform="translate(0.205 11.257)"><path class="v" d="M790.391,1455.779c-1.277.193-2.878.142-3.43-.378a5.114,5.114,0,0,1-.947-2.873,109.21,109.21,0,0,1-.315-11.18l-1.055.012a109.689,109.689,0,0,0,.321,11.307c.232,1.59.521,2.834,1.313,3.542,1.139.906,2.877.78,4.254.617a16.253,16.253,0,0,0,2.009-.4l-.281-1.016A15.457,15.457,0,0,1,790.391,1455.779Z" transform="translate(-784.644 -1441.349)"/><g transform="translate(5.813 13.624)"><path class="w" d="M872.676,1645.067c-.714.153-1.208.66-1.108,1.136s.759.738,1.475.588,1.208-.661,1.108-1.136S873.39,1644.914,872.676,1645.067Z" transform="translate(-871.555 -1645.023)"/></g></g><g transform="translate(12.05 9.098)"><g transform="translate(0.713)"><path class="v" d="M976.047,1409.08l-1.022.267a109.893,109.893,0,0,1,2.638,10.867,5.179,5.179,0,0,1-.158,3.023c-.4.645-1.928,1.117-3.214,1.266a16.586,16.586,0,0,1-1.9.137v1.055a16.748,16.748,0,0,0,2.04-.145c1.371-.206,3.083-.541,3.943-1.714.575-.891.529-2.167.333-3.761A109.55,109.55,0,0,0,976.047,1409.08Z" transform="translate(-972.392 -1409.08)"/></g><g transform="translate(0 14.994)"><path class="w" d="M963,1633.247c-.729.042-1.3.469-1.27.955s.641.844,1.369.8,1.3-.469,1.269-.954S963.729,1633.2,963,1633.247Z" transform="translate(-961.731 -1633.244)"/></g></g><path class="w" d="M788.548,1273.117c-4.724.676-7.607,6.037-6.841,11.827l1.367-.184h0a11.26,11.26,0,0,1,1.192-6.963,5.745,5.745,0,0,1,9.646-1.291,11.252,11.252,0,0,1,2.98,6.4l1.367-.182C797.473,1276.941,793.283,1272.527,788.548,1273.117Z" transform="translate(-781.584 -1273.064)"/></g><g transform="translate(17.164 54.385)"><path class="w" d="M863.573,959.815a13.5,13.5,0,0,0-3.033,8.716,99.239,99.239,0,0,0,.989,10.371l1.322-.386h0a13.387,13.387,0,0,0-.284-1.942,74.914,74.914,0,0,1-.7-8.043,12.154,12.154,0,0,1,2.757-7.91,7.522,7.522,0,0,1,3.3-2.735l-.32-1.281A8.586,8.586,0,0,0,863.573,959.815Z" transform="translate(-860.54 -956.605)"/></g><g transform="translate(46.188 54.385)"><path class="w" d="M1298.786,959.815a8.581,8.581,0,0,0-4.026-3.21l-.32,1.282a7.534,7.534,0,0,1,3.3,2.734,13.334,13.334,0,0,1,2.551,5.463,16.724,16.724,0,0,1,.206,2.885,74.233,74.233,0,0,1-1.01,10.3l1.3.227v0a75.326,75.326,0,0,0,1.029-10.53,17.874,17.874,0,0,0-.229-3.127A14.635,14.635,0,0,0,1298.786,959.815Z" transform="translate(-1294.44 -956.605)"/></g><g transform="translate(45.738 76.683)"><path class="x" d="M1292.467,1289.951a4.754,4.754,0,1,0,4.753,4.755A4.754,4.754,0,0,0,1292.467,1289.951Z" transform="translate(-1287.713 -1289.951)"/><path class="t" d="M1326.824,1326.811a2.289,2.289,0,1,0,2.288,2.289A2.291,2.291,0,0,0,1326.824,1326.811Z" transform="translate(-1322.07 -1324.345)"/></g><g transform="translate(9.942 0)"><path class="u" d="M754.373,604.874c-2.276.662-1.75,4.079-1.752,5.35s1.9,5.776,3.179,6.27c3.233,1.254,3.234-3.459,3.234-3.459v-5.483S756.648,604.214,754.373,604.874Z" transform="translate(-752.57 -573.935)"/><path class="u" d="M1407.37,605.7c-2.277-.66-4.664,2.671-4.664,2.671v5.486s-.005,4.859,3.23,3.462c1.255-.544,3.182-5,3.184-6.27S1409.646,606.365,1407.37,605.7Z" transform="translate(-1359.219 -574.709)"/><path class="u" d="M846.773,246.8l-11.309,0c-8.209,0-14.863,8.674-14.869,19.381l0,14.751c0,10.708,11.156,18.214,14.856,19.393a18.958,18.958,0,0,0,11.309,0c3.888-1.147,14.865-8.675,14.87-19.381l0-14.752C861.633,255.483,854.981,246.8,846.773,246.8Z" transform="translate(-816.042 -239.889)"/><path class="ak" d="M806.339,341.964c1.521-1.225,5.308-21.848,5.5-22.937l-6.484,2.067S805.016,343.031,806.339,341.964Z" transform="translate(-801.789 -307.289)"/><path class="ak" d="M1361.824,338.457s3.839,21.082,5.032,22.086.9-18.853.9-18.853Z" transform="translate(-1321.071 -325.419)"/><g transform="translate(8.592 27.882)"><path class="l" d="M956.571,640.483A2.435,2.435,0,1,0,959,642.921,2.436,2.436,0,0,0,956.571,640.483Z" transform="translate(-949.243 -635.125)"/><path class="l" d="M1233.907,640.565a2.436,2.436,0,1,0,2.434,2.437A2.437,2.437,0,0,0,1233.907,640.565Z" transform="translate(-1208.03 -635.202)"/><g transform="translate(20.861)"><path class="ak" d="M1204.089,561.717c-2.835-1.9-8.25-1.238-9.076-1.154-.722.07-2.2.715-2.125,1.437s2.611,1.256,3.331,1.184a24.975,24.975,0,0,1,9.178.36C1206.106,563.707,1204.693,562.121,1204.089,561.717Z" transform="translate(-1192.886 -560.384)"/></g><g transform="translate(0 0.111)"><path class="ak" d="M891.6,562.216c-.824-.081-6.24-.745-9.077,1.152-.6.4-2.016,2-1.308,1.825a22.864,22.864,0,0,1,9.177-.356c.722.073,3.264-.455,3.337-1.178S892.325,562.29,891.6,562.216Z" transform="translate(-881.021 -562.038)"/></g></g><g transform="translate(17.707 46.683)"><path class="y" d="M1017.3,843.467c1.186,2.459,2.931,6.47,8.22,6.462,5.545-.009,8.979-8.473,8.979-8.473C1027.5,844.771,1023.513,845.167,1017.3,843.467Z" transform="translate(-1017.295 -841.457)"/><path class="n" d="M1038.135,855.351c.443,1.454,2.487,2.052,6.617,1.759,5.47-.392,6.688-1.74,7.365-3.3A25,25,0,0,1,1038.135,855.351Z" transform="translate(-1036.741 -852.988)"/><path class="z" d="M1058.324,919.487a4.108,4.108,0,0,0-2.258-.821,15.754,15.754,0,0,0-3.526.766,6.817,6.817,0,0,0,5.705,2.525,7.432,7.432,0,0,0,5.517-2.754,20.016,20.016,0,0,0-3.63-.536A3.029,3.029,0,0,0,1058.324,919.487Z" transform="translate(-1050.183 -913.501)"/></g><path class="aa" d="M1092.177,790.169c-2.118,1.767-5.122,1.231-6,0,0,0,.882,3.174,3,3.075S1094.3,788.4,1092.177,790.169Z" transform="translate(-1063.859 -746.549)"/><path class="ak" d="M823.992,144.61c-9.4-2.171-14.61,1.462-14.61,1.462a1.8,1.8,0,0,1-.315-2.528c-2.605.356-3.317,3.04-4.147,5.094a6.53,6.53,0,0,0-4.7.276,2.072,2.072,0,0,1-.157,3.474c-6.317,5.213-3.317,11.291-3.317,11.291s2.326,5.789,3.434,4.62c4.145-4.383,7.4-6.693,8.115-10.009,0,0,4.406,5.708,10.343,7.047,4.894,1.106,10.954,2.054,13.521,1.541-2.212-2.212-2.843-6.4-2.843-6.4s7.033,12.886,10.422,3.317C843.338,153.651,830.712,146.164,823.992,144.61Z" transform="translate(-793.13 -143.544)"/></g><g transform="translate(12.85 30.356)"><g transform="translate(4.196 1.991)"><path class="ab" d="M880.232,634.033s0,5.421-2.6,6.735c-2.07,1.047-7.872.941-9.46-.541s-2.263-6.707-2.263-6.707" transform="translate(-865.435 -633.092)"/><path class="ac" d="M858.776,627.961s9.694-1.982,15.275.2" transform="translate(-858.776 -627.137)"/></g><line class="ad" x1="5.106" y1="3.492" transform="translate(0 0)"/><g transform="translate(25.135 2.071)"><path class="ab" d="M1178.979,634.019s0,5.443,2.606,6.76c2.077,1.05,7.9.944,9.5-.544s2.272-6.731,2.272-6.731" transform="translate(-1178.5 -633.158)"/><path class="ac" d="M1171.814,629.276c6.02-2,15.333-.2,15.333-.2" transform="translate(-1171.814 -628.329)"/></g><line class="ad" y1="3.492" x2="5.112" transform="translate(39.553 0)"/><path class="af" d="M1087.131,643.828a8.459,8.459,0,0,1,2.948-.889,6.086,6.086,0,0,1,2.716.732" transform="translate(-1067.66 -639.891)"/></g></g></g></g></svg>