<svg xmlns="http://www.w3.org/2000/svg" width="178.575" height="113.745" viewBox="0 0 178.575 113.745"><defs><style>.a{fill:#19194f;}.a,.b,.c,.d,.e,.f,.g,.h,.i,.j,.k,.m,.n,.o,.p,.q,.r,.s,.t,.u,.v,.w,.x,.y{fill-rule:evenodd;}.b{fill:#d7766d;}.c{fill:#2c2a64;}.d{fill:#accbdb;}.e{fill:#fff;}.f{fill:#d77f68;}.g{fill:#e6ad83;}.h{fill:#ebbf9e;}.i{fill:#12151d;}.j{fill:#d26070;}.k{fill:#cf4a60;}.l,.o{fill:#ba3147;}.m{fill:#d3e4ec;}.n{fill:#e7f0f4;}.p{fill:#f1d3c8;}.q{fill:#cfd0d2;}.r{fill:#2f3a72;}.s{fill:#232458;}.t{fill:#385da2;}.u{fill:#304786;}.v{fill:#5e90cc;}.w{fill:#4377b3;}.x{fill:#f0f5fb;}.y{fill:#adb3d9;}</style></defs><g transform="translate(-9.785 -34.746)"><g transform="translate(105.061 34.746)"><path class="a" d="M492.722,409.139H454.649v22.214h35.659Z" transform="translate(-441.165 -317.608)"/><path class="a" d="M412.942,194.19a9.222,9.222,0,0,0-5.362,5.138c-1.95,4.22-6.7,17.544-7.888,21.282s3.122,19.733,8.619,28.255h7.221s-6.976-21.322-7.276-23.372,6.6-13.987,6.6-13.987C416.76,205.527,416.645,199.555,412.942,194.19Z" transform="translate(-399.494 -155.209)"/><path class="b" d="M514.122,108.422h0c3.2,0,5.826,4.483,5.826,9.963v8.092c0,5.48-2.622,9.963-5.826,9.963h0c-3.2,0-5.826-4.483-5.826-9.963v-8.092C508.3,112.905,510.918,108.422,514.122,108.422Z" transform="translate(-481.696 -90.41)"/><path class="a" d="M600.851,194.19a9.222,9.222,0,0,1,5.362,5.138c1.951,4.22,6.7,17.544,7.889,21.282s-3.123,19.733-8.618,28.255h-7.222s6.976-21.322,7.276-23.372-6.6-13.987-6.6-13.987C597.034,205.527,597.148,199.555,600.851,194.19Z" transform="translate(-549.259 -155.209)"/><path class="c" d="M473.149,178.551l-.944.113-.489.335-.49-.335-.944-.113-5.561-4.363-12.077,4.89-.6,11.589c.9,11.517,3.739,29.984,3.739,30.877s-1.915,7.147-3.1,10.951h38.073c-1.187-3.8-3.1-10.058-3.1-10.951s2.837-19.36,3.739-30.877l-.6-11.589-12.078-4.89Z" transform="translate(-439.195 -140.097)"/><path class="d" d="M525.7,192.579l.565-.082a.469.469,0,0,1,.128.281c.016.177.029.7.029.7l-.432.135a7.512,7.512,0,0,1-.847-.011C525.152,193.569,525.7,192.579,525.7,192.579Z" transform="translate(-494.425 -153.93)"/><path class="d" d="M534.6,192.579l-.565-.082a.468.468,0,0,0-.128.281c-.016.177-.029.7-.029.7l.432.135a7.523,7.523,0,0,0,.848-.011C535.148,193.569,534.6,192.579,534.6,192.579Z" transform="translate(-501.023 -153.93)"/><path class="e" d="M539.759,166.53a1.968,1.968,0,0,1,.676,0c.174.075.762,2.163,1.126,2.676a1.229,1.229,0,0,1,.087,1.13c-.243.708-3.413,6.526-3.413,6.526s-.225.309-.589.008-3.128-4.017-3.128-4.017L539.759,167Z" transform="translate(-501.507 -134.286)"/><path class="e" d="M502.183,166.768a1.964,1.964,0,0,0-.676,0c-.173.075-.762,2.105-1.126,2.618a1.23,1.23,0,0,0-.087,1.13c.243.708,3.414,6.526,3.414,6.526s.225.309.589.008,3.128-4.017,3.128-4.017l-5.242-5.8Z" transform="translate(-475.583 -134.466)"/><g transform="translate(19.302 16.351)"><path class="f" d="M564.219,101.639c.079.011.156.024.233.041h0a3.176,3.176,0,1,1-2.655.62c-.087.936.054,2.1,1.249,2.222l-.022-1.831A1.091,1.091,0,0,1,564.219,101.639Z" transform="translate(-540.517 -101.635)"/><path class="f" d="M481.225,101.627c-.079.01-.156.022-.233.038h0a3.176,3.176,0,1,0,2.646.657c.074.938-.083,2.1-1.28,2.2l.047-1.831A1.092,1.092,0,0,0,481.225,101.627Z" transform="translate(-478.447 -101.627)"/></g><path class="g" d="M498.921,68.935c-5.927,0-10.872-7.314-10.872-13.088V48.177a10.9,10.9,0,0,1,10.87-10.871h0a10.9,10.9,0,0,1,10.87,10.871v7.508C509.791,62.013,505.477,68.935,498.921,68.935Z" transform="translate(-466.399 -36.68)"/><g transform="translate(23.192 18.883)"><path class="b" d="M557.479,111.985a1.832,1.832,0,1,0,1.866,1.8A1.832,1.832,0,0,0,557.479,111.985Z" transform="translate(-540.688 -111.985)"/><path class="b" d="M496.153,113.177a1.833,1.833,0,1,0,1.866,1.8A1.833,1.833,0,0,0,496.153,113.177Z" transform="translate(-494.355 -112.885)"/></g><path class="a" d="M506.149,90.586a.456.456,0,1,1-.614.673,2.982,2.982,0,0,0-2.61-.665.457.457,0,0,1-.224-.887A3.943,3.943,0,0,1,506.149,90.586Z" transform="translate(-477.208 -76.188)"/><path class="a" d="M550.128,90.068a.456.456,0,1,1-.23.882,2.981,2.981,0,0,0-2.619.627.457.457,0,1,1-.611-.68A3.939,3.939,0,0,1,550.128,90.068Z" transform="translate(-510.572 -76.463)"/><path class="h" d="M530.269,112.558a9.4,9.4,0,0,1,.527,1.713c-.043.234-1.246.45-1.562.142-.211-.2.05-1.1.279-1.707C529.823,111.881,530,111.817,530.269,112.558Z" transform="translate(-497.456 -93.145)"/><g transform="translate(30.237 23.338)"><path class="i" d="M527.74,130.625a2.284,2.284,0,0,1-4.569,0,.421.421,0,0,1,.421-.42h3.727A.421.421,0,0,1,527.74,130.625Z" transform="translate(-523.171 -130.205)"/><path class="e" d="M525.832,130.205H529.1v.386a.367.367,0,0,1-.366.366H526.2a.367.367,0,0,1-.366-.366Z" transform="translate(-525.181 -130.205)"/><path class="j" d="M529.054,136.166a2.284,2.284,0,0,1-3.311,0,2.283,2.283,0,0,1,3.311,0Z" transform="translate(-525.114 -134.171)"/></g><g transform="translate(25.894 16.008)"><path class="a" d="M506.719,102.842a1.309,1.309,0,1,0-1.309-1.309A1.312,1.312,0,0,0,506.719,102.842Z" transform="translate(-505.41 -100.223)"/><path class="a" d="M550.215,102.842a1.309,1.309,0,1,0-1.309-1.309A1.312,1.312,0,0,0,550.215,102.842Z" transform="translate(-538.272 -100.223)"/></g><g transform="translate(29.305 38.708)"><g transform="translate(0 0)"><path class="k" d="M519.362,193.357a.323.323,0,0,1,.389-.279l2.013,1.026.814.947-.814.947-2.013,1.026a.323.323,0,0,1-.389-.279l.608-1.694Z" transform="translate(-519.362 -193.073)"/><path class="k" d="M535.73,193.357a.323.323,0,0,0-.389-.279l-2.013,1.026-.813.947.813.947,2.013,1.026a.323.323,0,0,0,.389-.279l-.608-1.694Z" transform="translate(-529.299 -193.073)"/></g><path class="l" d="M.814,0h0a.814.814,0,0,1,.814.814V1.857a.813.813,0,0,1-.813.813h0A.814.814,0,0,1,0,1.856V.814A.814.814,0,0,1,.814,0Z" transform="translate(2.401 0.643)"/></g><path class="d" d="M564.832,131.328A.165.165,0,1,1,564.8,131l.058-.006a3.438,3.438,0,0,0,2.334-2.132,7.5,7.5,0,0,0,.741-2.616,3.172,3.172,0,0,0,.339-.147,7.755,7.755,0,0,1-.783,2.91,3.744,3.744,0,0,1-2.59,2.314Z" transform="translate(-524.272 -103.764)"/><path class="d" d="M489.018,131.328a.165.165,0,1,0,.036-.328l-.058-.006a3.438,3.438,0,0,1-2.334-2.132,7.5,7.5,0,0,1-.74-2.616,3.138,3.138,0,0,1-.339-.147,7.752,7.752,0,0,0,.784,2.91,3.743,3.743,0,0,0,2.59,2.314Z" transform="translate(-464.536 -103.764)"/><g transform="translate(21.104)"><path class="a" d="M492.85,43.007c-1.158,0-3.4.548-3.4,2.86s-.439,4.145-1.913,4.145v1.813c0,1.014-.1,2.039-1.055,2.039a5.236,5.236,0,0,0-.665-3.038V45.357a9.74,9.74,0,0,1,4.065-8.329,12.979,12.979,0,0,1,14.7,0,9.741,9.741,0,0,1,4.065,8.329v5.469a5.239,5.239,0,0,0-.665,3.038c-.957,0-1.056-1.025-1.056-2.039V50.011c-1.474,0-1.913-1.833-1.913-4.145s-2.238-2.86-3.4-2.86Z" transform="translate(-485.82 -34.746)"/><path class="a" d="M485.818,97.823a72.135,72.135,0,0,1,.931,8.2c0,2.631,3.213,6.749,6,7.705a11.642,11.642,0,0,0,8.961,0c2.79-.956,6.236-5.016,6.236-7.647s.7-8.255.7-8.255l-1.486-.873c0,1.493-.561,4.931-.672,6.824-.114,1.951-1.585,2.132-3.493,2.643-1.361.365-1.665,4.022-2.762,4.022a4.5,4.5,0,0,1-2.079-.548,3.332,3.332,0,0,0-1.849,0,4.5,4.5,0,0,1-2.078.548c-1.1,0-1.168-3.716-2.529-4.08-1.907-.511-3.379-.692-3.493-2.643-.111-1.893-.905-5.273-.905-6.766Z" transform="translate(-485.818 -81.742)"/><path class="c" d="M490.5,69.037a2.523,2.523,0,0,0-1.047,2.152c0,2.312-.439,4.145-1.913,4.145v1.294a.863.863,0,0,1-.861.861h0a.863.863,0,0,1-.86-.861V70.68a12.476,12.476,0,0,1,.169-2.072c2-.976,4.511.429,4.511.429ZM506.93,75.5v1.123a.863.863,0,0,0,.861.861h0a.863.863,0,0,0,.861-.861V70.68a12.451,12.451,0,0,0-.168-2.071h0c-1.984-.971-4.484.413-4.511.428a2.522,2.522,0,0,1,1.047,2.153c0,2.312.439,4.145,1.913,4.145Z" transform="translate(-485.818 -60.069)"/></g><path class="d" d="M567.938,106.482a.174.174,0,1,1-.334-.1c0-.01.883-2.992,2.394-4.232l.091.369A10.5,10.5,0,0,0,567.938,106.482Z" transform="translate(-526.499 -85.671)"/><path class="d" d="M489.391,106.482a.174.174,0,1,0,.334-.1c0-.01-.882-2.992-2.394-4.232l-.091.369A10.5,10.5,0,0,1,489.391,106.482Z" transform="translate(-465.788 -85.671)"/><g transform="translate(23.229 19.476)"><path class="e" d="M503.8,114.408l8.945.478s.357.1.346.431-.324,6.666-.324,6.666a2.118,2.118,0,0,1-.369,1.063c-.355.493-3.17,5.132-8.6,5.132s-8.244-4.639-8.6-5.132a2.122,2.122,0,0,1-.37-1.063s-.313-6.337-.324-6.666.347-.431.347-.431Z" transform="translate(-494.506 -114.408)"/><path class="m" d="M505.951,117.224l-8.6.459c.076,2.128.22,4.268.315,6.4a1.416,1.416,0,0,0,.241.693c.239.333.453.659.711.985A11.769,11.769,0,0,0,500.2,127.4a8.58,8.58,0,0,0,11.509,0,11.768,11.768,0,0,0,1.575-1.645c.257-.326.471-.652.71-.985a1.416,1.416,0,0,0,.241-.693c.1-2.129.24-4.269.315-6.4Z" transform="translate(-496.658 -116.536)"/><path class="d" d="M497.877,128.672c.044.832.09,1.664.133,2.5l7.929-3.059-8.062.563Zm.175,3.35.013.282a1.416,1.416,0,0,0,.241.693c.239.333.453.659.711.985a11.775,11.775,0,0,0,1.574,1.645,8.58,8.58,0,0,0,11.509,0,11.76,11.76,0,0,0,1.575-1.645c.257-.326.471-.652.711-.985a1.157,1.157,0,0,0,.1-.169s-1.394,1.508-6.234,1.508a30.408,30.408,0,0,1-10.2-2.314Zm16.6-.313c.029-.61.062-1.221.1-1.831l-5.912-.413Z" transform="translate(-497.053 -124.759)"/></g></g><g transform="translate(35.239 35.139)"><path class="n" d="M127.345,194.19a9.221,9.221,0,0,0-5.361,5.138c-1.95,4.22-6.7,17.544-7.889,21.282s3.123,19.733,8.619,28.255h7.221s-6.976-21.322-7.276-23.372,6.6-13.987,6.6-13.987C131.164,205.527,131.049,199.555,127.345,194.19Z" transform="translate(-113.897 -155.603)"/><path class="b" d="M228.525,108.422h0c3.2,0,5.826,4.483,5.826,9.963v8.092c0,5.48-2.622,9.963-5.826,9.963h0c-3.2,0-5.826-4.483-5.826-9.963v-8.092C222.7,112.905,225.321,108.422,228.525,108.422Z" transform="translate(-196.099 -90.803)"/><path class="n" d="M315.256,194.19a9.221,9.221,0,0,1,5.361,5.138c1.95,4.22,6.7,17.544,7.888,21.282s-3.122,19.733-8.618,28.255h-7.221s6.976-21.322,7.276-23.372-6.6-13.987-6.6-13.987C311.437,205.527,311.553,199.555,315.256,194.19Z" transform="translate(-263.663 -155.603)"/><path class="e" d="M187.552,178.551l-.944.113-.49.335-.49-.335-.944-.113-5.561-4.363-12.077,4.89-.6,11.589c.9,11.517,3.739,29.984,3.739,30.877s-1.915,7.147-3.1,10.951h38.073c-1.187-3.8-3.1-10.058-3.1-10.951s2.837-19.36,3.739-30.877l-.6-11.589-12.078-4.89Z" transform="translate(-153.598 -140.491)"/><path class="k" d="M234.867,204.46l.26,1.387,2.634,34.335-4.2,8.923-4.2-8.923L232,205.847l.26-1.387,1.3.844Z" transform="translate(-201.139 -163.362)"/><path class="o" d="M245.443,204.46l.26,1.387,2.634,34.335-4.2,8.923s2.464-7.685,2.562-8.875-1.483-33.937-1.947-34.242a3.011,3.011,0,0,0-1.388-.275l.59-.526.183.118Z" transform="translate(-211.715 -163.362)"/><path class="d" d="M240.1,192.579l.564-.082a.468.468,0,0,1,.128.281c.016.177.028.7.028.7l-.432.135a7.522,7.522,0,0,1-.848-.011C239.554,193.569,240.1,192.579,240.1,192.579Z" transform="translate(-208.827 -154.324)"/><path class="d" d="M249,192.579l-.564-.082a.467.467,0,0,0-.128.281c-.016.177-.028.7-.028.7l.431.135a7.522,7.522,0,0,0,.848-.011C249.553,193.569,249,192.579,249,192.579Z" transform="translate(-215.428 -154.324)"/><path class="k" d="M236.338,199.476l-1.23-2.7c1.063-1,4.522-1,5.585,0l-1.231,2.7A7.18,7.18,0,0,0,236.338,199.476Z" transform="translate(-205.474 -156.991)"/><path class="o" d="M235.6,197.854l-.49-1.075a3.459,3.459,0,0,1,1.854-.691l-1.364,1.766Zm2.33-1.825a4.4,4.4,0,0,1,2.765.75l-1.231,2.7a5.809,5.809,0,0,0-1.177-.163,3.009,3.009,0,0,0,.548-.5,17.385,17.385,0,0,0-.1-2.46Z" transform="translate(-205.474 -156.992)"/><path class="m" d="M254.162,166.648a1.962,1.962,0,0,1,.676,0c.173.076.763,2.135,1.126,2.647a1.23,1.23,0,0,1,.087,1.13c-.243.708-3.413,6.526-3.413,6.526s-.225.309-.589.008-3.128-4.017-3.128-4.017l5.242-5.827Z" transform="translate(-215.91 -134.769)"/><path class="m" d="M216.586,166.173a1.961,1.961,0,0,0-.676,0c-.173.075-.762,2.251-1.126,2.763a1.229,1.229,0,0,0-.087,1.13c.243.708,3.413,6.526,3.413,6.526s.226.309.589.008,3.128-4.017,3.128-4.017l-5.242-5.944Z" transform="translate(-189.986 -134.41)"/><g transform="translate(19.302 15.957)"><path class="f" d="M278.622,101.639c.079.011.156.024.233.041h0a3.177,3.177,0,1,1-2.655.62c-.087.936.054,2.1,1.249,2.222l-.021-1.831A1.091,1.091,0,0,1,278.622,101.639Z" transform="translate(-254.921 -101.635)"/><path class="f" d="M195.629,101.627c-.079.01-.156.022-.233.038h0a3.176,3.176,0,1,0,2.646.657c.074.938-.083,2.1-1.28,2.2l.047-1.831A1.091,1.091,0,0,0,195.629,101.627Z" transform="translate(-192.851 -101.627)"/></g><path class="g" d="M213.324,68.935c-5.927,0-10.872-7.314-10.872-13.088V48.177a10.9,10.9,0,0,1,10.87-10.871h0a10.9,10.9,0,0,1,10.87,10.871v7.508C224.193,62.013,219.88,68.935,213.324,68.935Z" transform="translate(-180.802 -37.074)"/><g transform="translate(23.191 18.49)"><path class="b" d="M271.883,111.985a1.832,1.832,0,1,0,1.866,1.8A1.833,1.833,0,0,0,271.883,111.985Z" transform="translate(-255.091 -111.985)"/><path class="b" d="M210.557,113.177a1.833,1.833,0,1,0,1.866,1.8A1.833,1.833,0,0,0,210.557,113.177Z" transform="translate(-208.758 -112.885)"/></g><g transform="translate(25.146 13.124)"><path class="a" d="M220.517,90.36a.455.455,0,1,1-.376.829,2.984,2.984,0,0,0-2.688.173.457.457,0,0,1-.486-.774A3.941,3.941,0,0,1,220.517,90.36Z" transform="translate(-216.752 -90.037)"/><path class="a" d="M264.367,90.749a.455.455,0,1,1-.442.8,2.984,2.984,0,0,0-2.693-.046.457.457,0,1,1-.422-.811A3.941,3.941,0,0,1,264.367,90.749Z" transform="translate(-249.852 -90.222)"/></g><path class="h" d="M244.673,112.558a9.392,9.392,0,0,1,.527,1.713c-.042.234-1.246.45-1.563.142-.21-.2.051-1.1.279-1.707C244.227,111.881,244.4,111.817,244.673,112.558Z" transform="translate(-211.859 -93.538)"/><g transform="translate(30.236 22.944)"><path class="i" d="M242.143,130.625a2.284,2.284,0,0,1-4.569,0,.421.421,0,0,1,.42-.42h3.728A.421.421,0,0,1,242.143,130.625Z" transform="translate(-237.574 -130.205)"/><path class="e" d="M240.235,130.205H243.5v.386a.367.367,0,0,1-.366.366H240.6a.367.367,0,0,1-.366-.366Z" transform="translate(-239.584 -130.205)"/><path class="j" d="M243.457,136.166a2.284,2.284,0,0,1-3.311,0,2.283,2.283,0,0,1,3.311,0Z" transform="translate(-239.517 -134.171)"/></g><g transform="translate(25.894 15.614)"><path class="a" d="M221.122,102.842a1.309,1.309,0,1,0-1.309-1.309A1.312,1.312,0,0,0,221.122,102.842Z" transform="translate(-219.813 -100.223)"/><path class="a" d="M264.619,102.842a1.309,1.309,0,1,0-1.309-1.309A1.312,1.312,0,0,0,264.619,102.842Z" transform="translate(-252.676 -100.223)"/></g><path class="d" d="M280.451,108.082a.165.165,0,0,1-.317-.094c0-.01.836-2.832,2.266-4.006l.086.35A9.937,9.937,0,0,0,280.451,108.082Z" transform="translate(-239.487 -87.448)"/><path class="d" d="M279.236,131.328A.165.165,0,0,1,279.2,131l.058-.006a3.437,3.437,0,0,0,2.334-2.132,7.5,7.5,0,0,0,.741-2.616,3.145,3.145,0,0,0,.339-.147,7.744,7.744,0,0,1-.783,2.91,3.744,3.744,0,0,1-2.59,2.314Z" transform="translate(-238.676 -104.158)"/><path class="d" d="M206.1,108.082a.165.165,0,0,0,.317-.094c0-.01-.836-2.832-2.267-4.006l-.086.35A9.933,9.933,0,0,1,206.1,108.082Z" transform="translate(-182.018 -87.448)"/><path class="d" d="M203.421,131.328a.165.165,0,1,0,.036-.328l-.058-.006a3.439,3.439,0,0,1-2.334-2.132,7.508,7.508,0,0,1-.741-2.616,3.188,3.188,0,0,1-.339-.147,7.759,7.759,0,0,0,.783,2.91,3.744,3.744,0,0,0,2.59,2.314Z" transform="translate(-178.939 -104.158)"/><g transform="translate(23.725 19.37)"><path class="e" d="M219.735,115.584l8.467.453s.338.1.328.408-.307,6.31-.307,6.31a2.006,2.006,0,0,1-.35,1.007c-.335.467-3,4.858-8.139,4.858s-7.8-4.392-8.139-4.858a2,2,0,0,1-.35-1.007s-.3-6-.307-6.31.328-.408.328-.408Z" transform="translate(-210.939 -115.584)"/><path class="m" d="M221.774,118.249l-8.137.435c.071,2.015.208,4.04.3,6.056a1.344,1.344,0,0,0,.228.656c.227.316.429.624.673.932a11.153,11.153,0,0,0,1.491,1.557,8.122,8.122,0,0,0,10.9,0,11.193,11.193,0,0,0,1.49-1.557c.243-.309.446-.617.673-.932a1.334,1.334,0,0,0,.228-.656c.09-2.015.227-4.04.3-6.056Z" transform="translate(-212.977 -117.597)"/><path class="d" d="M214.128,129.087c.042.788.086,1.576.126,2.363l7.506-2.9-7.632.533Zm.166,3.171.012.266a1.343,1.343,0,0,0,.228.656c.227.316.429.624.673.932a11.153,11.153,0,0,0,1.491,1.557,8.122,8.122,0,0,0,10.9,0,11.193,11.193,0,0,0,1.49-1.557c.244-.309.446-.617.673-.932a1.129,1.129,0,0,0,.094-.16s-1.319,1.428-5.9,1.428a28.786,28.786,0,0,1-9.655-2.19Zm15.716-.3q.042-.867.09-1.734l-5.6-.391Z" transform="translate(-213.348 -125.383)"/></g><g transform="translate(20.98)"><path class="c" d="M211.252,36.356a12.939,12.939,0,0,1,7.431,2.307,9.848,9.848,0,0,1,4.11,8.421v5.528a5.3,5.3,0,0,0-.672,3.072c-.967,0-1.067-1.037-1.067-2.062V51.789c-2.127,0-2.382-5.7-1.986-6.377.322-.554,1.33-2.021,1.683-2.449,0,0,.147-.2,0-.282s-.263.057-.868.671a9.674,9.674,0,0,1-1.692,1.441c-.529.272-2.267-.085-3.112-.085h-7.654c-.845,0-2.584.357-3.113.085a9.683,9.683,0,0,1-1.693-1.441c-.6-.614-.721-.757-.867-.671s0,.282,0,.282c.353.429,1.36,1.9,1.683,2.449.4.682.141,6.377-1.986,6.377v1.833c0,1.025-.1,2.062-1.067,2.062a5.3,5.3,0,0,0-.672-3.072V47.084a9.847,9.847,0,0,1,4.109-8.421A12.941,12.941,0,0,1,211.252,36.356Z" transform="translate(-199.711 -36.356)"/><path class="a" d="M205.4,42.68c.146-.086.263.057.867.671a9.683,9.683,0,0,0,1.693,1.441c.529.272,2.267-.085,3.113-.085h7.654c.846,0,2.583.357,3.112.085a9.674,9.674,0,0,0,1.692-1.441c.6-.614.721-.757.868-.671s0,.282,0,.282l.2-.233.664-.779a9.287,9.287,0,0,0-2.929-3.287,13.122,13.122,0,0,0-14.862,0,9.289,9.289,0,0,0-2.929,3.287l.664.779.2.233S205.254,42.765,205.4,42.68Z" transform="translate(-203.359 -36.356)"/></g><path class="a" d="M227.575,412.684H196.119v21.347H225.58Z" transform="translate(-176.018 -320.68)"/></g><g transform="translate(9.785 63.33)"><path class="a" d="M88.316,233.232a23.787,23.787,0,0,1-1.56,9.366,1.825,1.825,0,0,0,.409,1.766c.743.657,5.942,2.465,12.589,2.465s11.847-1.808,12.59-2.465a1.825,1.825,0,0,0,.408-1.766,23.8,23.8,0,0,1-1.56-9.366L99.754,232.1Z" transform="translate(-67.881 -212.438)"/><path class="g" d="M70.172,338.951c1.036-5.436.3-10.429-.754-17.841-2-3.88-3.527-10.934-2.469-15.99a81,81,0,0,0,1.177-12.356s9.963-2.193,10.845-2.634.962-2.292.962-2.292l4.652-1,4.653,1s.08,1.852.962,2.292,10.845,2.634,10.845,2.634a81,81,0,0,0,1.177,12.356c1.058,5.056-.47,12.11-2.469,15.99-1.052,7.414-1.79,12.4-.754,17.841Z" transform="translate(-52.713 -253.79)"/><path class="g" d="M125.764,242.962h0a4.67,4.67,0,0,1,4.657,4.656v8.914a4.67,4.67,0,0,1-4.657,4.657h0a4.67,4.67,0,0,1-4.656-4.657v-8.914A4.67,4.67,0,0,1,125.764,242.962Z" transform="translate(-93.892 -220.642)"/><g transform="translate(19.164 18.077)"><path class="b" d="M171.262,226.18c.074.011.146.023.218.038h0A2.965,2.965,0,1,1,169,226.8c-.082.875.05,1.959,1.166,2.075l-.02-1.709A1.019,1.019,0,0,1,171.262,226.18Z" transform="translate(-148.398 -226.038)"/><path class="b" d="M90.766,225.6c-.074.01-.146.021-.218.035h0a2.965,2.965,0,1,0,2.47.613c.069.876-.077,1.957-1.2,2.059l.044-1.709A1.019,1.019,0,0,0,90.766,225.6Z" transform="translate(-88.172 -225.604)"/></g><path class="g" d="M108.795,195.651c-5.533,0-10.149-6.828-10.149-12.218v-7.161a10.178,10.178,0,0,1,10.147-10.148h0a10.178,10.178,0,0,1,10.148,10.148v7.009C118.942,189.188,114.916,195.651,108.795,195.651Z" transform="translate(-76.921 -162.589)"/><path class="b" d="M103.152,179.559a10.255,10.255,0,0,1,2.342-3.017l11.534,1.57s4.153,2.878,5.276,5.112c.027.3.043.609.043.919v.766a2.274,2.274,0,0,1-1.341.7c-5.152,1.174-8.713-2.879-8.713-2.879s3.371.113-1.174,1.553-7.614-2.689-7.614-2.689Z" transform="translate(-80.326 -170.46)"/><g transform="translate(22.83 22.765)"><path class="b" d="M165.088,244.781a1.674,1.674,0,1,0,1.705,1.643A1.675,1.675,0,0,0,165.088,244.781Z" transform="translate(-148.707 -244.781)"/><path class="b" d="M104.81,245.871a1.674,1.674,0,1,0,1.705,1.643A1.674,1.674,0,0,0,104.81,245.871Z" transform="translate(-103.167 -245.604)"/></g><path class="a" d="M116.957,215.059a.425.425,0,0,1-.351.774,2.786,2.786,0,0,0-2.51.161.427.427,0,0,1-.454-.722A3.68,3.68,0,0,1,116.957,215.059Z" transform="translate(-88.1 -199.332)"/><path class="a" d="M157.891,215.422a.425.425,0,0,1-.413.743,2.782,2.782,0,0,0-2.514-.043.427.427,0,1,1-.394-.757A3.678,3.678,0,0,1,157.891,215.422Z" transform="translate(-118.999 -199.506)"/><path class="e" d="M129.875,255.481a3,3,0,0,0,6.008.055h-.005a.52.52,0,0,0-.514-.523l-4.961-.045a.521.521,0,0,0-.523.514Z" transform="translate(-100.515 -229.712)"/><path class="e" d="M134.365,263.95a3.006,3.006,0,0,0,3.471.243,1.869,1.869,0,0,0-1.708-1.123A1.894,1.894,0,0,0,134.365,263.95Z" transform="translate(-103.908 -235.832)"/><path class="e" d="M137.186,255.015l-4.662-.043a1.055,1.055,0,0,0,.5,1.154,13.228,13.228,0,0,0,4.036-.179A1.79,1.79,0,0,0,137.186,255.015Z" transform="translate(-102.505 -229.716)"/><path class="p" d="M139.286,235.957a11.177,11.177,0,0,1,.565,1.912c-.045.245-1.338.309-1.677-.065-.226-.249.054-1.176.3-1.794C138.808,235.169,138.994,235.124,139.286,235.957Z" transform="translate(-106.723 -214.895)"/><path class="e" d="M103.9,306.032l-2,26.988,4.111.107s.8,13.051,2.3,20.326H77.585c1.5-7.275,2.3-20.326,2.3-20.326l4.111-.107-2-26.988C87.854,315.624,98.038,315.624,103.9,306.032Z" transform="translate(-61.009 -268.292)"/><g transform="translate(16.576 42.434)"><path class="q" d="M88.876,367.96H77.585c1.5-7.275,2.3-20.326,2.3-20.326l4.111-.107L82.385,325.8c1.393-.236,2.643-.425,3.691-.571a12.25,12.25,0,0,0,3.362,1.877c-.232,38.658-.569,40.679-.569,40.679Z" transform="translate(-77.585 -325.233)"/><path class="q" d="M161.816,325.8l-1.609,21.723,4.111.107s.8,13.051,2.3,20.326H155.324l.007-.17s-.336-2.022-.569-40.679a12.233,12.233,0,0,0,3.362-1.877C159.173,325.38,160.423,325.568,161.816,325.8Z" transform="translate(-135.894 -325.233)"/></g><path class="o" d="M157.713,303.413a5.115,5.115,0,0,1-.682-1.08c-.17-.455-.113-.767.4-1.278s2.443-2.3,2.812-2.642a.652.652,0,0,1,.951.014c.2.2.946,1.1.946,1.1A10.028,10.028,0,0,1,157.713,303.413Z" transform="translate(-120.967 -262.385)"/><path class="k" d="M159.429,307.482a6.361,6.361,0,0,0-.213,1.691c0,.994.341,14.829.568,21.761s.342,18.239.342,19.091.4,1.137,1.079,1.023,9.035-1.932,11.875-2.613a2.241,2.241,0,0,0,1.08-1.761c0-1.137-1.307-21.477-1.307-21.477s-2.591-13.616,1.716-17.547a5.153,5.153,0,0,0-1.261-1.374c-.852-.654-9.452-2.676-9.452-2.676Z" transform="translate(-122.683 -266.454)"/><path class="o" d="M107.067,303.413a5.114,5.114,0,0,0,.682-1.08c.17-.455.114-.767-.4-1.278s-2.443-2.3-2.813-2.642a.652.652,0,0,0-.952.014c-.2.2-.946,1.1-.946,1.1A10.031,10.031,0,0,0,107.067,303.413Z" transform="translate(-79.94 -262.385)"/><path class="k" d="M73.96,307.482a6.347,6.347,0,0,1,.213,1.691c0,.994-.341,14.829-.568,21.761s-.341,18.239-.341,19.091-.4,1.137-1.08,1.023-9.034-1.932-11.875-2.613a2.241,2.241,0,0,1-1.079-1.761c0-1.137,1.307-21.477,1.307-21.477s2.591-13.616-1.716-17.547a5.167,5.167,0,0,1,1.262-1.374c.853-.654,9.452-2.676,9.452-2.676Z" transform="translate(-46.832 -266.454)"/><path class="b" d="M124.418,282.66v-2.224a8.466,8.466,0,0,1-4.591,1.4h-.13a7.97,7.97,0,0,1-4.592-1.638v2.69c-.025.334-.176,1.835-.958,2.226a7.421,7.421,0,0,1-.984.314c.1.088.6.618.707.715Z" transform="translate(-87.889 -248.772)"/><path class="a" d="M87.164,172.157a2.694,2.694,0,0,0,1.377-3.6s2.576-1.7,1.97-6.326c.3,1.122,3.786,5.159,7.728,3.939,2.451-.758,1.174-2.652,1.174-2.652a6.679,6.679,0,0,0,5.587,2.14s-.922,2.953,1.591,3.618c0,0-.287,2.727.871,2.955,0,0,.239-2.412,1.284-1.849,0,0,1.539-7.43.857-11.446s-11.212-7.273-14.243-7.273-8.03,3.561-8.333,6.212c0,0-3.333.757-3.561,2.576s1.947,10.2,1.947,10.2S87.164,170.074,87.164,172.157Z" transform="translate(-65.44 -151.665)"/><path class="a" d="M112.578,229.483a1.306,1.306,0,0,0-.8.27.383.383,0,0,1-.244-.193.151.151,0,1,0-.269.138.649.649,0,0,0,.283.283l-.011.014a.7.7,0,0,1-.368-.237.151.151,0,0,0-.236.19.984.984,0,0,0,.445.311l0,0a.941.941,0,0,1-.454-.148.151.151,0,0,0-.163.255,1.218,1.218,0,0,0,.469.18l.058.009a1.35,1.35,0,0,0-.021.235,1.309,1.309,0,1,0,1.309-1.309Zm10.634,0a1.309,1.309,0,1,0,1.309,1.309,1.287,1.287,0,0,0-.022-.237l.039-.006a1.217,1.217,0,0,0,.469-.18.151.151,0,0,0-.163-.255.941.941,0,0,1-.436.147l0-.008a.983.983,0,0,0,.428-.3.152.152,0,0,0-.236-.19.7.7,0,0,1-.35.232l-.013-.017a.65.65,0,0,0,.269-.275.151.151,0,0,0-.27-.138.38.38,0,0,1-.23.189A1.3,1.3,0,0,0,123.212,229.483Z" transform="translate(-86.023 -210.455)"/><g transform="translate(20.706 18.642)"><path class="d" d="M170.45,231.863a.165.165,0,1,1-.316-.094c0-.01,2.4-4.044,3.672-3.843l-.359.279A26.725,26.725,0,0,0,170.45,231.863Z" transform="translate(-151.633 -227.918)"/><path class="d" d="M98.665,232.8a.165.165,0,0,0,.317-.094c0-.01-2.428-3.665-3.7-3.464l.2.083.155.105A34.571,34.571,0,0,1,98.665,232.8Z" transform="translate(-95.086 -228.915)"/><path class="d" d="M98.441,253.2a.165.165,0,1,0,.036-.328l-.058-.006c-1.854-.232-3.47-2.983-3.6-4.62-.116-.066-.229-.136-.343-.213.087,1.845,1.821,4.9,3.9,5.161Z" transform="translate(-94.478 -243.117)"/><path class="d" d="M168.927,253.2a.165.165,0,1,1-.036-.328l.058-.006c1.853-.232,3.809-2.983,3.937-4.62.117-.066.23-.136.343-.213-.087,1.845-2.16,4.9-4.24,5.161Z" transform="translate(-150.588 -243.117)"/><g transform="translate(3.347 3.16)"><path class="e" d="M115.987,240.843l7.528.4s.3.087.292.363-.273,5.61-.273,5.61a1.784,1.784,0,0,1-.311.895c-.3.415-2.667,4.319-7.235,4.319s-6.937-3.9-7.235-4.319a1.784,1.784,0,0,1-.311-.895s-.264-5.333-.273-5.61.292-.363.292-.363Z" transform="translate(-108.167 -240.843)"/><path class="m" d="M117.8,243.213l-7.234.386c.064,1.791.185,3.591.265,5.383a1.193,1.193,0,0,0,.2.583c.2.28.381.555.6.829a9.946,9.946,0,0,0,1.325,1.384,7.22,7.22,0,0,0,9.686,0,9.933,9.933,0,0,0,1.325-1.384c.217-.274.4-.548.6-.829a1.191,1.191,0,0,0,.2-.583c.08-1.792.2-3.592.265-5.383Z" transform="translate(-109.98 -242.634)"/><path class="d" d="M111,252.847c.037.7.076,1.4.112,2.1l6.673-2.574-6.784.474Zm.147,2.82.011.237a1.194,1.194,0,0,0,.2.583c.2.28.381.555.6.829a9.947,9.947,0,0,0,1.325,1.384,7.22,7.22,0,0,0,9.686,0,9.934,9.934,0,0,0,1.325-1.384c.217-.274.4-.548.6-.829a.953.953,0,0,0,.084-.142s-1.173,1.269-5.246,1.269a25.59,25.59,0,0,1-8.583-1.947Zm13.971-.263q.037-.77.08-1.541l-4.975-.347Z" transform="translate(-110.311 -249.554)"/></g></g><path class="o" d="M23.035,314.546a6.655,6.655,0,0,0-3.5,3.052c-1.13,2.26-9.077,20.6-9.453,22.56-.363,1.887-1.005,7.281,2.452,19.729h9.641c-.371-1.6-2.5-14.915-2.828-15.285l4.187-11.38S28.441,319.5,23.035,314.546Z" transform="translate(-9.785 -274.725)"/><path class="o" d="M209.005,314.546a6.656,6.656,0,0,1,3.5,3.052c1.13,2.26,9.076,20.6,9.453,22.56.363,1.887,1.005,7.281-2.452,19.729h-9.641c.371-1.6,2.5-14.915,2.828-15.285l-4.187-11.38S203.6,319.5,209.005,314.546Z" transform="translate(-158.382 -274.725)"/></g><g transform="translate(124.359 61.281)"><path class="a" d="M553.125,166.362l-1.779.753s.246,7.775-1.562,13.129-.37,9.878,2.548,8.795c0,0,.17,3.261,2.588,4.015s5.424,1.338,5.424,1.338l8.137.51s7.725,2.421,8.3-7.839c0,0,2.63-.127,2.671-3.7S575.877,174,575.877,166.6s-22.753-.243-22.753-.243Zm-1.092-6.12-.573-1.014a64.732,64.732,0,0,1-1.009-8.138c.076-2.109,1.959-4.746,7.307-7.156s9.566,2.561,10.771,3.616c0,0,5.725-.226,7.156,1.356s.332,10.921.332,10.921Z" transform="translate(-531.736 -143.282)"/><path class="g" d="M539.34,338.709c1.035-5.436.3-10.428-.754-17.841-2-3.88-3.527-10.935-2.469-15.99a49.217,49.217,0,0,0,.776-10.768s10.364-3.782,11.245-4.223.962-2.292.962-2.292l4.652-1,4.653,1s.08,1.851.962,2.292,10.845,2.635,10.845,2.635a81.028,81.028,0,0,0,1.177,12.356c1.058,5.056-.471,12.11-2.469,15.99-1.051,7.414-1.79,12.4-.755,17.841Z" transform="translate(-521.753 -251.558)"/><path class="g" d="M594.931,242.719h0a4.67,4.67,0,0,1,4.657,4.656v8.914a4.67,4.67,0,0,1-4.657,4.657h0a4.67,4.67,0,0,1-4.657-4.657v-8.914A4.671,4.671,0,0,1,594.931,242.719Z" transform="translate(-562.93 -218.409)"/><g transform="translate(19.292 20.067)"><path class="b" d="M640.43,225.938c.074.01.146.023.217.039h0a2.965,2.965,0,1,1-2.478.579c-.082.874.05,1.958,1.166,2.075l-.02-1.71A1.018,1.018,0,0,1,640.43,225.938Z" transform="translate(-617.566 -225.796)"/><path class="b" d="M559.935,225.362c-.074.01-.146.021-.217.035h0a2.965,2.965,0,1,0,2.469.613c.069.876-.077,1.958-1.195,2.059l.044-1.709A1.018,1.018,0,0,0,559.935,225.362Z" transform="translate(-557.341 -225.362)"/></g><path class="g" d="M577.963,195.407c-5.533,0-10.149-6.827-10.149-12.218v-7.161a10.178,10.178,0,0,1,10.147-10.148h0a10.178,10.178,0,0,1,10.147,10.148v7.009C588.11,188.946,584.084,195.407,577.963,195.407Z" transform="translate(-545.961 -160.356)"/><path class="b" d="M585.936,182.32a4.27,4.27,0,0,0-3.691.376c-1.974,1.146-4.934,5.8-10.432,5.2s7.194-5.838,7.194-5.838,6.4-3.2,6.741-3.013S585.936,182.32,585.936,182.32Z" transform="translate(-547.938 -170.294)"/><g transform="translate(22.958 24.755)"><path class="b" d="M634.256,244.539a1.674,1.674,0,1,0,1.705,1.643A1.675,1.675,0,0,0,634.256,244.539Z" transform="translate(-617.876 -244.539)"/><path class="b" d="M573.979,245.629a1.674,1.674,0,1,0,1.705,1.643A1.674,1.674,0,0,0,573.979,245.629Z" transform="translate(-572.336 -245.362)"/></g><path class="a" d="M586.125,214.816a.425.425,0,0,1-.351.774,2.786,2.786,0,0,0-2.51.161.427.427,0,1,1-.454-.722A3.679,3.679,0,0,1,586.125,214.816Z" transform="translate(-557.141 -197.099)"/><path class="a" d="M627.059,215.18a.425.425,0,1,1-.413.743,2.783,2.783,0,0,0-2.514-.043.427.427,0,0,1-.394-.757A3.678,3.678,0,0,1,627.059,215.18Z" transform="translate(-588.04 -197.273)"/><path class="e" d="M599.043,255.239a3,3,0,1,0,6.008.054h0a.519.519,0,0,0-.514-.523l-4.961-.045a.521.521,0,0,0-.524.514Z" transform="translate(-569.555 -227.479)"/><path class="e" d="M603.534,263.707a3,3,0,0,0,3.47.243,1.869,1.869,0,0,0-1.707-1.124A1.894,1.894,0,0,0,603.534,263.707Z" transform="translate(-572.949 -233.598)"/><path class="e" d="M606.353,254.772l-4.662-.043a1.056,1.056,0,0,0,.5,1.155,13.236,13.236,0,0,0,4.036-.179A1.789,1.789,0,0,0,606.353,254.772Z" transform="translate(-571.545 -227.482)"/><path class="p" d="M608.455,235.714a11.16,11.16,0,0,1,.565,1.912c-.046.245-1.338.309-1.676-.065-.226-.249.054-1.177.3-1.793C607.976,234.926,608.162,234.881,608.455,235.714Z" transform="translate(-575.764 -212.662)"/><path class="e" d="M573.065,305.79l-2,26.988,4.111.107s.8,13.05,2.3,20.326H546.753c1.5-7.275,2.3-20.326,2.3-20.326l4.111-.107-2-26.988C557.022,315.382,567.206,315.382,573.065,305.79Z" transform="translate(-530.049 -266.06)"/><path class="e" d="M626.881,303.17a5.113,5.113,0,0,1-.682-1.08c-.17-.455-.113-.767.4-1.278s2.443-2.3,2.813-2.642a.652.652,0,0,1,.952.014c.2.2.946,1.1.946,1.1A10.027,10.027,0,0,1,626.881,303.17Z" transform="translate(-590.008 -260.152)"/><path class="r" d="M609.4,307.24c-.06.206-4.255,19.973-4.967,24.555-.065.425-1.457,8.1-1.457,8.237,0,.2,2.292,6.14,4.276,11.4h17.614c-1.11-6.081-3.028-16.2-3.04-16.532-.026-.728,1-9.946,1-9.946s-2.591-13.616,1.716-17.547a5.152,5.152,0,0,0-1.261-1.374c-.852-.654-9.452-2.676-9.452-2.676Z" transform="translate(-572.529 -264.221)"/><path class="s" d="M605.169,397.674c-.335,1.732-.6,3.154-.732,4.026-.065.425-1.457,8.1-1.457,8.237,0,.2,2.292,6.14,4.276,11.4h5.389l-6.55-18.3,3.569-6.955-2.288-.2S606.432,396.628,605.169,397.674Z" transform="translate(-572.529 -334.126)"/><path class="t" d="M611.865,346.555c-1.469,7.053-3.343,16.265-3.343,17.246l9.184-11.153-2.109-8.06S613.907,345.458,611.865,346.555Z" transform="translate(-576.717 -295.373)"/><path class="b" d="M584.289,284.806l6.934-2.737,2.363-.933v-.943a8.463,8.463,0,0,1-4.591,1.4h-.13a7.973,7.973,0,0,1-4.592-1.638v2.69c-.024.334-.175,1.835-.958,2.226a7.439,7.439,0,0,1-.984.314l.3.278Z" transform="translate(-556.929 -246.539)"/><path class="a" d="M581.746,226.858a1.3,1.3,0,0,0-.8.271.387.387,0,0,1-.244-.194.151.151,0,1,0-.269.138.652.652,0,0,0,.283.283l-.011.014a.7.7,0,0,1-.367-.237.151.151,0,0,0-.236.19.984.984,0,0,0,.445.311l0,0a.944.944,0,0,1-.455-.148.151.151,0,0,0-.163.255,1.216,1.216,0,0,0,.469.18l.059.009a1.324,1.324,0,0,0-.021.235,1.309,1.309,0,1,0,1.309-1.309Zm10.634,0a1.309,1.309,0,1,0,1.309,1.309,1.333,1.333,0,0,0-.021-.237l.038-.006a1.219,1.219,0,0,0,.469-.18.152.152,0,1,0-.163-.255.935.935,0,0,1-.436.146l0-.007a.98.98,0,0,0,.428-.3.152.152,0,0,0-.236-.19.7.7,0,0,1-.35.232l-.014-.017a.654.654,0,0,0,.269-.275.152.152,0,0,0-.27-.138.381.381,0,0,1-.229.189A1.3,1.3,0,0,0,592.38,226.858Z" transform="translate(-555.063 -206.422)"/><g transform="translate(20.834 20.633)"><path class="d" d="M639.619,231.621a.165.165,0,1,1-.316-.094c0-.01,2.4-4.044,3.673-3.843l-.359.279A26.632,26.632,0,0,0,639.619,231.621Z" transform="translate(-620.8 -227.676)"/><path class="d" d="M567.832,232.56a.165.165,0,0,0,.317-.094c0-.01-2.428-3.665-3.7-3.464l.2.084.156.1A34.557,34.557,0,0,1,567.832,232.56Z" transform="translate(-564.253 -228.672)"/><path class="d" d="M567.609,252.96a.165.165,0,1,0,.037-.328l-.058-.006c-1.854-.232-3.47-2.983-3.6-4.62-.117-.065-.229-.135-.343-.213.087,1.845,1.821,4.9,3.9,5.161Z" transform="translate(-563.646 -242.874)"/><path class="d" d="M638.1,252.96a.165.165,0,1,1-.036-.328l.058-.006c1.853-.232,3.809-2.983,3.937-4.62.117-.065.229-.135.343-.213-.087,1.845-2.16,4.9-4.24,5.161Z" transform="translate(-619.756 -242.874)"/><g transform="translate(3.347 3.16)"><path class="e" d="M585.155,240.6l7.528.4s.3.087.292.363-.273,5.609-.273,5.609a1.788,1.788,0,0,1-.311.9c-.3.415-2.667,4.318-7.236,4.318s-6.937-3.9-7.235-4.318a1.788,1.788,0,0,1-.311-.9s-.264-5.333-.273-5.609.292-.363.292-.363Z" transform="translate(-577.336 -240.6)"/><path class="m" d="M586.968,242.97l-7.234.386c.064,1.791.185,3.592.265,5.383a1.193,1.193,0,0,0,.2.583c.2.28.382.554.6.829a9.926,9.926,0,0,0,1.325,1.384,7.221,7.221,0,0,0,9.685,0,9.943,9.943,0,0,0,1.325-1.384c.217-.274.4-.548.6-.829a1.2,1.2,0,0,0,.2-.583c.08-1.791.2-3.592.265-5.383Z" transform="translate(-579.148 -242.391)"/><path class="d" d="M580.172,252.6c.037.7.076,1.4.112,2.1l6.672-2.575-6.785.474Zm.147,2.819.011.237a1.194,1.194,0,0,0,.2.583c.2.28.382.554.6.829a9.929,9.929,0,0,0,1.325,1.384,7.221,7.221,0,0,0,9.685,0,9.947,9.947,0,0,0,1.325-1.384c.217-.274.4-.548.6-.829a.976.976,0,0,0,.084-.143s-1.172,1.269-5.245,1.269a25.593,25.593,0,0,1-8.583-1.947Zm13.971-.263q.037-.77.08-1.541l-4.975-.348Z" transform="translate(-579.479 -249.31)"/></g></g><path class="u" d="M677.814,314.3a6.657,6.657,0,0,1,3.5,3.052c1.13,2.26,9.076,20.6,9.453,22.559.363,1.887,1,7.281-2.453,19.728h-9.641c.371-1.595,2.5-14.915,2.828-15.285l-4.572-9.184S672.408,319.257,677.814,314.3Z" transform="translate(-627.063 -272.492)"/><path class="a" d="M561.219,203.326a3.565,3.565,0,0,0,1.176-2.9s1.883-1.751,1.732-3.6-2.232-4.3-2.232-4.3a8.516,8.516,0,0,0-2.551,2.452c-.678,1.28.188,6.553.188,6.553S560.813,200.6,561.219,203.326Z" transform="translate(-539.366 -180.492)"/><path class="a" d="M641.818,203.326a3.565,3.565,0,0,1-1.176-2.9s-1.883-1.751-1.732-3.6,2.232-4.3,2.232-4.3a8.518,8.518,0,0,1,2.551,2.452c.678,1.28-.188,6.553-.188,6.553S642.224,200.6,641.818,203.326Z" transform="translate(-599.669 -180.492)"/><path class="a" d="M582.257,167.83l-.035-.015a.185.185,0,0,1-.167-.01c-1.494-.874-2.872.382-4.491,1.858-1.634,1.49-3.5,3.193-6.023,3.287a4.608,4.608,0,0,1-.694.137c-4.317.5-6.29-5.369-2.292-9.261,4.288-4.174,13.66-4.787,14.733,1.914a2.131,2.131,0,0,1-1.031,2.09Zm-2.72-.23c-2.327.663-4.228,3.357-6.547,4.719a12.261,12.261,0,0,0,4.325-2.93A14.366,14.366,0,0,1,579.537,167.6Z" transform="translate(-544.882 -156.434)"/><path class="a" d="M627.949,172.177s-.229,4.948,2.6,5.664,3.8-2.938,2.41-6.478-4.9-5.122-5.612-4.858S627.949,172.177,627.949,172.177Z" transform="translate(-590.776 -160.806)"/><path class="u" d="M620.233,307.24c-.036.123-1.554,7.259-2.92,13.949l10.2-10.765-1.653-6.78c-.731-.178-1.2-.288-1.2-.288Z" transform="translate(-583.359 -264.221)"/><path class="e" d="M575.712,303.17a5.125,5.125,0,0,0,.682-1.08c.17-.455.114-.767-.4-1.278s-2.443-2.3-2.812-2.642a.652.652,0,0,0-.952.014c-.2.2-.946,1.1-.946,1.1A10.034,10.034,0,0,0,575.712,303.17Z" transform="translate(-548.584 -260.152)"/><path class="r" d="M541.594,307.24c.066.225,5.068,23.806,5.068,25.41,0,.226-.017,11.041-.028,18.782H526.128c1.11-6.081,3.029-16.2,3.04-16.532.025-.728-1-9.946-1-9.946s2.591-13.616-1.716-17.547a5.165,5.165,0,0,1,1.262-1.374c.852-.654,9.451-2.676,9.451-2.676Z" transform="translate(-514.467 -264.221)"/><path class="t" d="M578.4,346.555c1.469,7.053,3.342,16.265,3.342,17.246l-9.183-11.153,2.109-8.06S576.358,345.458,578.4,346.555Z" transform="translate(-549.546 -295.373)"/><path class="u" d="M491.68,314.3a6.656,6.656,0,0,0-3.5,3.052c-1.13,2.26-9.077,20.6-9.453,22.559-.363,1.887-1.005,7.281,2.453,19.728h9.64c-.371-1.595-2.5-14.915-2.829-15.285l4.618-9.585S497.086,319.257,491.68,314.3Z" transform="translate(-478.43 -272.492)"/><path class="u" d="M566.9,307.24c.036.123,1.554,7.259,2.919,13.949l-10.2-10.765,1.653-6.78c.73-.178,1.2-.288,1.2-.288Z" transform="translate(-539.768 -264.221)"/><path class="e" d="M602.54,429.288a.527.527,0,1,0-.527-.527A.528.528,0,0,0,602.54,429.288Z" transform="translate(-571.8 -358.569)"/><path class="e" d="M602.54,450.083a.527.527,0,1,0-.527-.527A.528.528,0,0,0,602.54,450.083Z" transform="translate(-571.8 -374.28)"/></g><g transform="translate(67.287 51.627)"><path class="b" d="M356.608,195.418h0c3.2,0,5.826,4.483,5.826,9.963v8.092c0,5.48-2.622,9.963-5.826,9.963h0c-3.2,0-5.826-4.483-5.826-9.963v-8.092C350.782,199.9,353.4,195.418,356.608,195.418Z" transform="translate(-324.917 -173.018)"/><path class="v" d="M440.333,276.36a9.224,9.224,0,0,1,5.362,5.138c1.95,4.221,6.7,17.544,7.888,21.282s-3.123,19.733-8.619,28.255h-7.221s6.976-21.322,7.276-23.371-6.6-13.987-6.6-13.987C436.515,287.7,436.63,281.725,440.333,276.36Z" transform="translate(-390.21 -234.172)"/><path class="w" d="M459.885,402.684c-.9,6.44-4.4,17.291-8.594,23.792h-4.482c-.721-.983-1.232-1.72-1.232-1.72l.693-5.067C454.31,427.978,458.973,407.761,459.885,402.684Z" transform="translate(-396.537 -329.612)"/><path class="a" d="M315.051,265.548l-.944.113-.584.4-.585-.4-.943-.113-5.561-4.363-12.078,4.891-.6,11.588c.9,11.518,3.6,29.985,3.6,30.878s-1.915,7.147-3.1,10.951h38.4c-1.186-3.8-3.1-10.058-3.1-10.951s2.837-19.359,3.739-30.878l-.6-11.588-12.078-4.891Z" transform="translate(-281.831 -222.707)"/><path class="k" d="M362.95,291.457l.26,1.387,2.634,34.335-4.2,8.923-4.2-8.923,2.633-34.335.26-1.387,1.3.844Z" transform="translate(-329.957 -245.578)"/><path class="o" d="M373.527,291.457l.26,1.387,2.634,34.335-4.2,8.923s2.464-7.685,2.562-8.875-1.483-33.936-1.947-34.242a3.006,3.006,0,0,0-1.388-.275l.59-.527.183.119Z" transform="translate(-340.534 -245.578)"/><path class="a" d="M368.188,279.577l.564-.082a.468.468,0,0,1,.128.281c.016.177.028.7.028.7l-.432.134a7.506,7.506,0,0,1-.847-.01C367.638,280.566,368.188,279.577,368.188,279.577Z" transform="translate(-337.646 -236.54)"/><path class="a" d="M377.086,279.577l-.565-.082a.468.468,0,0,0-.128.281c-.016.177-.029.7-.029.7l.432.134a7.516,7.516,0,0,0,.848-.01C377.636,280.566,377.086,279.577,377.086,279.577Z" transform="translate(-344.246 -236.54)"/><path class="k" d="M364.421,286.473l-1.23-2.7c1.063-1,4.522-1,5.585,0l-1.231,2.7A7.179,7.179,0,0,0,364.421,286.473Z" transform="translate(-334.292 -239.207)"/><path class="o" d="M363.681,284.851l-.49-1.075a3.464,3.464,0,0,1,1.854-.691l-1.364,1.766Zm2.331-1.825a4.4,4.4,0,0,1,2.765.75l-1.231,2.7a5.788,5.788,0,0,0-1.177-.163,3.015,3.015,0,0,0,.548-.5,17.461,17.461,0,0,0-.1-2.46Z" transform="translate(-334.292 -239.208)"/><path class="c" d="M382.246,251.542a1.956,1.956,0,0,1,.676,0c.173.075,1.456,3.583,1.213,4.292s-3.414,6.526-3.414,6.526-.225.309-.589.007S377,258.351,377,258.351l5.242-6.342Z" transform="translate(-344.728 -215.396)"/><path class="v" d="M396.42,260.222l10.69,3.867a4.586,4.586,0,0,1,2.7,4.175c.124,1.513-.934,8.642-1.818,16.981-1.088,10.267-2.064,21.977-2.064,22.569,0,1.073,1.936,7.213,3.12,11.01H393.473l2.729-58.179A.54.54,0,0,1,396.42,260.222Z" transform="translate(-357.171 -221.979)"/><path class="c" d="M344.669,251.451a1.956,1.956,0,0,0-.676,0c-.173.075-.763,2.671-1.126,3.183a1.229,1.229,0,0,0-.087,1.13c.243.708,3.414,6.526,3.414,6.526s.225.309.589.007,3.128-4.017,3.128-4.017l-5.242-6.364Z" transform="translate(-318.804 -215.327)"/><path class="v" d="M302.283,261.555,291.594,265.1a4.588,4.588,0,0,0-2.7,4.175c-.127,1.552,1.09,9,2,17.57,1.072,10.074,1.879,21.4,1.879,21.98,0,1.073-1.935,7.213-3.12,11.01h15.579l-2.949-56.565S302.492,261.67,302.283,261.555Z" transform="translate(-278.151 -222.986)"/><path class="w" d="M451.161,280.485c-.973,2.76-3.7,11.876-1.1,21.268a.138.138,0,0,1-.09.162q-.2-.378-.4-.744c-2.353-9.351.391-18.292,1.315-20.878C450.977,280.353,451.069,280.417,451.161,280.485Z" transform="translate(-398.853 -237.142)"/><path class="v" d="M258.435,276.36a9.223,9.223,0,0,0-5.362,5.138c-1.95,4.221-6.7,17.544-7.888,21.282s3.123,19.733,8.619,28.255h7.221s-6.976-21.322-7.276-23.371,6.6-13.987,6.6-13.987C262.253,287.7,262.138,281.725,258.435,276.36Z" transform="translate(-244.987 -234.172)"/><path class="w" d="M245.9,402.684c.9,6.44,4.4,17.291,8.594,23.792h3.317c.059-.081,1.352-6.787,1.413-7.486-1.3.921-2.405,1.956-5.246,1.014C250.384,418.812,246.84,407.919,245.9,402.684Z" transform="translate(-245.677 -329.612)"/><path class="w" d="M279.746,364.866c-.07-.275-.116-.484-.135-.614-.176-1.2,1.895-5.636,3.828-9.237.3-.567.542,5.47.817,4.97-.1-1.178.13-8.663.119-8.717-.07-.332-4.817,9.315-5.095,10.068s.466,3.531.466,3.531Z" transform="translate(-270.849 -290.759)"/><path class="w" d="M291.058,280.485c.973,2.76,3.7,11.876,1.1,21.268a.138.138,0,0,0,.09.162q.2-.378.4-.744c2.353-9.351-.391-18.292-1.315-20.878C291.242,280.353,291.15,280.417,291.058,280.485Z" transform="translate(-279.794 -237.142)"/><g transform="translate(36.683 38.202)"><path class="w" d="M397.679,260.722l2.841,1.064c.773,1.722,3.447,7.715,3.328,7.921a29.921,29.921,0,0,1-4.193.934s3.1,1.281,3.206,1.357.277.211.208.663c-.061.393-6.378,28.482-8.037,35.861l2.429-47.377A.54.54,0,0,1,397.679,260.722Z" transform="translate(-395.032 -260.559)"/><path class="x" d="M398.139,297.748l4.089,1.477s.415.226.381.5-7.344,35.172-7.344,35.172l1.313-36.773Z" transform="translate(-395.208 -288.533)"/><path class="y" d="M397.189,322.452l.834-23.361.248-.059c-.437,9.516-1.082,23.448-1.082,23.448Z" transform="translate(-396.662 -289.502)"/><path class="e" d="M401.6,260.055l2.112.741a.369.369,0,0,1,.244.264c.059.218,2.979,7.053,3.048,7.294s-.121.5-.52.618-5.992,1.643-5.992,1.643l.819-10.251S401.353,260.063,401.6,260.055Z" transform="translate(-399.159 -260.055)"/></g><g transform="translate(17.872 38.324)"><path class="w" d="M324.065,261.389l-2.642.9c-.773,1.722-3.447,7.715-3.328,7.921a29.91,29.91,0,0,0,4.193.934s-3.1,1.281-3.206,1.357-.277.211-.208.663c.061.393,6.378,28.482,8.038,35.861l-2.765-46.456S324.274,261.5,324.065,261.389Z" transform="translate(-318.09 -261.185)"/><path class="x" d="M328.36,297.748l-4.09,1.477s-.415.226-.381.5,7.344,35.172,7.344,35.172l-1.313-36.773Z" transform="translate(-322.47 -288.655)"/><path class="y" d="M348.666,322.452l-.834-23.361-.249-.059c.438,9.516,1.082,23.448,1.082,23.448Z" transform="translate(-340.373 -289.624)"/><path class="e" d="M327.517,260.555l-2.2.619a.369.369,0,0,0-.244.264c-.059.218-2.978,7.053-3.048,7.294s.121.5.52.618,5.993,1.643,5.993,1.643S327.68,262.918,327.517,260.555Z" transform="translate(-321.053 -260.555)"/></g><g transform="translate(18.567 20.739)"><path class="f" d="M406.707,188.636c.079.011.156.024.233.041h0a3.176,3.176,0,1,1-2.655.62c-.087.937.054,2.1,1.249,2.222l-.022-1.831A1.091,1.091,0,0,1,406.707,188.636Z" transform="translate(-383.005 -188.633)"/><path class="f" d="M323.712,188.625c-.079.01-.156.023-.233.038h0a3.176,3.176,0,1,0,2.646.657c.074.938-.083,2.1-1.28,2.2l.047-1.83A1.091,1.091,0,0,0,323.712,188.625Z" transform="translate(-320.934 -188.625)"/></g><path class="g" d="M341.406,155.932c-5.927,0-10.872-7.314-10.872-13.087v-7.671A10.9,10.9,0,0,1,341.4,124.3h0a10.9,10.9,0,0,1,10.871,10.871v7.508C352.276,149.01,347.963,155.932,341.406,155.932Z" transform="translate(-309.619 -119.29)"/><path class="b" d="M331.04,130.886a10.911,10.911,0,0,1,10.747-9.24h0a10.913,10.913,0,0,1,10.659,8.745c-1.505,0-3.18,1.9-3.18,1.9-10.162,4.839-16.426.045-16.426.045A10.34,10.34,0,0,1,331.04,130.886Z" transform="translate(-310.002 -117.282)"/><g transform="translate(22.457 23.271)"><path class="b" d="M399.966,198.981a1.833,1.833,0,1,0,1.866,1.8A1.833,1.833,0,0,0,399.966,198.981Z" transform="translate(-383.175 -198.981)"/><path class="b" d="M338.64,200.175a1.833,1.833,0,1,0,1.866,1.8A1.833,1.833,0,0,0,338.64,200.175Z" transform="translate(-336.842 -199.883)"/></g><g transform="translate(24.411 17.905)"><path class="a" d="M348.6,177.356a.455.455,0,1,1-.376.83,2.984,2.984,0,0,0-2.688.173.457.457,0,0,1-.487-.774A3.94,3.94,0,0,1,348.6,177.356Z" transform="translate(-344.836 -177.033)"/><path class="a" d="M392.451,177.746a.455.455,0,1,1-.442.8,2.986,2.986,0,0,0-2.693-.046.457.457,0,1,1-.422-.811A3.942,3.942,0,0,1,392.451,177.746Z" transform="translate(-377.936 -177.22)"/></g><path class="h" d="M372.756,199.555a9.415,9.415,0,0,1,.527,1.713c-.043.233-1.246.45-1.563.143-.21-.2.051-1.1.279-1.708C372.31,198.879,372.482,198.815,372.756,199.555Z" transform="translate(-340.677 -175.755)"/><g transform="translate(29.502 27.725)"><path class="i" d="M370.227,217.622a2.284,2.284,0,0,1-4.569,0,.421.421,0,0,1,.42-.42h3.728A.422.422,0,0,1,370.227,217.622Z" transform="translate(-365.658 -217.201)"/><path class="e" d="M368.318,217.2h3.267v.386a.367.367,0,0,1-.366.366h-2.536a.367.367,0,0,1-.366-.366Z" transform="translate(-367.668 -217.202)"/><path class="j" d="M371.54,223.163a2.284,2.284,0,0,1-3.311,0,2.284,2.284,0,0,1,3.311,0Z" transform="translate(-367.6 -221.169)"/></g><g transform="translate(25.159 20.396)"><path class="a" d="M349.206,189.84a1.309,1.309,0,1,0-1.309-1.309A1.312,1.312,0,0,0,349.206,189.84Z" transform="translate(-347.897 -187.221)"/><path class="a" d="M392.7,189.84a1.309,1.309,0,1,0-1.309-1.309A1.312,1.312,0,0,0,392.7,189.84Z" transform="translate(-380.76 -187.221)"/></g><path class="a" d="M326.756,157.764l1.051-4.252s3.384-2.482,2.181-5.937-1.438-3.113-1.438-3.113-4.509,2.031-2.5,11.187Z" transform="translate(-305.842 -134.513)"/><path class="a" d="M408.68,157.764l-1.05-4.252s-3.383-2.482-2.181-5.937,1.438-3.113,1.438-3.113,4.508,2.031,2.5,11.187Z" transform="translate(-366.023 -134.513)"/><path class="d" d="M408.535,195.079a.165.165,0,0,1-.317-.094c0-.01.835-2.833,2.266-4.007l.086.35A9.932,9.932,0,0,0,408.535,195.079Z" transform="translate(-368.306 -169.664)"/><path class="d" d="M407.32,218.325a.165.165,0,0,1-.036-.328l.058-.006a3.437,3.437,0,0,0,2.334-2.132,7.51,7.51,0,0,0,.741-2.616,3.091,3.091,0,0,0,.338-.147,7.743,7.743,0,0,1-.783,2.91,3.742,3.742,0,0,1-2.59,2.314Z" transform="translate(-367.494 -186.374)"/><path class="d" d="M334.179,195.079a.165.165,0,0,0,.317-.094c0-.01-.836-2.833-2.267-4.007l-.087.35A9.929,9.929,0,0,1,334.179,195.079Z" transform="translate(-310.835 -169.664)"/><path class="d" d="M331.5,218.325a.165.165,0,1,0,.037-.328l-.058-.006a3.439,3.439,0,0,1-2.334-2.132,7.51,7.51,0,0,1-.74-2.616,3.086,3.086,0,0,1-.339-.147,7.758,7.758,0,0,0,.783,2.91,3.743,3.743,0,0,0,2.59,2.314Z" transform="translate(-307.757 -186.374)"/><g transform="translate(22.99 24.151)"><path class="e" d="M347.818,202.582l8.467.452s.338.1.328.408-.307,6.31-.307,6.31a2.008,2.008,0,0,1-.35,1.007c-.335.467-3,4.858-8.139,4.858s-7.8-4.392-8.139-4.858a2.008,2.008,0,0,1-.35-1.007s-.3-6-.307-6.31.328-.408.328-.408Z" transform="translate(-339.022 -202.582)"/><path class="m" d="M349.857,205.247l-8.137.434c.072,2.015.208,4.04.3,6.056a1.347,1.347,0,0,0,.228.656c.227.315.429.624.673.932a11.122,11.122,0,0,0,1.49,1.557,8.122,8.122,0,0,0,10.9,0,11.166,11.166,0,0,0,1.49-1.557c.244-.309.446-.617.673-.932a1.337,1.337,0,0,0,.228-.656c.091-2.015.227-4.04.3-6.056Z" transform="translate(-341.06 -204.595)"/><path class="d" d="M342.211,216.085c.042.787.086,1.575.126,2.363l7.506-2.9-7.632.533Zm.166,3.171.012.266a1.348,1.348,0,0,0,.228.656c.227.315.429.624.673.932a11.12,11.12,0,0,0,1.49,1.557,8.122,8.122,0,0,0,10.9,0,11.168,11.168,0,0,0,1.49-1.557c.244-.309.446-.617.673-.932a1.111,1.111,0,0,0,.094-.16s-1.319,1.427-5.9,1.427a28.788,28.788,0,0,1-9.655-2.19Zm15.717-.3c.028-.577.059-1.155.09-1.733l-5.6-.391Z" transform="translate(-341.431 -212.381)"/></g><path class="a" d="M332.549,117.953s5.815,4.794,15.248-.045c0,0,2.42-2.948,3.933-1.5,0,0,.6-8.135-5.251-8.217,0,0,1.055-1.141.754-2.064s-2.768-3.143-7.967.144c0,0-.391-2.4-2.333-2.476C333.158,103.648,324.413,112.3,332.549,117.953Z" transform="translate(-308.607 -103.796)"/><path class="w" d="M453.784,364.866c.07-.275.116-.484.135-.614.179-1.226-1.867-5.7-3.822-9.326-.266-.493-.872,8.119-1.114,7.679.1-1.178.162-11.283.173-11.338.069-.331,4.817,9.315,5.094,10.068s-.466,3.531-.466,3.531Z" transform="translate(-399.11 -290.759)"/></g></g></svg>