<svg xmlns="http://www.w3.org/2000/svg" xmlns:xlink="http://www.w3.org/1999/xlink" width="234.967" height="188" viewBox="0 0 234.967 188"><defs><style>.a,.l,.m,.q{fill:none;}.b{fill:#e7f3fe;}.c{clip-path:url(#a);}.d{fill:#ceae97;}.e{fill:#e5c1a3;}.f{fill:#f2cead;}.g{fill:#ffd9b3;}.h,.j,.r{fill:#f2f2f2;}.h{opacity:0.2;}.i,.o{opacity:0.1;}.k{fill:#40475b;}.l,.q{stroke:#000;}.l,.m,.q{stroke-miterlimit:10;}.l{stroke-width:0.946px;}.m{stroke:#ceae97;}.n{fill:#e6e6e6;}.p{fill:#604c4a;}.q{stroke-width:0.864px;}.r{opacity:0.3;}.s{fill:#545454;}</style><clipPath id="a"><rect class="a" width="187" height="188" transform="translate(-0.168 -0.028)"/></clipPath></defs><g transform="translate(-292.261 -2510.501)"><path class="b" d="M205.417,265.16s-26.374-22.739-11.852-54.229-5.721-42.394,8.361-48.88,21.87,7.642,60.854-4.094,117.305-31.231,135.195-16.717-33.275,54.384-9.1,54.083c48.917-.61,39.7,53.943,16.036,71.546C392.91,275.794,205.417,265.16,205.417,265.16Z" transform="translate(103.06 2394.748)"/><g transform="translate(317.429 2510.528)"><g class="c" transform="translate(0 0)"><g transform="translate(-21.814 127.376)"><g transform="translate(74.893 10.77)"><g transform="translate(18.976 8.982)"><path class="d" d="M331.623,633.349c-.448,2.726-3.022,3.961-5.748,3.514,0,0-10.039-.184-13.38-1.837-3.454-1.708-5.113-1.638-4.663-4.376h0a5,5,0,0,1,5.745-4.126l18.936,2.687c2.726.448-.443,1.41-.89,4.137Z" transform="translate(-307.759 -626.458)"/><path class="d" d="M392.877,638.833c.291,2.048-.436,2.487-3.26,3.242a67.445,67.445,0,0,1-10.861,1.812c-2.055.241-3.54-.7-3.83-2.745h0a3.745,3.745,0,0,1,3.182-4.234l10.534-1.258a3.745,3.745,0,0,1,4.234,3.183Z" transform="translate(-359.132 -633.464)"/><path class="d" d="M438.811,634.99a72.048,72.048,0,0,1-9.076,2.629,2.663,2.663,0,0,1-3.538-1.956h0a3.481,3.481,0,0,1,2.224-4.209s1.145-.379,3.674-.953c4.347-.987,8.188.48,8.555,1.877C440.954,633.534,440.849,634.239,438.811,634.99Z" transform="translate(-398.311 -629.304)"/></g><g transform="translate(21.263 9.62)"><path class="e" d="M341.366,636.07c-.447,2.725-3.022,3.961-5.747,3.514,0,0-10.04-.184-13.38-1.836-3.454-1.708-5.113-1.638-4.664-4.375h0a5,5,0,0,1,5.746-4.126l18.936,2.687c2.726.447-.443,1.41-.891,4.137Z" transform="translate(-317.502 -629.18)"/><path class="e" d="M402.62,641.554c.291,2.048-.435,2.487-3.26,3.241a67.471,67.471,0,0,1-10.861,1.813c-2.055.241-3.54-.7-3.83-2.745h0a3.746,3.746,0,0,1,3.183-4.234l10.534-1.258a3.745,3.745,0,0,1,4.234,3.183Z" transform="translate(-368.875 -636.185)"/><path class="e" d="M448.554,637.711a72.107,72.107,0,0,1-9.076,2.629,2.663,2.663,0,0,1-3.538-1.957h0a3.481,3.481,0,0,1,2.224-4.209s1.146-.379,3.675-.953c4.347-.987,8.188.48,8.555,1.877C450.7,636.254,450.593,636.96,448.554,637.711Z" transform="translate(-408.055 -632.025)"/></g><g transform="translate(23.4 11.588)"><path class="f" d="M350.5,644.455c-.447,2.726-3.022,3.961-5.747,3.514,0,0-10.647-1.233-13.988-2.885-3.454-1.708-4.5-.59-4.056-3.327h0a5,5,0,0,1,5.745-4.126l18.937,2.687c2.726.447-.444,1.41-.891,4.136Z" transform="translate(-326.609 -637.564)"/><path class="f" d="M411.836,649.939c.291,2.048-.435,2.487-3.259,3.241a67.416,67.416,0,0,1-10.862,1.812c-2.055.241-3.54-.7-3.83-2.744h0a3.745,3.745,0,0,1,3.182-4.234l10.535-1.258a3.744,3.744,0,0,1,4.234,3.183Z" transform="translate(-378.065 -644.57)"/><path class="f" d="M457.77,646.094a72.079,72.079,0,0,1-9.076,2.629,2.663,2.663,0,0,1-3.538-1.957h0a3.481,3.481,0,0,1,2.225-4.209s1.145-.379,3.674-.953c4.347-.987,8.188.48,8.555,1.877C459.913,644.638,459.809,645.344,457.77,646.094Z" transform="translate(-417.245 -640.409)"/></g><path class="g" d="M258.42,608.589c-.174,2.151-1.464.457-3.615.283l-24.215-.619c-2.151-.174-3.835-.063-3.661-2.214l1.007-12.442c.174-2.151,2.089-4.5,3.361-2.8l23.742,3.116c3.031-1.352,4.543.576,4.368,2.727Z" transform="translate(-226.916 -589.742)"/><g transform="translate(23.637)"><path class="g" d="M349.062,592.088c-.054,2.156-1.663,1.857-4,1.722-2.382-.138-9.572,2.116-9.572,2.116-2.155-.054-7.93.9-7.876-1.254l.788-.394a9.171,9.171,0,0,1,6.231-4.938,37.288,37.288,0,0,1,10-1.111c2.151.137,4.478,1.7,4.424,3.859Z" transform="translate(-327.617 -588.194)"/><path class="g" d="M391.4,593.978l-3.078-.256c-1.653-.287-2.1-.2-1.731-2.323h0c.369-2.124,1.933-3.269,3.586-2.982l7.366,1.152a2,2,0,0,1,.861,3.581C396.97,594.355,394.939,594.658,391.4,593.978Z" transform="translate(-372.656 -588.331)"/><path class="g" d="M346.794,607.863c.1-2.326,1.818-4.4,3.74-4.319-.328-.526-.353-.177-.786-.669l-1.914-1.757c-1.231-.046-2.463-.141-3.7-.239-1.37.053-2.76.6-4.128.614l-3.677,9.075,1.164,5.6,16.071-3.009C350.171,612.438,346.675,610.765,346.794,607.863Z" transform="translate(-334.286 -597.901)"/></g><g transform="translate(24.36 13.103)"><path class="g" d="M354.5,650.616c-.551,2.258-3.171,3.175-5.877,2.682,0,0-10.63-1.649-13.9-3.177-3.385-1.58-4.437-.547-3.883-2.814h0c.551-2.258,3.192-3.687,5.9-3.192l18.815,3.085c2.706.494-.5,1.159-1.049,3.416Z" transform="translate(-330.699 -644.016)"/><path class="g" d="M415.6,659.261c.212,1.724-.531,2.059-3.381,2.564a79.669,79.669,0,0,1-10.92,1.032c-2.061.111-3.509-.739-3.721-2.463h0c-.212-1.724,1.285-3.245,3.342-3.4l10.572-.584a3.686,3.686,0,0,1,4.108,2.847Z" transform="translate(-381.862 -653.494)"/><path class="g" d="M461.681,657.269a83.22,83.22,0,0,1-9.168,1.794c-1.741.267-3.074-.337-3.46-1.792h0a2.861,2.861,0,0,1,2.384-3.418s1.159-.266,3.708-.634c4.381-.632,8.161.764,8.474,1.948C463.878,656.147,463.747,656.732,461.681,657.269Z" transform="translate(-421.211 -650.939)"/></g><path class="h" d="M416.831,591.133c-.344.083-.561.215-.58.384-.042.378.918.795,2.145.931s2.255-.059,2.3-.437a.345.345,0,0,0-.138-.278,2.092,2.092,0,0,0-.223-.053Z" transform="translate(-371.809 -590.443)"/></g><path class="i" d="M249.837,593.233,231.3,590.8c-1.271-1.7-3.187.646-3.361,2.8l-1.007,12.442c-.174,2.151,1.51,2.04,3.661,2.214l17.075.436Z" transform="translate(-152.023 -578.972)"/><path class="j" d="M56.679,586.746l-76.727-.771,1.919-27.906,77.68,8.23Z" transform="translate(36.973 -554.369)"/><path class="i" d="M50.577,586.406-25.2,585.62l1.919-27.907,76.849,8.1Z" transform="translate(40.917 -554.097)"/><path class="k" d="M-1.833,576.567l-90.321-1.256,2.269-33,91.525,9.632Z" transform="translate(92.153 -542.31)"/><path class="i" d="M-1.833,654.4l-90.321-1.256.628-9.128L-1.008,646.2Z" transform="translate(92.153 -620.143)"/><g transform="translate(85.005 29.07)"><path class="j" d="M272.978,667.754a1.492,1.492,0,1,1-1.387-1.591A1.492,1.492,0,0,1,272.978,667.754Z" transform="translate(-269.997 -666.16)"/></g><path class="l" d="M385.739,641.832" transform="translate(-273.567 -618.472)"/><path class="m" d="M384.11,639.995s1.145,2.333,6.355,3.187,5.763.995,5.763.995a48.064,48.064,0,0,1,5.737-.276c.166.02,6.706-1.988,10.86.2" transform="translate(-272.32 -617.066)"/><path class="m" d="M417.677,643.426s-.427-1.395-4.266-1.952c-3.764-.546-6.911.883-7.893,1.1,0,0-4.444.5-5.355.606,0,0-8.653-1.282-9.866-1.4" transform="translate(-277.055 -618.103)"/></g><g transform="translate(68.034 25.275)"><path class="f" d="M362.786,228.339a2.771,2.771,0,0,1-2.447,3.06l-13.1,1.472a2.771,2.771,0,0,1-3.06-2.447h0a2.77,2.77,0,0,1,2.447-3.06l13.1-1.472a2.77,2.77,0,0,1,3.06,2.447Z" transform="translate(-331.597 -198.049)"/><path class="n" d="M390.073,119.723,379.016,118.2l-3.268-10.877,20.405,2.8Z" transform="translate(-355.77 -107.326)"/><g transform="translate(21.786 10.914)"><path class="e" d="M400.629,172.176c-.012,2.426-2.09,4.154-4.478,4.578-3.491.619-9.406.017-9.406.017-1.749.341-1.251-2.731-1.466-5.147-.682-7.654-1.83-14.522-1.83-14.522.012-2.426,1.14-3.289,3.565-3.277l9.312.219a4.392,4.392,0,0,1,4.371,4.413Z" transform="translate(-383.449 -153.824)"/><path class="f" d="M423.085,181.757c-.312,2.273,1.738,6.345,4.011,6.657l16.951.415a4.154,4.154,0,0,0,4.681-3.55l.875-6.366a4.154,4.154,0,0,0-3.55-4.681L428.291,170.2c-2.273-.312-4.019,2.916-4.331,5.189Z" transform="translate(-413.758 -166.342)"/></g><g class="o" transform="translate(30.933 17.698)"><path d="M424.916,191.309c-.659-2.872-.177-6.977-1.3-8.582-.375,4.45-3.83,16.729,3.024,15.99a27.239,27.239,0,0,0-.775-3.115C425.637,194.639,425.214,192.6,424.916,191.309Z" transform="translate(-422.419 -182.727)"/></g><path class="i" d="M471.434,178.038l-12.713-2.885c1.1,1.022,1.086,2.726,1.062,4.123-.1,5.95-.712,11.581-3.563,13.035l13.209.324a4.154,4.154,0,0,0,4.681-3.55l.875-6.366A4.154,4.154,0,0,0,471.434,178.038Z" transform="translate(-417.353 -159.232)"/><path class="n" d="M346.462,287.144c-2.844,20.7-16.923,24.038-32.277,21.929s-25.933-8.865-23.089-29.567c1.966-14.308,25.087-43.586,25.087-43.586l6.632-1.475S348.693,270.9,346.462,287.144Z" transform="translate(-290.634 -204.607)"/><g transform="translate(42.234 13.444)"><path class="j" d="M470.566,190l78.224,14.118,3.476-25.3L471.8,171.19Z" transform="translate(-470.566 -169.644)"/><path class="i" d="M478.837,190.952l77.379,13.927,3.476-25.3L480,171.984Z" transform="translate(-476.896 -170.251)"/><path class="p" d="M481.761,187.262l90.467,16.213,4.111-29.923-93.1-8.95Z" transform="translate(-479.133 -164.602)"/><path class="i" d="M481.761,238.078l90.467,16.213,1.6-11.643L482.222,231Z" transform="translate(-479.133 -215.418)"/><g transform="translate(5.371 18.706)"><path class="j" d="M493.46,245.474A1.362,1.362,0,1,0,495,244.31,1.363,1.363,0,0,0,493.46,245.474Z" transform="translate(-493.447 -244.297)"/></g></g><path class="q" d="M457.326,209.211" transform="translate(-418.2 -185.296)"/><path class="n" d="M401.092,180.261a36.312,36.312,0,0,1-2.158-23.862l-10.6-1.009s4.128,16.78.881,22.285C387.265,180.981,402.232,182.821,401.092,180.261Z" transform="translate(-365.401 -144.108)"/><path class="f" d="M377.761,201.349a3.081,3.081,0,0,1-2.721,3.4l-5.81.647a3.08,3.08,0,0,1-3.4-2.721h0a3.08,3.08,0,0,1,2.72-3.4l5.809-.647a3.081,3.081,0,0,1,3.4,2.721Z" transform="translate(-348.164 -177.182)"/><g transform="translate(9.096 57.038)"><path class="i" d="M376.117,375.826c.891-6.482-2.7-16.182-7.326-25.5,2.976,7.632,5.089,15.205,4.364,20.483-3.144,22.885-18.709,26.34-35.683,24.008a56.243,56.243,0,0,1-8.088-1.669c3.907,2.45,8.864,3.837,14.456,4.605C359.194,399.865,373.273,396.527,376.117,375.826Z" transform="translate(-329.384 -350.327)"/></g><path class="f" d="M372.435,173.677a3.08,3.08,0,0,1-2.721,3.4l-5.809.647a3.081,3.081,0,0,1-3.4-2.721h0a3.081,3.081,0,0,1,2.721-3.4l5.809-.646a3.08,3.08,0,0,1,3.4,2.721Z" transform="translate(-344.088 -156.006)"/><path class="f" d="M371.584,147.837a3.081,3.081,0,0,1-3.1,3.061l-5.845-.036a3.081,3.081,0,0,1-3.062-3.1h0a3.081,3.081,0,0,1,3.1-3.062l5.845.036a3.081,3.081,0,0,1,3.062,3.1Z" transform="translate(-343.395 -135.929)"/><path class="g" d="M418.4,150.075a3.081,3.081,0,0,1-4.141,1.353l-5.773-3.1a3.08,3.08,0,0,1-1.354-4.141h0a3.08,3.08,0,0,1,4.141-1.353l5.773,3.1a3.081,3.081,0,0,1,1.354,4.141Z" transform="translate(-379.533 -134.241)"/><path class="r" d="M393.718,177.23a2.2,2.2,0,1,1-1.877-2.475A2.2,2.2,0,0,1,393.718,177.23Z" transform="translate(-366.175 -158.912)"/><path class="r" d="M392.861,151.619a2.2,2.2,0,1,1-1.877-2.475A2.2,2.2,0,0,1,392.861,151.619Z" transform="translate(-365.519 -139.312)"/><path class="g" d="M437.275,169.578a3.081,3.081,0,0,1-3.413-2.707l-.6-6.527a3.081,3.081,0,0,1,2.707-3.414h0a3.08,3.08,0,0,1,3.413,2.707l.6,6.527a3.081,3.081,0,0,1-2.707,3.413Z" transform="translate(-399.771 -145.272)"/><path class="g" d="M390.668,151.587a3.081,3.081,0,0,1-.639-4.31l3.482-4.7a3.08,3.08,0,0,1,4.309-.64h0a3.081,3.081,0,0,1,.64,4.31l-3.481,4.7a3.081,3.081,0,0,1-4.31.64Z" transform="translate(-366.234 -133.353)"/><path class="r" d="M398.465,205a2.2,2.2,0,1,1-1.877-2.475A2.2,2.2,0,0,1,398.465,205Z" transform="translate(-369.808 -180.165)"/><path class="r" d="M395.257,165.869a1.668,1.668,0,1,1-1.426-1.88A1.668,1.668,0,0,1,395.257,165.869Z" transform="translate(-368.158 -150.677)"/></g></g></g><path class="s" d="M142.153,94.578a1.324,1.324,0,0,0-1.324-1.324H122.117a1.324,1.324,0,0,0,0,2.648h5.354a6.715,6.715,0,0,1,6.572,5.381H122.117a1.324,1.324,0,0,0,0,2.648h11.926a6.714,6.714,0,0,1-6.572,5.38h-5.354a1.324,1.324,0,0,0-.91,2.286l13.383,12.646a1.324,1.324,0,0,0,1.819-1.925l-10.964-10.359h2.025a9.367,9.367,0,0,0,9.258-8.029h4.1a1.324,1.324,0,0,0,0-2.648h-4.1a9.337,9.337,0,0,0-2.746-5.38h6.846a1.324,1.324,0,0,0,1.324-1.324Zm0,0" transform="translate(281.734 2502.484)"/></g></svg>