<svg xmlns="http://www.w3.org/2000/svg" width="23.344" height="36" viewBox="0 0 23.344 36"><defs><style>.a{fill:#b2b2b2;}</style></defs><path class="a" d="M11.689,30.245,5.377,23.572,7.42,21.64l4.263,4.507,4.238-4.5,2.048,1.927Zm11.655-2.682V8.438A8.447,8.447,0,0,0,14.906,0H8.438A8.447,8.447,0,0,0,0,8.438V27.563A8.447,8.447,0,0,0,8.438,36h6.469A8.447,8.447,0,0,0,23.344,27.563ZM14.906,2.813a5.631,5.631,0,0,1,5.625,5.625V27.563a5.631,5.631,0,0,1-5.625,5.625H8.438a5.631,5.631,0,0,1-5.625-5.625V8.438A5.631,5.631,0,0,1,8.438,2.813ZM11.672,5.7A1.406,1.406,0,1,0,13.078,7.1,1.406,1.406,0,0,0,11.672,5.7Zm0,5.625a1.406,1.406,0,1,0,1.406,1.406A1.406,1.406,0,0,0,11.672,11.321Zm0,5.625a1.406,1.406,0,1,0,1.406,1.406A1.406,1.406,0,0,0,11.672,16.946Zm0,0" transform="translate(0 0)"/></svg>