<svg xmlns="http://www.w3.org/2000/svg" width="23.833" height="26" viewBox="0 0 23.833 26"><defs><style>.a{fill:#e2e2e2;}</style></defs><g transform="translate(0 0)"><path class="a" d="M321.709,19.521A3.521,3.521,0,1,1,318.189,16a3.521,3.521,0,0,1,3.521,3.521Zm0,0" transform="translate(-298.689 -15.187)"/><path class="a" d="M303,8.667a4.333,4.333,0,1,1,4.333-4.333A4.338,4.338,0,0,1,303,8.667Zm0-7.042a2.708,2.708,0,1,0,2.708,2.708A2.711,2.711,0,0,0,303,1.625Zm0,0" transform="translate(-283.501)"/><path class="a" d="M321.709,360.853a3.521,3.521,0,1,1-3.521-3.521A3.521,3.521,0,0,1,321.709,360.853Zm0,0" transform="translate(-298.689 -339.186)"/><path class="a" d="M303,350a4.333,4.333,0,1,1,4.333-4.333A4.338,4.338,0,0,1,303,350Zm0-7.042a2.708,2.708,0,1,0,2.708,2.708A2.711,2.711,0,0,0,303,342.957Zm0,0" transform="translate(-283.501 -323.999)"/><path class="a" d="M23.042,190.189a3.521,3.521,0,1,1-3.521-3.521A3.521,3.521,0,0,1,23.042,190.189Zm0,0" transform="translate(-15.188 -177.189)"/><path class="a" d="M4.333,179.334A4.333,4.333,0,1,1,8.667,175a4.338,4.338,0,0,1-4.333,4.333Zm0-7.041A2.708,2.708,0,1,0,7.042,175a2.711,2.711,0,0,0-2.708-2.708Zm0,0" transform="translate(0 -162.001)"/><path class="a" d="M115.433,98.113a1.083,1.083,0,0,1-.537-2.025l10.052-5.731a1.083,1.083,0,1,1,1.073,1.883l-10.052,5.731a1.076,1.076,0,0,1-.535.142Zm0,0" transform="translate(-108.542 -85.633)"/><path class="a" d="M125.506,274.117a1.076,1.076,0,0,1-.535-.142l-10.052-5.731a1.083,1.083,0,0,1,1.073-1.883l10.052,5.731a1.083,1.083,0,0,1-.537,2.025Zm0,0" transform="translate(-108.563 -252.7)"/></g></svg>