<svg xmlns="http://www.w3.org/2000/svg" width="63.729" height="66.108" viewBox="0 0 63.729 66.108"><defs><style>.a{fill:#1d3861;}</style></defs><g transform="translate(0)"><g transform="translate(0)"><path class="a" d="M65.88,7.171q-.2-.008-.406,0h-5.1V2.788C60.377,1.035,58.7,0,56.952,0h-4.7a2.743,2.743,0,0,0-3.027,2.788V7.168H30.11V2.788A2.743,2.743,0,0,0,27.084,0h-4.7C20.632,0,18.96,1.035,18.96,2.788V7.168h-5.1A5.894,5.894,0,0,0,7.806,12.9q-.006.2,0,.406V59.338c0,3.5,2.549,6.77,6.053,6.77H65.475c3.5,0,6.053-3.266,6.053-6.77V13.3A5.894,5.894,0,0,0,65.88,7.171ZM52.253,3.186h4.938v8.761H52.253Zm-29.868,0h4.54v8.761h-4.54V3.186ZM68.342,59.338c0,1.752-1.115,3.584-2.867,3.584H13.862c-1.752,0-2.867-1.832-2.867-3.584V25.488H68.342V59.338Zm0-46.037v9H10.995v-9a2.708,2.708,0,0,1,2.867-2.947h5.1v1.752a3.278,3.278,0,0,0,3.425,3.027h4.7a2.947,2.947,0,0,0,3.027-2.865q0-.081,0-.161V10.354H49.226v1.752a2.947,2.947,0,0,0,2.865,3.027q.081,0,.161,0h4.7a3.278,3.278,0,0,0,3.425-3.027V10.354h5.1A2.708,2.708,0,0,1,68.342,13.3Z" transform="translate(-7.804)"/><path class="a" d="M123.909,211.826l-1.434,7.965a1.593,1.593,0,0,0,2.31,1.673l7.168-3.743,7.168,3.743.717.159a1.513,1.513,0,0,0,.956-.319,1.593,1.593,0,0,0,.637-1.513L140,211.826l5.814-5.575a1.752,1.752,0,0,0,.4-1.673,1.673,1.673,0,0,0-1.274-1.035l-7.965-1.195-3.584-7.248a1.593,1.593,0,0,0-2.867,0l-3.584,7.248-7.965,1.195a1.673,1.673,0,0,0-1.274,1.035,1.752,1.752,0,0,0,.4,1.673Zm4.381-6.451a1.433,1.433,0,0,0,1.115-.876l2.549-5.1,2.549,5.1a1.434,1.434,0,0,0,1.115.876l5.655.8-4.062,3.9a1.673,1.673,0,0,0-.478,1.434l.956,5.655-5.018-2.708-.717-.159-.717.159-5.018,2.708.956-5.655a1.672,1.672,0,0,0-.478-1.434l-4.062-3.9Z" transform="translate(-100.885 -164.595)"/></g></g></svg>