<svg xmlns="http://www.w3.org/2000/svg" width="58.973" height="58.972" viewBox="0 0 58.973 58.972"><defs><style>.a{fill:#1d3861;}</style></defs><path class="a" d="M54.241,38.709a33.482,33.482,0,0,1-10.515-1.675,4.629,4.629,0,0,0-4.674.985L32.42,43.025A36.645,36.645,0,0,1,15.945,26.553L20.8,20.094a4.767,4.767,0,0,0,1.173-4.83A33.534,33.534,0,0,1,20.294,4.732,4.737,4.737,0,0,0,15.562,0H4.732A4.737,4.737,0,0,0,0,4.732,54.3,54.3,0,0,0,54.241,58.972a4.738,4.738,0,0,0,4.732-4.732v-10.8A4.738,4.738,0,0,0,54.241,38.709ZM55.7,54.241A1.457,1.457,0,0,1,54.241,55.7,51.021,51.021,0,0,1,3.276,4.732,1.457,1.457,0,0,1,4.732,3.276h10.83a1.457,1.457,0,0,1,1.456,1.456,36.738,36.738,0,0,0,1.84,11.536,1.63,1.63,0,0,1-.518,1.68l-5.631,7.458a1.639,1.639,0,0,0-.154,1.729c4.6,9.034,10.181,14.618,19.278,19.28a1.632,1.632,0,0,0,1.734-.15l7.629-5.78a1.446,1.446,0,0,1,1.485-.346,36.786,36.786,0,0,0,11.56,1.846A1.457,1.457,0,0,1,55.7,43.441Z"/></svg>