<svg xmlns="http://www.w3.org/2000/svg" width="68.327" height="77.039" viewBox="0 0 68.327 77.039"><defs><style>.a{fill:#1d3861;}</style></defs><g transform="translate(0)"><path class="a" d="M97.23,73.094,93.822,53.142a5.679,5.679,0,0,0-3.98-4.506l-9.192-2.774a10.253,10.253,0,0,0-7.114-8.9c.291-.323.561-.645.808-.96A17.842,17.842,0,0,0,78,28.065h.709a3.349,3.349,0,0,0,3.345-3.345V23.006a3.368,3.368,0,0,0-1.734-2.925V15.957a1.128,1.128,0,1,0-2.256,0v4.629a6.953,6.953,0,0,0-1.5.434,1.133,1.133,0,0,0-.159.071c-.121.055-.242.113-.363.179V12.179a4.56,4.56,0,0,0-4.555-4.555H68.371a4.68,4.68,0,0,0-2.955,1.054l-.306.25a3.151,3.151,0,0,1-3.99,0l-.305-.25a4.681,4.681,0,0,0-2.955-1.054H54.746a4.56,4.56,0,0,0-4.555,4.555V21.27c-.121-.066-.242-.124-.363-.179a1.131,1.131,0,0,0-.159-.071,6.956,6.956,0,0,0-1.5-.434V8.881a6.633,6.633,0,0,1,6.625-6.625H71.436a6.633,6.633,0,0,1,6.625,6.625v1.773a1.128,1.128,0,1,0,2.256,0V8.881A8.891,8.891,0,0,0,71.436,0H54.794a8.891,8.891,0,0,0-8.881,8.881v11.2a3.368,3.368,0,0,0-1.734,2.925v1.715a3.349,3.349,0,0,0,3.345,3.345h.709A17.84,17.84,0,0,0,51.888,36c.247.314.517.636.808.959a10.29,10.29,0,0,0-7.114,8.9l-9.193,2.774a5.679,5.679,0,0,0-3.98,4.506l-1.384,8.1a1.128,1.128,0,0,0,2.224.38l1.384-8.1A3.435,3.435,0,0,1,37.041,50.8l8.5-2.565v2.232a5.644,5.644,0,0,0-4.29,3.552,5.722,5.722,0,0,0-.335,1.532L40.1,66.093a2.867,2.867,0,0,0,2.859,3.09h1.407a1.128,1.128,0,1,0,0-2.256H42.955a.611.611,0,0,1-.609-.659l.822-10.547a3.464,3.464,0,0,1,.2-.928,3.412,3.412,0,0,1,3.193-2.174h.212a3.38,3.38,0,0,1,3.15,2.02,3.46,3.46,0,0,1,.264,1.083l.822,10.547a.611.611,0,0,1-.609.658H49a1.128,1.128,0,1,0,0,2.256H50.4a2.868,2.868,0,0,0,2.859-3.09l-.822-10.547A5.714,5.714,0,0,0,52,53.758a5.585,5.585,0,0,0-4.2-3.3v-2.9l3.878-1.17c.353.743,1.052,2.349,2.437,5.811,1.4,3.493,3.131,7.97,4.795,12.323a1.146,1.146,0,0,0,.041.107c1.11,2.906,2.188,5.752,3.109,8.207a1.128,1.128,0,0,0,2.113,0c.921-2.455,2-5.3,3.109-8.207a1.117,1.117,0,0,0,.041-.107c1.663-4.35,3.4-8.824,4.792-12.316,1.387-3.466,2.087-5.074,2.44-5.817l3.878,1.17v6.663a5.836,5.836,0,1,0,2.256,0V48.23l8.5,2.565A3.435,3.435,0,0,1,91.6,53.522l3.408,19.952a1.12,1.12,0,0,1-1.1,1.309H32.329a1.12,1.12,0,0,1-1.1-1.309l1.125-6.585a1.128,1.128,0,0,0-2.224-.38L29,73.095a3.376,3.376,0,0,0,3.328,3.945H93.9a3.376,3.376,0,0,0,3.328-3.945ZM78.075,22.884a4.842,4.842,0,0,1,1.089-.147,1.153,1.153,0,0,0,.551-.131,1.069,1.069,0,0,1,.08.4v1.715a1.09,1.09,0,0,1-1.089,1.089h-.632ZM48.156,25.809h-.632a1.09,1.09,0,0,1-1.089-1.089V23.006a1.07,1.07,0,0,1,.08-.4,1.151,1.151,0,0,0,.551.131,5.029,5.029,0,0,1,1.089.148v2.924Zm2.256,1.265V24.11a1.583,1.583,0,0,0,2.036-1.517V12.179a2.3,2.3,0,0,1,2.3-2.3H57.86a2.418,2.418,0,0,1,1.527.545l.305.25a5.408,5.408,0,0,0,6.846,0l.305-.25A2.418,2.418,0,0,1,68.37,9.88h3.114a2.3,2.3,0,0,1,2.3,2.3V22.593a1.583,1.583,0,0,0,2.036,1.518v2.963c0,1.647-1.139,4.846-3.249,7.53a14.874,14.874,0,0,1-2.7,2.679,1.129,1.129,0,0,0-.1.076,11,11,0,0,1-13.3,0,1.144,1.144,0,0,0-.1-.076,14.885,14.885,0,0,1-2.7-2.679C51.551,31.92,50.412,28.722,50.412,27.074ZM70.506,45.3l-7.391,5.524L55.724,45.3a5.35,5.35,0,0,0,1.144-3.194V40.288a13.249,13.249,0,0,0,12.495,0v1.819A5.35,5.35,0,0,0,70.506,45.3ZM53.842,44.042a3.085,3.085,0,0,0-1.9-.1l-.081.022-3.9,1.176a8.015,8.015,0,0,1,6.651-6.321v3.284A2.983,2.983,0,0,1,53.842,44.042ZM56.9,53.1l-.006-.016-.17-.428-.03-.076-.163-.41-.011-.028q-.251-.63-.483-1.21l-.034-.084-.132-.328-.048-.118-.125-.31L55.665,50l-.219-.54-.058-.142-.083-.2-.088-.214-.033-.08-.025-.061q-.2-.475-.372-.9l0-.007-.183-.434-.09-.212,6.356,4.751-2.656,1.128L58.2,53.1l-1.109.471ZM59.6,60.006q-.334-.867-.672-1.741-.528-1.363-1.009-2.6l.421-.179,1.72,2Zm3.542,9.169a1.124,1.124,0,0,0-.115-.189c-.51-1.347-1.157-3.052-1.873-4.928L62.2,58.291h1.826l1.053,5.767C64.331,66.023,63.657,67.8,63.137,69.175Zm1.314-13.14H61.779l-1.265-1.47,2.6-1.1,2.6,1.1Zm2.856,2.231q-.337.871-.672,1.741l-.46-2.516,1.72-2,.421.179Q67.835,56.9,67.308,58.265Zm4.321-10.841-.173.411-.023.055-.18.432-.012.03-.163.4-.031.074-.038.093-.075.183-.094.229-.031.075L70.567,50l-.039.1L70.4,50.4l-.049.122-.13.324-.037.093q-.23.571-.477,1.192l-.016.041-.162.407-.031.077-.17.43,0,.008-.188.475-1.11-.472-.012,0-2.658-1.129,6.356-4.751Zm2.744-3.456h0a3.083,3.083,0,0,0-1.98.075,2.983,2.983,0,0,1-.77-1.935V38.821a7.952,7.952,0,0,1,6.655,6.324Zm8.755,15.974a3.581,3.581,0,1,1-3.581-3.581A3.585,3.585,0,0,1,83.128,59.942Z" transform="translate(-28.952)"/></g></svg>