<svg xmlns="http://www.w3.org/2000/svg" width="63.07" height="63.07" viewBox="0 0 63.07 63.07"><defs><style>.a{fill:#1d3861;}</style></defs><g transform="translate(0 0)"><path class="a" d="M37.269,11.979V7.069C37.269-2.357,0-2.357,0,7.069V35.787c0,3.705,5.8,6.015,12.778,6.837C10.226,43.769,8.6,45.315,8.6,47.275V55.89c0,4.713,9.374,7.179,18.634,7.179S45.869,60.6,45.869,55.89V51.559c8.769-.241,17.2-2.686,17.2-7.156V18.557C63.07,12.606,48.221,10.416,37.269,11.979ZM18.634,2.867c10.2,0,15.767,2.84,15.767,4.3s-5.566,4.3-15.767,4.3S2.867,8.627,2.867,7.167,8.432,2.867,18.634,2.867ZM2.867,11.156c3.478,2.093,9.639,3.178,15.767,3.178S30.924,13.249,34.4,11.156V12.58c-4.981,1.1-8.6,3.122-8.6,6.054v.848a45.466,45.466,0,0,1-7.167.585c-10.2,0-15.767-2.84-15.767-4.3V11.156Zm25.8,28.668c.273.164.557.324.861.475-.287-.012-.573-.024-.861-.031ZM2.867,19.756c3.478,2.093,9.639,3.178,15.767,3.178a48.593,48.593,0,0,0,7.167-.563v7.144a45.466,45.466,0,0,1-7.167.585c-10.2,0-15.767-2.84-15.767-4.3V19.756Zm0,16.079V29.79c3.478,2.093,9.639,3.178,15.767,3.178a48.593,48.593,0,0,0,7.167-.563V39.55a45.466,45.466,0,0,1-7.167.585C8.432,40.135,2.867,37.295,2.867,35.835ZM43,55.9c0,1.46-5.566,4.3-15.767,4.3s-15.768-2.84-15.768-4.3V51.291c3.478,2.093,9.639,3.178,15.767,3.178,5.866,0,11.77-.991,15.316-2.912.149.006.3.006.452.011V55.9ZM27.235,51.6c-10.2,0-15.767-2.84-15.767-4.3S17.033,43,27.235,43,43,45.842,43,47.3,37.437,51.6,27.235,51.6ZM60.2,44.435c0,1.387-5.079,3.992-14.334,4.251V47.3c0-1.791-1.355-3.238-3.541-4.348.7.028,1.4.047,2.108.047,6.128,0,12.289-1.085,15.767-3.178v4.612Zm0-8.6c0,1.46-5.566,4.3-15.767,4.3s-15.767-2.84-15.767-4.3V31.223c3.478,2.093,9.639,3.178,15.767,3.178S56.725,33.317,60.2,31.223Zm0-8.6c0,1.46-5.566,4.3-15.767,4.3s-15.767-2.84-15.767-4.3V22.623c3.478,2.093,9.639,3.178,15.767,3.178S56.725,24.716,60.2,22.623Zm-15.767-4.3c-10.2,0-15.767-2.84-15.767-4.3s5.566-4.3,15.767-4.3,15.767,2.84,15.767,4.3S54.637,22.934,44.436,22.934Z" transform="translate(0 0)"/></g></svg>