<svg xmlns="http://www.w3.org/2000/svg" width="295.855" height="161.792" viewBox="0 0 295.855 161.792"><defs><style>.a{fill:#d8f9fb;}.b{fill:#96aaed;}.c,.u{fill:#d5eaf9;}.c{mix-blend-mode:screen;isolation:isolate;}.d{fill:#1d6294;}.e{fill:#8c8dc6;}.f{fill:#b4bbf3;}.g{fill:#2775a1;}.h{fill:#4256e1;}.i{fill:#164a6f;}.j{fill:#32a4ea;}.k{fill:#f1f9f4;}.l{fill:#a5c0d4;}.m{fill:#8fbed1;}.n{fill:#25265d;}.o{fill:#fc7575;}.p{fill:#fd5e5a;}.q{fill:#0b1742;}.r{fill:#2846a6;}.s{fill:#f7931e;}.t{fill:#fbb03b;}.v{fill:#757597;}.w{fill:#c3c9f5;}.x{fill:#608fb2;}.y{fill:#cce5f8;}.z{fill:#104e3d;}.aa{fill:#f3f4fd;}.ab{fill:#353d44;}.ac{fill:#6a7781;}.ad{fill:#fbfeff;}.ae{fill:#d4145a;}.af{fill:#46ff3b;}.ag{fill:#e2fff4;}.ah{fill:#b471b9;}.ai{fill:#87558b;}.aj{fill:#598891;}.ak{fill:#bdcfd3;}.al{fill:#43666d;opacity:0.34;}.am{fill:#245058;}.an{fill:#1b3c42;}.ao{fill:#e0e3f1;}.ap{fill:#858aa4;opacity:0.44;}.aq{fill:#77a1a8;}.ar{fill:#e0c57d;}.as{fill:#f3e8cb;}.at{fill:#ad5b45;}.au{fill:#debdb5;}.av{fill:#333a50;}.aw{fill:#e2def6;}.ax{fill:#12207c;}.ay{fill:#c7d0f9;}.az{fill:#cbded6;}.ba{fill:#5d8272;}.bb{fill:#403003;}.bc{fill:#2d483c;}.bd{fill:#4c3d65;}.be{fill:#3c6051;}.bf{fill:#322844;}.bg{fill:#7cad98;}.bh{fill:#f66d75;}.bi{fill:#0089a9;}.bj{fill:#339cb4;}.bk{fill:#666e9e;}.bl{fill:#371c45;}.bm{fill:#303030;}.bn{fill:#333a6a;}.bo{fill:#170053;}</style></defs><g transform="translate(-186.747 -210.535)"><path class="a" d="M468.669,365.465l-169.743-.716c.375-33.257,7.464-83.344,34.877-93.267,32.24-11.672,67.62-9.618,92.806-38.794C454.965,199.838,534.3,199.8,534.3,258.011c0,53.409,10.7,55.645-12.341,90.773C512.373,363.4,484.06,366.037,468.669,365.465Z" transform="translate(-84.109)"/><g transform="translate(186.747 242.507)"><path class="b" d="M635.791,536.047a165.72,165.72,0,0,0,4.241-71.4A27.82,27.82,0,0,0,617.338,441.6c-24.429-4.238-38.849-5.09-70.485-1.649-8.517,30.357-31.19,65.736-22.736,96.093Z" transform="translate(-438.307 -412.922)"/><path class="c" d="M640.032,464.648A27.82,27.82,0,0,0,617.338,441.6c-24.429-4.238-38.848-5.09-70.485-1.649-8.044,28.671-28.716,61.822-23.864,90.991,60.866,10.143,98.385-31.6,117.531-63.031Q640.293,466.281,640.032,464.648Z" transform="translate(-438.307 -412.922)"/><rect class="d" width="46.512" height="30.634" transform="translate(111.866 0)"/><rect class="b" width="27.254" height="30.634" transform="translate(131.124 0)"/><path class="e" d="M582.273,534.243a299.534,299.534,0,0,0,3.1-64.3,36.808,36.808,0,0,0-37.849-34.408l-.641.02a32.974,32.974,0,0,0-31.7,30.535,299.354,299.354,0,0,0,2.848,68.156Z" transform="translate(-432.412 -411.194)"/><path class="f" d="M570.234,541.795a293.961,293.961,0,0,0,3.009-62.727,35.771,35.771,0,0,0-36.7-33.565l-.622.019A32.059,32.059,0,0,0,505.19,475.31a293.8,293.8,0,0,0,2.761,66.485Z" transform="translate(-424.936 -418.67)"/><ellipse class="g" cx="23.398" cy="39.251" rx="23.398" ry="39.251" transform="translate(88.929 41.827)"/><g transform="translate(84.332 37.212)"><path class="h" d="M550.361,572.841c-22.511-1.759-32.76-45.531-17.508-71.118,10.276-17.239,27.671-17.045,37.83,0,15.249,25.581,5.006,69.359-17.508,71.118h7.055c19.2-9.031,26.229-48.247,12.034-72.06-11.036-18.514-30.162-18.167-40.991,0-14.173,23.778-7.193,63.025,12.027,72.06Z" transform="translate(-523.774 -487.026)"/></g><ellipse class="d" cx="19.994" cy="34.018" rx="19.994" ry="34.018" transform="translate(91.873 47.061)"/><path class="i" d="M569.533,543.271c11.042,0,19.993,15.23,19.993,34.018a55.347,55.347,0,0,1-1.45,12.742c6.069-5.84,10.165-16.921,10.165-29.63,0-18.787-8.951-34.018-19.994-34.018-8.394,0-15.58,8.8-18.544,21.275A14.189,14.189,0,0,1,569.533,543.271Z" transform="translate(-466.382 -479.322)"/><path class="j" d="M554.443,672.232l39.726-1.917q.027-.552.043-1.107l-39.849,1.923Q554.4,671.684,554.443,672.232Z" transform="translate(-462.377 -586.409)"/><g transform="translate(0 81.237)"><path class="i" d="M350.2,750.86H250.11l-4.784-26.433H356.089Z" transform="translate(-230.668 -709.048)"/><path class="k" d="M421.689,750.86H343.939l-3.759-26.433h87.028Z" transform="translate(-301.788 -709.048)"/><path class="l" d="M354.287,750.859h77.749l5.52-26.433H420.933c-19.085,8.388-46.979,19.792-66.951,24.287Z" transform="translate(-312.136 -709.047)"/><rect class="m" width="128.088" height="4.048" transform="translate(0 14.03)"/><g transform="translate(20.12)"><path class="n" d="M280.4,679.145h53.589l.6-8.087s-40.675,4.224-49.606,2.776-5.793-7.212-7.694-7.212h0a1.544,1.544,0,0,0-1.511,1.861l2.235,10.661Z" transform="translate(-273.595 -665.708)"/><g transform="translate(91.115 3.563)"><path class="o" d="M640.908,688.787a81.733,81.733,0,0,1-8.926-.566c-.928-.18-.056.3-.4,1.116a4.159,4.159,0,0,0-.217,2.4c.477,2.6,3.291,2.684,3.291,2.684l8.584-.876Z" transform="translate(-631.287 -685.437)"/><path class="p" d="M661.156,694.92l-2.336-4.756s-1.738-.022-3.639-.144c-.059,1.241.62,2.8,2.668,4.455q.457.369.9.689Z" transform="translate(-649.2 -686.814)"/><path class="o" d="M673.834,687.967c1.574-.572,3.768-5.763,2.957-7.084a8.23,8.23,0,0,0-3.577-2.331c-2.242-.7-3.863-1.32-3.863-1.32l-.477.748s-.619-.118-1.4-.207a6.782,6.782,0,0,0,.131,2.877,4.784,4.784,0,0,1-.837-2.945,5.213,5.213,0,0,0-2.092.143c-1.622.7-2.933,3.674.715,7.039S672.26,688.539,673.834,687.967Z" transform="translate(-655.103 -677.225)"/><path class="q" d="M679.85,687.859c-.24,1.277-3.006,1.146-3.006,1.146s-.574.746-2.575.219-5.1-3.633-6.058-3.633a4.045,4.045,0,0,1,3.2-.15c1.954.615,3.1.615,3.1-.043s2.625.527,2.625.527a4.15,4.15,0,0,0,.762-3.652c-.571-2.157.309-2.881.765-2.463a2.849,2.849,0,0,1,1.62-2.6C680.958,676.925,680.087,686.583,679.85,687.859Z" transform="translate(-658.972 -677.206)"/><path class="o" d="M684.9,707.93s1.645.215,1.645.693-.179.924-1.109.808-1.968-.61-1.538-1.237A.721.721,0,0,1,684.9,707.93Z" transform="translate(-670.66 -700.164)"/><path class="q" d="M715.672,719.578a.738.738,0,0,0,.429-.357c.252-.546-.291-1.275-.666-1.756l.105-.081a3.723,3.723,0,0,1,.955,1.147,1.148,1.148,0,0,1-.62,1.6Z" transform="translate(-694.379 -707.331)"/><path class="r" d="M695.754,688.088c-.4,0-.733-.165-.733-.369s.328-.368.733-.368.733.165.733.368S696.159,688.088,695.754,688.088Z" transform="translate(-679.073 -684.813)"/><g transform="translate(17.865 2.517)"><path class="r" d="M702.681,688.939a2.57,2.57,0,0,0,.279-1.631l.282-.043a2.771,2.771,0,0,1-.317,1.811Z" transform="translate(-702.681 -687.265)"/></g><path class="p" d="M686.85,708.946s.558.279.478.528-1.2.307-1.672-.137S685.958,708.52,686.85,708.946Z" transform="translate(-671.945 -700.864)"/></g><path class="s" d="M499.7,664.789v12.069h40.795s-.482-7.966-10.138-12.069S499.7,664.789,499.7,664.789Z" transform="translate(-441.511 -662.965)"/><path class="g" d="M325.342,680.966V670.345s-38.286,5.7-47.615,5.824c-2.527.034-4.3.255-5.28-.6-2.54-2.214-2.432-7.121-3.8-7.121h0a1.491,1.491,0,0,0-1.448,1.846l2.652,10.812Z" transform="translate(-267.154 -667.073)"/><path class="o" d="M464.682,702.848c-3.621.634-6.608,0-8.871,0s-5.431,2.173-5.431,2.173h32.448c-.074-1.686-.211-3.372-.276-5.058C474.534,701.147,466.471,702.535,464.682,702.848Z" transform="translate(-404.532 -690.705)"/><path class="t" d="M596.657,692.948c-1.328-.588-9.494.412-17.706,1.625.065,1.686.2,3.372.276,5.058h20.689S599.282,694.109,596.657,692.948Z" transform="translate(-500.932 -685.315)"/></g><rect class="u" width="105.274" height="4.048" transform="translate(22.815 14.03)"/></g><g transform="translate(145.298 25.227)"><path class="v" d="M951.3,471.172h0Z" transform="translate(-905.291 -463.154)"/><path class="v" d="M951.291,471.162Z" transform="translate(-905.279 -463.144)"/><path class="v" d="M826.447,483.518c-1.051-16.9-1.951-25.61-9.795-33.584l-1.56-1.458,0,0-1.663-1.332c-6.045-4.389-10.734-5.7-32.932-8.019v1.048c6.24.676,12.732,1.686,20.419,3.016a27.73,27.73,0,0,1,11.135,4.67,30,30,0,0,1,3.6,3.061,27.449,27.449,0,0,1,6.1,9.623c2.355,5.958,7.5,38.215-2.55,75.955l-51.78.524c59.325.6-39.647-.288,52.583.53C820.887,533.446,827.551,514.782,826.447,483.518Z" transform="translate(-767.42 -439.128)"/><path class="v" d="M957.935,476.484Z" transform="translate(-910.263 -467.135)"/></g><rect class="i" width="28.744" height="5.704" transform="translate(140.773 78.739)"/><rect class="i" width="26.93" height="8.464" transform="translate(142.587 84.443)"/><rect class="w" width="24.688" height="5.704" transform="translate(140.773 78.739)"/><rect class="x" width="23.131" height="8.464" transform="translate(142.331 84.443)"/><rect class="y" width="0.952" height="2.944" transform="translate(142.331 80.211)"/><path class="z" d="M1.278,0h0A1.278,1.278,0,0,1,2.556,1.278V4.825a0,0,0,0,1,0,0H0a0,0,0,0,1,0,0V1.278A1.278,1.278,0,0,1,1.278,0Z" transform="translate(153.496 85.751)"/><rect class="z" width="0.751" height="1.288" transform="translate(160.317 85.409)"/><path class="aa" d="M750,653.649h24.023v-.665H749.337v5.7H750Z" transform="translate(-608.564 -574.244)"/><g transform="translate(117.312 95.541)"><path class="ab" d="M671.344,745.286c-10.862-.207-16.975-10.336-15.568-21.43l.73.093c-1.372,10.826,4.645,20.6,15.124,20.6,11.434,0,13.211-13.916,13.549-24.424l.735.024C685.534,732,683.221,745.537,671.344,745.286Z" transform="translate(-655.576 -720.129)"/></g><g transform="translate(118.736 76.132)"><path class="ab" d="M666.039,677.23c-4.464-3.682-4.762-11.155-4.773-11.471l.735-.025c0,.074.3,7.462,4.508,10.93A8.559,8.559,0,0,0,673.6,678.3c11.182-1.784,5.161-30.451,9.5-33.435,4.03-2.772,28.622-3.744,29.317,1.119.611,4.276.029,21.651,0,22.389l-.736-.025c.006-.18.605-18.047,0-22.26-.543-3.8-24.171-3.368-28.171-.616-1.365.939-1.5,5.777-1.646,10.9-.27,9.557-.606,21.452-8.154,22.656A9.29,9.29,0,0,1,666.039,677.23Z" transform="translate(-661.266 -642.563)"/></g><g transform="translate(144.696 85.409)"><path class="ac" d="M3.069,0h0A3.069,3.069,0,0,1,6.138,3.069V7.9a.815.815,0,0,1-.815.815H.815A.815.815,0,0,1,0,7.9V3.069A3.069,3.069,0,0,1,3.069,0Z"/><path class="y" d="M2.586,0h0A2.586,2.586,0,0,1,5.172,2.586V8.026a.687.687,0,0,1-.687.687H.687A.687.687,0,0,1,0,8.026V2.586A2.586,2.586,0,0,1,2.586,0Z"/><rect class="ac" width="2.318" height="2.289" transform="translate(1.696 8.713)"/></g><g transform="translate(166.448 95.206)"><path class="ac" d="M3.069,0h0A3.069,3.069,0,0,1,6.138,3.069V7.9a.815.815,0,0,1-.815.815H.815A.815.815,0,0,1,0,7.9V3.069A3.069,3.069,0,0,1,3.069,0Z" transform="translate(6.138 11.003) rotate(180)"/><path class="ad" d="M2.586,0h0A2.586,2.586,0,0,1,5.172,2.586v5.44a.687.687,0,0,1-.687.687H.687A.687.687,0,0,1,0,8.027V2.586A2.586,2.586,0,0,1,2.586,0Z" transform="translate(6.138 11.003) rotate(180)"/><rect class="ac" width="2.318" height="2.289" transform="translate(4.442 2.289) rotate(180)"/></g><path class="ae" d="M767.413,660.79a.98.98,0,1,1-.98-.98A.981.981,0,0,1,767.413,660.79Z" transform="translate(-620.646 -579.363)"/><path class="af" d="M784.551,662.055a.558.558,0,1,1-.558-.558A.558.558,0,0,1,784.551,662.055Z" transform="translate(-634.13 -580.628)"/><path class="ae" d="M790.935,662.055a.558.558,0,1,1-.558-.558A.558.558,0,0,1,790.935,662.055Z" transform="translate(-638.916 -580.628)"/><path class="z" d="M810.544,662.709a.558.558,0,1,1-.558-.558A.558.558,0,0,1,810.544,662.709Z" transform="translate(-653.619 -581.118)"/><path class="z" d="M816.259,662.709a.558.558,0,1,1-.558-.558A.558.558,0,0,1,816.259,662.709Z" transform="translate(-657.904 -581.118)"/><path class="z" d="M822.432,662.709a.558.558,0,1,1-.558-.558A.558.558,0,0,1,822.432,662.709Z" transform="translate(-662.532 -581.118)"/><path class="z" d="M828.606,662.709a.558.558,0,1,1-.558-.558A.558.558,0,0,1,828.606,662.709Z" transform="translate(-667.161 -581.118)"/><path class="ag" d="M768.28,687.169l-.078,1.962c-.162-1.194-.711-5.486-.127-6.527.624-1.024,2.184-.759,1.963-.119a.366.366,0,0,1-.4.242C768.351,682.545,768.414,683.742,768.28,687.169Z" transform="translate(-622.416 -595.94)"/><path class="g" d="M706.861,674.572a52.627,52.627,0,0,1-2.155,12.3c1.41,0,2.588.693,3.917.933a61.06,61.06,0,0,0,2.135-13.686A15.53,15.53,0,0,0,706.861,674.572Z" transform="translate(-575.101 -590.089)"/></g><g transform="translate(367.767 294.256)"><path class="ah" d="M1005.543,789.061H989.187l-1.915-15.724h19.867Z" transform="translate(-967.982 -716.231)"/><path class="ai" d="M993.186,773.337h-5.915l1.915,15.724h16.356l.355-3.5A17.9,17.9,0,0,1,993.186,773.337Z" transform="translate(-967.981 -716.232)"/><path class="aj" d="M1041.922,665.947l3.513-3.157a29.936,29.936,0,0,0,1.1-15.443,44.039,44.039,0,0,0-8.038,2.532l-1.892,3.963-.9-2.6a17.437,17.437,0,0,0-5.159,4.079l1.072,5.4-2.545-2.894a7.752,7.752,0,0,0-.438,1.67,148.457,148.457,0,0,0-1.111,20.026h8.943a56.915,56.915,0,0,0,7.347-12.384Z" transform="translate(-998.152 -621.768)"/><g transform="translate(30.003 25.901)"><path class="ak" d="M1038.633,676.763a8.4,8.4,0,0,1-4.275,1.04,64.881,64.881,0,0,0,7.057-12.387q.2.009.4.009a8.852,8.852,0,0,0,5.7-2.158q.076-.25.149-.5a8.67,8.67,0,0,1-6.123,2.373c.544-1.217,1.059-2.434,1.557-3.666a12.382,12.382,0,0,0,5.467-2.571q.037-.211.071-.422a12.821,12.821,0,0,1-5.417,2.69c2.52-6.276,4.1-11.346,4.119-11.4l.5-1.138-.709.791c-.027.1-1.331,4.208-3.309,9.4-1.052-2.231-.481-7.683-.3-9.155l-.3.1c-.209,1.729-.76,7.282.466,9.405A106.936,106.936,0,0,1,1039,669.761c-.752-1.137.5-8.491-1.6-11.392a8.205,8.205,0,0,1-1.379-5.2c-.1.064-.193.128-.289.193a8.4,8.4,0,0,0,1.439,5.173c2.107,2.923.661,10.51,1.685,11.5q-.544,1.043-1.117,2.058c-2.1-6.613-2.072-6.848-1.786-9.469.165-1.508.32-2.932-.685-3.938-.873-.873-1.161-2.6-1.242-4.006q-.138.121-.273.245a6.52,6.52,0,0,0,1.315,3.96c1.6,1.6-.063,4.461.658,7.3.652,2.571,1.656,5.723,1.823,6.242-.785,1.37-1.609,2.689-2.468,3.915-.355-.3-1.844-1.76-1.42-4.831.344-2.494-1.986-5.669-3.536-7.469-.014.133-.027.267-.04.4,1.511,1.8,3.609,4.762,3.3,7.029-.452,3.279,1.157,4.794,1.536,5.1a29.673,29.673,0,0,1-3.259,3.907h.4q.3-.3.592-.623a5.214,5.214,0,0,0,4.511-1.1,4.017,4.017,0,0,1,3.05-.733l.177-.257a4.317,4.317,0,0,0-3.4.764,5,5,0,0,1-4.129,1.089c.439-.491.87-1.01,1.293-1.552a8.747,8.747,0,0,0,4.6-1.05,5.951,5.951,0,0,1,2.522-.6l.181-.283A6.279,6.279,0,0,0,1038.633,676.763Z" transform="translate(-1030.084 -648.629)"/></g><path class="al" d="M1030.148,690.427l-1.078-1.226a7.757,7.757,0,0,0-.438,1.67,148.457,148.457,0,0,0-1.111,20.026S1031.015,702.773,1030.148,690.427Z" transform="translate(-998.152 -653.148)"/><path class="am" d="M910.18,744.53c.376,0,5.177-2.447,13.366,0a48.626,48.626,0,0,1,14.163,7.036s-9.362,1.812-17.928.4S910.18,744.53,910.18,744.53Z" transform="translate(-910.18 -693.817)"/><path class="an" d="M954.744,750.9c-5.376-3.7-13.611-7.565-20.54-7.453,1.455,4.115,3.414,7.11,7.312,8.949a63.584,63.584,0,0,0,13.46-.647C954.909,751.483,954.832,751.2,954.744,750.9Z" transform="translate(-928.193 -693.817)"/><path class="am" d="M948.5,566.994l-3.513,3.705,1.386-7.739a38.554,38.554,0,0,0-4.234-5.91c-4.236-4.8-11.861-11.931-11.861-11.931a46.087,46.087,0,0,0-3.727,10.439l3.939,4.033-4.567-.456c-3.379,26.018,20.31,43.733,20.31,43.733h4.871s2.188-21.179.423-27.674A50.778,50.778,0,0,0,948.5,566.994Z" transform="translate(-921.738 -545.119)"/><g transform="translate(3.975 0.15)"><path class="ao" d="M952.3,578.014c-.048-.422-.1-.82-.166-1.19-1.027,2.83-3.745,9.644-6.7,11.43q-.151-.426-.309-.851c2.942-1.09,5.317-8.393,6.485-12.708q-.15-.509-.312-1.019c-1.224,4.724-3.695,12.244-6.371,13.2a39.181,39.181,0,0,0-2.972-6.226,40.093,40.093,0,0,1-2.837-6.118c2.54-1.942,4.483-10.19,5.349-14.565q-.22-.3-.443-.594c-.791,4.082-2.757,12.574-5.117,14.6-.678-1.8-1.345-3.758-1.986-5.772,2.158-3.237,2.872-10.092,3.1-13.386q-.265-.277-.534-.557c-.179,2.871-.806,9.8-2.786,13.234-3.167-10.1-5.818-21.215-5.855-21.386l-.212-.392,0,.425a251.975,251.975,0,0,0,6.71,25.131c-4.2,1.4-8.795-1.559-11.279-3.567q.031.394.069.785a23.943,23.943,0,0,0,2.16,1.5,13.176,13.176,0,0,0,6.755,2.209,7.793,7.793,0,0,0,2.48-.392,63.4,63.4,0,0,0,3.135,7.669c-3.78,1.318-9.276-.148-12.334-1.19q.122.348.25.691a28.634,28.634,0,0,0,8.516,1.594,11.346,11.346,0,0,0,3.833-.591q.274.511.546.961c4.917,8.106,6.928,21.164,7.107,22.374h.57a88.347,88.347,0,0,0-3.523-14.52C948.5,587.158,951.052,581.3,952.3,578.014Z" transform="translate(-926.066 -545.719)"/></g><path class="ap" d="M958.315,713.11h4.536a25.1,25.1,0,0,0-10.068-16.216l-1.084,1.7-.164-2.546q-.784-.5-1.64-.958l-1.41,3.3-.611-4.281a32.127,32.127,0,0,0-6.152-1.958A60.6,60.6,0,0,0,958.315,713.11Z" transform="translate(-933.829 -655.361)"/><path class="aq" d="M1048.962,695.717l-.948,4.209-1.145-3.019a27.258,27.258,0,0,0-3.46,2.527l-.336,2.092-1.112-.73a18.469,18.469,0,0,0-5.384,12h7.53s16.191-4.495,16.756-21.062A41.713,41.713,0,0,0,1048.962,695.717Z" transform="translate(-1004.949 -655.05)"/><path class="ak" d="M1048.164,713.257h1.258c8.854-4.808,18.752-19.323,19.185-19.962l.614-.947-1.081.63C1068.031,693.14,1057.117,709.147,1048.164,713.257Z" transform="translate(-1013.637 -655.509)"/><path class="ar" d="M946.438,706.706l-.929,1.46-.14-2.181q-.672-.426-1.406-.821l-1.208,2.826-.524-3.668a29.744,29.744,0,0,0-8.913-2.251s.753,10.26,5.272,14.779,11.578,3.742,11.578,3.742h4.9A21.49,21.49,0,0,0,946.438,706.706Z" transform="translate(-927.529 -662.797)"/><path class="as" d="M951.209,721.225h.74a69.229,69.229,0,0,1-17.4-17.973l-.567-.335.207.559A69.889,69.889,0,0,0,951.209,721.225Z" transform="translate(-928.023 -663.432)"/><path class="at" d="M938.7,765.162s-9.035-4.043-15.03-3.543-12.169,7.176-12.169,7.176,1.966.706,4.8,1.408l2.67-2.123-.746,2.565c4.423.937,10.09,1.565,13.962-.079C939.405,767.5,938.7,765.162,938.7,765.162Z" transform="translate(-911.17 -707.414)"/><path class="au" d="M940.078,765.185s-.116-.052-.471-.2c-1.794-.111-7.572-.415-12.609-.228a5,5,0,0,1-1.336-3.148c-.139,0-.277.011-.413.021a6.131,6.131,0,0,0,1.179,3.151c-.233.011-1.871.144-2.43.229a3.6,3.6,0,0,1-1.079-2.949q-.207.062-.412.132a4.2,4.2,0,0,0,.964,2.9c-.538.094-1.065.206-1.576.33a3.207,3.207,0,0,1-2.218-1.957c-.121.068-.242.136-.361.206a3.929,3.929,0,0,0,1.819,1.947c-.447.122-.879.253-1.3.389a4.057,4.057,0,0,1-2.282-1.2q-.17.119-.336.239a3.83,3.83,0,0,0,1.955,1.189,41.727,41.727,0,0,0-5.071,2.147l-.764.455,1.086-.1a29.819,29.819,0,0,1,10.429-3.43c-1.485,1.193-2.115,3.7-2.478,5.145-.061.241-.126.5-.183.7l.408.062c.049-.171.1-.388.171-.659.4-1.608,1.151-4.582,3.019-5.329.3-.02,1.81-.079,2.175-.088-1.416,1.226-2.49,4.6-2.974,6.358l.413.033c.646-2.321,1.949-6,3.383-6.408C934.317,765.029,940.078,765.185,940.078,765.185Z" transform="translate(-912.549 -707.436)"/></g><g transform="translate(422.054 266.831)"><rect class="i" width="25.376" height="16.606" transform="translate(15.394 35.265)"/><rect class="av" width="50.807" height="41.999" transform="translate(3.003)"/><path class="aw" d="M14.231,0H30.274A14.231,14.231,0,0,1,44.505,14.231v5.7A14.231,14.231,0,0,1,30.274,34.164H14.23A14.23,14.23,0,0,1,0,19.934v-5.7A14.231,14.231,0,0,1,14.231,0Z" transform="translate(6.154 3.918)"/><rect class="i" width="33.586" height="40.023" transform="translate(12.735 57.189)"/><rect class="b" width="57.096" height="6.657" transform="translate(0 51.871)"/><g transform="translate(7.359 8.909)"><rect class="ax" width="13.085" height="13.085"/><rect class="ax" width="13.085" height="13.085" transform="translate(14.181)"/><rect class="ax" width="13.084" height="13.085" transform="translate(28.362)"/><g transform="translate(2.269 1.525)"><path class="ay" d="M1168.465,485.92l-.276-.592a2.907,2.907,0,0,1-1.209-.214,3.608,3.608,0,0,1-.38-.779l-.227-.273.053-.176-.134-.151-.1-.154.073-.451-.655-.482c.463-.563.944-.639.908-1.3a4.372,4.372,0,0,1,.885-2.967c1.135-1.611,4.947-1.535,5.689.164,1.346,3.08-1.608,3.388-.559,7.243a.14.14,0,0,1-.271.07c-1.045-4.007,1.842-4.3.573-7.2-.656-1.5-4.2-1.542-5.2-.115a4.206,4.206,0,0,0-.828,2.96c0,.435-.415.806-.761,1.119l.525.387-.083.511.032.047.227.253-.055.181.168.214a4.1,4.1,0,0,0,.325.7,8.643,8.643,0,0,0,1.2.143c.225.58.494.827.277.928C1168.632,486,1168.5,485.99,1168.465,485.92Z" transform="translate(-1165.606 -477.218)"/></g><path class="ay" d="M1173,479.331a2.119,2.119,0,0,1-.731.682,2.055,2.055,0,0,0-.954,1.606c.093.5.433.559,1,.559s.29-.314.872.268,1.309-.308,1.711.093-.093,1.722-.093,1.722,1.838-.952,2.257-2.129a2.387,2.387,0,0,0-.985-2.988A4.271,4.271,0,0,0,1173,479.331Z" transform="translate(-1167.608 -476.982)"/><rect class="ay" width="2.025" height="0.209" transform="translate(1.957 10.315)"/><rect class="ay" width="2.025" height="0.209" transform="translate(16.729 10.653)"/><rect class="ay" width="2.025" height="0.209" transform="translate(30.303 0.809)"/><rect class="ay" width="1.839" height="0.233" transform="translate(8.684 10.525)"/><rect class="ay" width="1.839" height="0.233" transform="translate(24.96 10.746)"/><rect class="ay" width="1.839" height="0.233" transform="translate(39.024 0.797)"/><g transform="translate(17.903 1.453)"><path class="ay" d="M1233.3,485.991c.08-.176.8-1.723,1.315-1.981.27-.135.071-.415-.105-.658a9.157,9.157,0,0,0,.645-3.882c-.57-3.706-7.813-2.439-6.653.992.408,1.224,1.045,2.871.686,3.229-.165.166.332.789.677,1.247.445.593.568,1.355.221,1.263a.153.153,0,0,1-.109-.186s.066-.332-.356-.894-1.031-1.263-.649-1.645c.151-.15-.156-1.138-.76-2.916-.5-1.471.552-3.338,3.061-3.594,2.308-.238,3.913.7,4.183,2.458a9.534,9.534,0,0,1-.6,3.874c.256.368.3.785-.1.985a5.667,5.667,0,0,0-1.175,1.835A.152.152,0,0,1,1233.3,485.991Z" transform="translate(-1228.09 -476.93)"/></g><path class="ay" d="M1234.616,478.556a2.289,2.289,0,0,0-1.074-.131c-.362.121-.291.352-.291.352a1.957,1.957,0,0,0-1.044.369c-.323.323-.141.445-.141.445a5.561,5.561,0,0,0-.572.944,1.847,1.847,0,0,0,.171.733s-.271.351.01,1.115a1.434,1.434,0,0,0,2.109.331,1.256,1.256,0,0,0-.01-1.154s.386.1.472.04a.566.566,0,0,0,.02-.883c-.362-.362.532-.211.532-.211s-.466.7-.171,1,.683-.069.683,0a.949.949,0,0,0-.271.862c.12.572,1.25.758,1.847.161a3.661,3.661,0,0,0,.291-3.113,1,1,0,0,0-.984-.462S1234.938,478.034,1234.616,478.556Z" transform="translate(-1212.733 -476.573)"/><rect class="ay" width="0.42" height="10.356" transform="translate(11.475 1.364)"/><rect class="ay" width="0.42" height="10.356" transform="translate(15.184 0.914)"/><rect class="ay" width="0.42" height="10.356" transform="translate(40.653 1.525)"/><path class="ay" d="M1282.21,483.294s-1.046-.469-1.167-.241-.014.2-.549.362-1.73,1.529-1.609,1.984-.107.134-.322.992.214,1.234,0,1.81,1.341,2.508,1.676,2.574a4.729,4.729,0,0,1,1.046.469,3.732,3.732,0,0,0,2.87-.268s1.274-.9,1.488-1.73.549-.644.549-1.824-.751-.952-.751-1.8a2.767,2.767,0,0,0-.966-2.225c-.563-.282-.617.268-1.086-.2S1282.21,483.294,1282.21,483.294Z" transform="translate(-1247.983 -480.021)"/><g transform="translate(29.855 2.308)"><path class="ay" d="M1277.952,489.542c-1.791-.987-2.48-3.957-1.9-5.953a4.268,4.268,0,0,1,2.014-2.691,6.733,6.733,0,0,1,3.974-.374,5.281,5.281,0,0,1,1.366,8.495A5.219,5.219,0,0,1,1277.952,489.542Zm.214-8.422a4.119,4.119,0,0,0-1.88,2.536c-.544,1.869.117,4.754,1.783,5.672a4.943,4.943,0,0,0,5.165-.482,5.043,5.043,0,0,0-1.28-8.1C1280.633,480.249,1278.3,481.073,1278.166,481.121Z" transform="translate(-1275.852 -480.347)"/></g><g transform="translate(34.35 0.128)"><path class="ay" d="M1293.921,484.1a.105.105,0,0,1-.105-.1V471.74a.105.105,0,1,1,.21,0v12.251A.1.1,0,0,1,1293.921,484.1Z" transform="translate(-1293.816 -471.635)"/></g><g transform="translate(28.514 6.175)"><path class="ay" d="M1282.271,496.01H1270.6a.1.1,0,0,1,0-.21h11.672a.1.1,0,1,1,0,.21Z" transform="translate(-1270.494 -495.8)"/></g></g><rect class="ax" width="38.439" height="2.239" transform="translate(9.316 4.851)"/><rect class="ax" width="54.394" height="4.291" transform="translate(6.154 95.16)"/><rect class="ax" width="28.44" height="0.721" transform="translate(17.881 26.437)"/><rect class="ax" width="28.44" height="0.721" transform="translate(17.8 28.125)"/><rect class="ax" width="28.44" height="0.721" transform="translate(17.8 29.712)"/><path class="av" d="M1201.676,635.165h-47.348a2.554,2.554,0,0,1,2.554-2.553h42.241a2.553,2.553,0,0,1,2.553,2.553Z" transform="translate(-1147.523 -583.295)"/></g><g transform="translate(400.112 268.853)"><path class="p" d="M1093.471,455.856a17.815,17.815,0,0,0-1.254,3.959c-.381,2.116.2,5.868,1.254,7.439s1.164,2.158,2.12,2.158a6.464,6.464,0,0,0,5.119-5.57c.341-3.89-6.962-7.985-6.962-7.985Z" transform="translate(-1078.924 -452.789)"/><path class="p" d="M1045.514,528.938a41.687,41.687,0,0,1-.118-9.182,3.07,3.07,0,0,1,2.644-.582c1.514.4,2.318.654,2.169.223s-2.113-1.117-2.113-1.117a7.932,7.932,0,0,1,2.863.474c.967.5,1.192-.463-1.5-.941s-1.814-.737-1.361-.893,3.141.545,3.852.037c.659-.47-3.643-.943-4.91-.793,5.513-1.565,3.791-2.243-1.427-.452-1.5.514-2.842,2.751-2.874,2.8a62.146,62.146,0,0,0-1.693,12.221A36.328,36.328,0,0,0,1045.514,528.938Z" transform="translate(-1040.642 -496.869)"/><path class="az" d="M1039.618,540.943c.281,0,5.171-.076,5.171-.076s2.172,15.44.54,16.636-5.17.263-5.711-6.853A66.836,66.836,0,0,1,1039.618,540.943Z" transform="translate(-1039.443 -516.528)"/><path class="o" d="M1187.315,523.046c.549-1.238,2.837-1.561,3.572-1.8s1.411-1.7,1.9-1.861.341,1.485-.4,1.912.208,1.072.784,1.077,2.667-.152,3.147-1.235,1.369-1.729,1.491-1.351-1.106,2.025-1.106,2.025,1.984-1.812,2.127-1.365-1.667,1.749-1.667,1.749,1.22-.562,1.574-.352-2.9,2.219-3.543,2.425a19.915,19.915,0,0,1-4.439-.059c-.526-.054-.79,2.535-1.687,5.918-.46-.824-2.693-1.54-3.34-2.218A31.575,31.575,0,0,0,1187.315,523.046Z" transform="translate(-1149.124 -500.416)"/><path class="ba" d="M1173.645,543.957l-4.108,17.269s3.855.562,5.472,0,3.637-12.017,3.637-17.018Z" transform="translate(-1136.984 -518.845)"/><path class="bb" d="M1107.375,808.26a4.141,4.141,0,0,0,.119.429,4.014,4.014,0,0,0,2.611,2.793c2.184.532,3.91-.045,4.305.35a3.739,3.739,0,0,1,.54,1.615l-13.141.614.775-5.368Z" transform="translate(-1086.203 -717.013)"/><path class="bc" d="M1081.35,678.391l5.046,34.036,6.744-1.074-1.1-33.2Z" transform="translate(-1070.864 -619.462)"/><path class="bd" d="M1070.408,797.1s-1.668,1.423-1.668,2.912l-5.771,4.254h-2.043s4.253-5.323,5.111-6.655a5.659,5.659,0,0,0,.891-2.642Z" transform="translate(-1055.55 -707.051)"/><path class="be" d="M1101.265,665.141c-1.873-5.638-7.019-3.03-7.019-3.03-3.213.607-8,11.7-8.664,15.159-.482,2.5-5.225,13.852-7.828,19.979a4,4,0,0,1,5.239,1.291C1088.506,689.419,1101.881,666.993,1101.265,665.141Z" transform="translate(-1068.168 -606.982)"/><path class="bf" d="M1065.753,806.888a3.742,3.742,0,0,1,2.082,1.5c.5,1.047-2.082,3.071-2.082,3.993s.683,1.706,0,2.048-6.279.4-5.972-.723,2.505-2.383,3.4-3.782S1064.879,806.516,1065.753,806.888Z" transform="translate(-1054.683 -715.95)"/><path class="be" d="M1089.219,669.726s8.456-2.44,5.712,3.33c-.531,1.117-24.9,2.794-24.9.752a8.009,8.009,0,0,1,1.546-4.082Z" transform="translate(-1062.378 -612.759)"/><path class="bg" d="M1062.773,520.782a24.383,24.383,0,0,1,6.348-1.464c1.907-.163,3.812.455,5.959.455,6.061,0,11.912,1.606,12.552,4.55.644,2.962-7.344,31.708-5.525,33.526s-16.059,2.964-18.3.721S1056.226,523.328,1062.773,520.782Z" transform="translate(-1054.573 -500.351)"/><path class="bh" d="M1099.4,495.478l-1.815,6.117s4.746,1.873,7.928,0l-1-6.784Z" transform="translate(-1083.033 -481.996)"/><path class="bg" d="M1156.034,537.432s6.4,17.635,5.129,18.9-5.472,0-5.472,0l-4.621-9.016Z" transform="translate(-1123.138 -513.952)"/><path class="bi" d="M1064.767,600.507h-19.218l-5.28-10.517c-.949-1.889,3.586-3.6,9.533-3.6h10.712c5.947,0,6.4,2.537,6.1,4.573l-.8,4.162Z" transform="translate(-1039.968 -550.658)"/><path class="bj" d="M1042.26,590.891c-.949-1.889,3.585-3.6,9.533-3.6h10.712a13.125,13.125,0,0,1,3.064.308c-.894-.721-2.445-1.209-5.055-1.209H1049.8c-5.947,0-10.482,1.713-9.533,3.6l5.28,10.517h1.539Z" transform="translate(-1039.968 -550.658)"/><g transform="translate(1.06 64.165)"><g transform="translate(0 2.666)"><g transform="translate(15.321)"><rect class="bk" width="3.107" height="30.129"/></g><g transform="translate(0 23.199)"><path class="bl" d="M1107.188,810.551h-4.036v-7.158h4.036Z" transform="translate(-1088.271 -803.394)"/><path class="bl" d="M1043.679,824.855l14.882-8.705v3.966l-10.671,4.739v.87h-4.211Z" transform="translate(-1043.679 -812.958)"/><path class="bl" d="M1134.163,824.855l-14.882-8.705v3.966l10.671,4.739v.87h4.211Z" transform="translate(-1100.364 -812.958)"/><path class="bl" d="M1102.805,816.149v9.575h-1v.677h4.372v-.677h-.924l.29-9.575Z" transform="translate(-1087.263 -812.958)"/></g></g><rect class="bm" width="4.011" height="3.058" transform="translate(14.869)"/></g><path class="bi" d="M1076.6,688.388H1041.93a3.884,3.884,0,0,1,3.883-3.884h26.907a3.883,3.883,0,0,1,3.884,3.884Z" transform="translate(-1041.308 -624.224)"/><path class="bn" d="M1094.039,513.817s5.578,2.218,8.163.17l.777,1.793s-.887,1.551-4.47,1.824a6.061,6.061,0,0,1-5.339-2.266Z" transform="translate(-1079.727 -496.246)"/><path class="bh" d="M1095.79,477.552s-1.28-.972-1.28-.256-.143,3.252,1.055,2.547S1095.79,477.552,1095.79,477.552Z" transform="translate(-1080.727 -468.667)"/><path class="bo" d="M1095.807,445.4a2.348,2.348,0,0,0-3.086,1.669c-.668,2.461,1.1,4.992,1.1,6.218a5.662,5.662,0,0,0,1.815,3.792,16.663,16.663,0,0,0,3.853,2.36s3-1.855,4.027-3.9.41-3.413.819-6.484-1.691-4.1-2.586-4.1S1097.788,441.62,1095.807,445.4Z" transform="translate(-1079.276 -443.597)"/><path class="bm" d="M1092.57,642.816l2.916,14.315h2.862l-.561-14.315Z" transform="translate(-1079.277 -592.967)"/></g></g></svg>