<svg xmlns="http://www.w3.org/2000/svg" width="71.532" height="71.525" viewBox="0 0 71.532 71.525"><defs><style>.a{fill:#1d3861;}</style></defs><g transform="translate(21.341 53.626)"><path class="a" d="M155.516,384.981a1.458,1.458,0,0,0-.08-.263,1.418,1.418,0,0,0-.129-.24,1.358,1.358,0,0,0-.386-.386,1.381,1.381,0,0,0-.242-.129,1.31,1.31,0,0,0-.261-.08,1.377,1.377,0,0,0-.545,0,1.351,1.351,0,0,0-.263.08,1.416,1.416,0,0,0-.24.129,1.4,1.4,0,0,0-.514.626,1.354,1.354,0,0,0-.08.263,1.341,1.341,0,0,0,0,.545,1.313,1.313,0,0,0,.08.261,1.291,1.291,0,0,0,.129.242,1.356,1.356,0,0,0,.386.386,1.41,1.41,0,0,0,.24.129,1.351,1.351,0,0,0,.263.08,1.343,1.343,0,0,0,.545,0,1.31,1.31,0,0,0,.261-.08,1.382,1.382,0,0,0,.242-.129,1.357,1.357,0,0,0,.386-.386,1.377,1.377,0,0,0,.129-.242,1.411,1.411,0,0,0,.08-.261,1.341,1.341,0,0,0,0-.545Z" transform="translate(-152.75 -383.857)"/></g><g transform="translate(0 43.296)"><path class="a" d="M64.266,321.806l-.017-.041c-1.286-3.009-4.3-4.121-7.871-2.9l-9.733,2.692a6.381,6.381,0,0,0-3.951-3.891l-.037-.013-10.7-3.631a11.035,11.035,0,0,0-8.9-4.1c-3.65,0-6.879,2.5-8.726,5.233H1.4a1.4,1.4,0,0,0-1.4,1.4v17.614a1.4,1.4,0,0,0,1.4,1.4H9.7a1.4,1.4,0,0,0,1.4-1.4V332.96H15a1.4,1.4,0,0,0,1.4-1.4v-.4c2.271.2,3.018.629,5.1,1.832a84.56,84.56,0,0,0,8.393,4.285l.061.026a12.54,12.54,0,0,0,4.495.847,11.136,11.136,0,0,0,4.629-.991l21.514-7.7c.038-.014.076-.029.113-.046C62.759,328.465,65.823,325.8,64.266,321.806ZM8.307,332.769H2.794v-14.82H8.307Zm5.293-2.6H11.1V317.949h2.5Zm45.987-3.318-21.5,7.7-.063.024-.056.024a9.055,9.055,0,0,1-6.958.119,80.919,80.919,0,0,1-8.112-4.143,12.575,12.575,0,0,0-6.5-2.211V317.108c1.324-2.171,3.892-4.392,6.661-4.392a8.062,8.062,0,0,1,6.839,3.213,1.4,1.4,0,0,0,.741.591l11.1,3.769c1.773.666,2.711,2.184,2.28,3.7a2.722,2.722,0,0,1-3.345,1.879L28.157,321.9a1.4,1.4,0,0,0-.844,2.664l12.539,3.973.04.012a5.484,5.484,0,0,0,4.194-.487,5.479,5.479,0,0,0,2.621-3.31q.048-.17.085-.339l10.49-2.906c1.515-.517,3.5-.7,4.389,1.335C62.587,325.236,60.205,326.553,59.586,326.848Z" transform="translate(0 -309.922)"/></g><g transform="translate(47.397 17.251)"><path class="a" d="M342.018,124.622a1.36,1.36,0,0,0-.081-.263,1.378,1.378,0,0,0-.514-.626,1.417,1.417,0,0,0-.24-.129,1.392,1.392,0,0,0-.807-.08,1.309,1.309,0,0,0-.261.08,1.381,1.381,0,0,0-.242.129,1.359,1.359,0,0,0-.386.386,1.417,1.417,0,0,0-.129.24,1.352,1.352,0,0,0-.08.263,1.342,1.342,0,0,0,0,.545,1.311,1.311,0,0,0,.08.261,1.378,1.378,0,0,0,.129.242,1.359,1.359,0,0,0,.386.386,1.375,1.375,0,0,0,.242.129,1.409,1.409,0,0,0,.261.08,1.376,1.376,0,0,0,.272.028,1.4,1.4,0,0,0,.274-.028,1.478,1.478,0,0,0,.261-.08,1.414,1.414,0,0,0,.24-.129,1.359,1.359,0,0,0,.386-.386,1.294,1.294,0,0,0,.129-.242,1.315,1.315,0,0,0,.081-.261,1.411,1.411,0,0,0,0-.545Z" transform="translate(-339.25 -123.498)"/></g><g transform="translate(4.148 0)"><path class="a" d="M95.677,4.755H87.371a1.4,1.4,0,0,0-1.4,1.4V7.358h-3.9a1.4,1.4,0,0,0-1.4,1.4v.4c-2.271-.2-3.018-.629-5.1-1.831a84.539,84.539,0,0,0-8.394-4.285l-.061-.026A11.886,11.886,0,0,0,58,3.158L52.378,5.171,47.639.432a1.4,1.4,0,0,0-1.976,0L30.105,15.99a1.386,1.386,0,0,0,0,1.976L56.69,44.551a1.51,1.51,0,0,0,1.976,0l14.2-14.2c.369.032.752.049,1.15.049,3.65,0,6.879-2.5,8.726-5.233H95.677a1.4,1.4,0,0,0,1.4-1.4V6.152A1.4,1.4,0,0,0,95.677,4.755ZM46.651,3.4,49.835,6.58a6.091,6.091,0,0,1-6.369,0Zm-10.4,16.766-3.184-3.184,3.184-3.184a6.091,6.091,0,0,1,0,6.369ZM57.678,41.587,54.495,38.4a6.083,6.083,0,0,1,6.367,0Zm5.2-5.2a8.878,8.878,0,0,0-10.393,0L38.266,22.175a8.879,8.879,0,0,0,0-10.394l3.188-3.188a8.879,8.879,0,0,0,10.394,0l3.022,3.022a5.538,5.538,0,0,0-4.157,3.046,7.963,7.963,0,1,0,9.156,9.857l4.717,1.6a8.92,8.92,0,0,0,1.48,7.081ZM54.381,22.656l.037.013,2.794.948a5.17,5.17,0,1,1-7.017-5.905A6.185,6.185,0,0,0,54.381,22.656Zm13.7,8.532a6.111,6.111,0,0,1-.893-2.905,10.863,10.863,0,0,0,2.464,1.334Zm12.6-7.978C79.357,25.38,76.788,27.6,74.02,27.6a10.169,10.169,0,0,1-1.457-.1h-.005a8,8,0,0,1-5.175-2.832c-.029-.042-.15-.2-.168-.227a1.392,1.392,0,0,0-.77-.64l-11.108-3.77c-1.773-.665-2.71-2.183-2.28-3.7v-.006A2.722,2.722,0,0,1,56.4,14.452l12.517,3.967a1.4,1.4,0,1,0,.844-2.664L59.807,12.6l-.087-.087,0,0L54.563,7.356l4.43-1.586.048-.018.015-.006.056-.024A9.054,9.054,0,0,1,66.07,5.6a80.929,80.929,0,0,1,8.112,4.143,12.573,12.573,0,0,0,6.5,2.211Zm5.293-.84h-2.5V10.153h2.5Zm8.307,0H88.768V7.549H94.28Z" transform="translate(-29.691 -0.023)"/></g></svg>