<svg xmlns="http://www.w3.org/2000/svg" xmlns:xlink="http://www.w3.org/1999/xlink" width="198.967" height="202.149" viewBox="0 0 198.967 202.149"><defs><style>.a{fill:none;}.b,.c{fill:#1295b8;}.c{stroke:#fff;stroke-miterlimit:10;}.d{clip-path:url(#a);}.e{fill:#b58b65;}.f{fill:#dcb58e;}.g{fill:#dad7d6;}.h{fill:#ac999f;}.i{fill:#bfbdbd;}.j{fill:#ae191b;}.k{fill:#7e1f1b;}.l{fill:#701d18;}.m{fill:#4c1608;}.n{fill:#e3c0ba;}.o{fill:#c69f73;}.p{fill:#c20e1a;}.q{fill:#a11718;}.r{fill:#c84031;}.s{fill:#d8886d;}</style><clipPath id="a"><path class="a" d="M170.114,66.808V16.073H91.409v40.9a69.644,69.644,0,1,0,78.706,9.834Z" transform="translate(-54.046 -16.073)"/></clipPath></defs><g transform="translate(-112.489 -1405.224)"><circle class="b" cx="69.5" cy="69.5" r="69.5" transform="translate(143 1438)"/><g transform="translate(103.696 1389.151)"><circle class="c" cx="69.845" cy="69.845" r="69.845" transform="translate(9.5 118.739) rotate(-45)"/><g transform="translate(38.645 16.073)"><g class="d"><g transform="translate(0.562 1.22)"><path class="e" d="M116.651,104.6a58.261,58.261,0,0,0-3,10.5c-.643,4.5,2.143,1.714,4.071-.215s4.715-11.142,4.715-11.142Z" transform="translate(-75.183 -47.604)"/><path class="f" d="M222.732,97.95S201.786,87.038,191.5,75.9,173.93,56.182,169.644,51.467s-7.714-5.143-12.214-8.142-11.357-8.357-14.142-8.357a33.123,33.123,0,0,0-6.643.857c-2.571.429-12.214,6.214-13.071,7.071s-6.643,7.071-7.071,9.429,2.786,3.642,5.571,3.428,8.143-4.286,8.143-4.286l9.214-3.642,3.857,2.143a5.487,5.487,0,0,1-3.214,1.714,39.447,39.447,0,0,0-8.356,1.071,20.846,20.846,0,0,0-9.643,5.572c-3,2.785-5.356,7.285-5.571,9.857s-3.428,12.214.215,13.713,5.356-1.286,6.214-1.928,5.786-9,5.786-9l5.572-4.5s1.714,9.214,1.5,11.357,0,5.786-.643,7.714-7.5,5.143-9.857,6.428-7.285,7.714-3.857,8.785,10.714-2.571,12.214-3.214,8.785-3.857,11.571-4.072,6,1.714,7.071,1.929a11.539,11.539,0,0,1,2.786,1.286s9.643,7.285,19.285,13.285,15.857,4.285,15.857,4.285l32.731,26.555Z" transform="translate(-75.678 -23.826)"/><path class="e" d="M193.957,114.175c-4.285-3-10.5-5.357-14.357-8.357a55.126,55.126,0,0,1-6.214-5.571s-13.5-14.785-13.713-19.714,1.071-6.857,1.071-6.857,1.5-5.572,1.286-8.143-6-2.357-7.285-6.857,0-6.428,1.071-9.857A17.359,17.359,0,0,0,156.5,42.6c-1.19-.829-2.463-1.731-3.738-2.607l-5.73-3.386s-2.571,7.928-3.214,10.07-1.286,0-1.714-.642,1.714-6.428,1.714-6.428-4.5,7.714-7.5,9.428-2.571-3.857-3.857-1.714-2.357,4.5-7.714,6a27.551,27.551,0,0,1-6.99,1.126c.851,1.35,3.184,2.035,5.276,1.874,2.786-.215,8.143-4.286,8.143-4.286l9.214-3.642,3.857,2.143a5.487,5.487,0,0,1-3.214,1.714c-1.361.151-2.937.091-5.174.417,1.138.968,2.9,2.9,1.531,4.726-1.929,2.571-5.143,7.071-7.5,9.214s-2.786,3.428-5.357,9.643a45.935,45.935,0,0,1-3.446,6.4,9.2,9.2,0,0,0,2.8-2.119c.856-.642,5.785-9,5.785-9l5.572-4.5s1.714,9.214,1.5,11.357,0,5.786-.643,7.714-7.5,5.143-9.857,6.428-7.285,7.714-3.857,8.786S133.1,98.746,134.6,98.1s8.786-3.857,11.571-4.072,6,1.714,7.071,1.929a11.539,11.539,0,0,1,2.786,1.286s9.643,7.285,19.285,13.285,15.857,4.285,15.857,4.285l5.571,2.786S198.242,117.174,193.957,114.175Z" transform="translate(-76.634 -24.392)"/><g transform="translate(37.907)"><path class="g" d="M128.9,90.827,119.354,85.5l29.977-56.071,9.546,5.331Z" transform="translate(-115.094 -21.909)"/><path class="h" d="M159.67,39.9,136.082,83.114l2.65,3.921,24.781-46.556Z" transform="translate(-120.878 -25.531)"/><path class="i" d="M166.324,36.98c-2.787-1.845-6.185-1.583-7.589.586a3.914,3.914,0,0,0-.592,2.4c1.335-1.331,3.884-1.522,6.227-.324,2.508,1.283,3.9,3.71,3.381,5.674a3.676,3.676,0,0,0,1.077-1.066C170.232,42.08,169.111,38.825,166.324,36.98Z" transform="translate(-128.502 -24.096)"/><path class="g" d="M130.965,99.261c-2.8-1.857-6.224-1.593-7.637.589a3.729,3.729,0,0,0-.3.588l-4.81,8.807,10.569,5.9,4.635-8.488c.02-.029.044-.055.063-.085C134.9,104.392,133.77,101.117,130.965,99.261Z" transform="translate(-114.701 -45.626)"/><path class="h" d="M131.576,115.859l1.255.7,4.635-8.488c.02-.029.044-.055.063-.085,1.1-1.693.658-4.041-.9-5.876l-6.713,11.777Z" transform="translate(-118.746 -47.039)"/><path class="j" d="M124.516,112.2c-2.85-1.887-6.323-1.619-7.76.6a3.82,3.82,0,0,0-.557,1.463l-3.3,10.175c0,.014-.005.028-.009.042l6.9,3.986c.037-.039.078-.073.113-.115l6.6-8.043a3.715,3.715,0,0,0,.566-.675C128.511,117.412,127.365,114.085,124.516,112.2Z" transform="translate(-112.861 -50.092)"/><path class="k" d="M118.429,127.781l.02.154,3.263,1.884c.037-.039.078-.073.113-.115l6.6-8.043a3.715,3.715,0,0,0,.566-.675c1.144-1.767.645-4.234-1.044-6.121Z" transform="translate(-114.774 -51.449)"/><path class="h" d="M165.385,38.405c-2.722-1.384-5.735-.886-6.727,1.112-.021.041-.281.529-.639,1.2,1.32-1.414,3.943-1.636,6.348-.406s3.813,3.535,3.463,5.464c.389-.7.661-1.2.688-1.25C169.511,42.53,168.108,39.789,165.385,38.405Z" transform="translate(-128.462 -24.743)"/><path class="g" d="M176.32,23.73a4.153,4.153,0,0,0-.625-1.9,7.485,7.485,0,0,0-3.178-2.964,7.75,7.75,0,0,0-2.888-.828,3.909,3.909,0,0,0-3.267.726,3.456,3.456,0,0,0-1.252,1.4c-.08.164-5.959,11.231-5.959,11.231,1.439-2.105,4.766-2.343,7.5-.508,2.546,1.707,3.689,4.609,2.783,6.77l6.4-11.643c.044-.081.08-.164.117-.247.016-.03.035-.058.05-.088A3.584,3.584,0,0,0,176.32,23.73Z" transform="translate(-128.853 -17.938)"/><path class="l" d="M119.946,134.961c-.507.92-2.481.784-4.41-.3s-3.08-2.713-2.573-3.633,2.481-.784,4.41.3S120.453,134.041,119.946,134.961Z" transform="translate(-112.843 -56.824)"/><path class="m" d="M118.1,135.234c-.113.2-.551.174-.979-.067s-.684-.6-.571-.807.551-.174.979.067S118.209,135.029,118.1,135.234Z" transform="translate(-114.115 -58.142)"/><path class="h" d="M181.3,25.4a4.153,4.153,0,0,0-.625-1.9,6.314,6.314,0,0,0-.48-.731L173.564,34.4a5.144,5.144,0,0,1,.856,4.919l6.4-11.643c.044-.081.08-.164.117-.247.016-.03.035-.058.05-.088A3.584,3.584,0,0,0,181.3,25.4Z" transform="translate(-133.836 -19.607)"/></g><path class="f" d="M229.827,118.359s-27.16-16.7-35.732-22.484-12-8.142-15.856-7.285-4.285,3-10.071,3-9.857-1.5-13.928-1.286-12.214,1.5-13.714,2.357-3.214,1.715-3.642,4.286.214,5.356,1.5,5.785,6,3.428,12,3.857,11.785,0,15,.429,2.357,1.929,6.857,6a61.927,61.927,0,0,0,21.642,12.428c9,2.786,25.232,8.127,28.446,8.984s9.429,4.929,9.429,4.929Z" transform="translate(-83.202 -42.305)"/><path class="n" d="M148.411,97.166s.857,7.714-.214,8.571-8.572.857-10.071-.215-3-1.928-1.5-5.785S144.983,96.095,148.411,97.166Z" transform="translate(-82.943 -45.096)"/><path class="n" d="M115.479,91.982s1.5-3.215,2.571-1.072.429,5.356.429,5.356L115.264,99.7A32.31,32.31,0,0,1,115.479,91.982Z" transform="translate(-75.725 -42.912)"/><path class="f" d="M182.691,222.44S154.62,208.3,149.906,203.8s-6-4.5-9-11.786-8.572-12-13.071-16.071-10.928-7.071-12.214-9.214-1.5-8.785-3-13.285-2.786-4.072-4.929-4.072-2.571,3.428-2.357,6.857-.642,12.643-.642,12.643-1.929-5.143-3.214-7.714a35.169,35.169,0,0,1-2.786-9.857c-.428-3.214-.428-9.643-2.571-11.357a4.531,4.531,0,0,0-6.214.642c-1.072,1.5-.857,6.214-.429,7.928s-1.072,10.071.214,15a39.658,39.658,0,0,1,1.286,9l-.214,1.714-3.214-.429s-2.357-5.143-3.857-7.5-3-4.5-3.857-6-2.143-8.571-2.143-8.571-.857-9-3.214-11.143c-1.307-1.188-5.143-3.214-6.428,2.571s-.215,15.214-.215,15.214-4.928-8.785-6-9.428-6-1.5-6.857,4.285,5.786,16.071,6.857,19.714.857,7.286,4.929,12.214,10.285,14.571,14.142,18.857,24.214,10.5,29.356,13.928,14.143,9,17.142,10.928,7.5,4.929,7.5,4.929h56.141v-7.071Z" transform="translate(-54.905 -59.792)"/><path class="o" d="M163.267,227.723l11.008-9.749c-8.664-4.544-21.121-11.312-24.121-14.175-4.714-4.5-6-4.5-9-11.786s-8.572-12-13.071-16.071-10.928-7.071-12.214-9.214-1.5-8.785-3-13.285-2.786-4.072-4.929-4.072-2.571,3.428-2.357,6.857-.642,12.643-.642,12.643-1.929-5.143-3.214-7.714a35.169,35.169,0,0,1-2.786-9.857c-.428-3.214-.428-9.643-2.571-11.357a4.531,4.531,0,0,0-6.214.642c-1.072,1.5-.857,6.214-.429,7.928s-1.072,10.071.214,15a39.658,39.658,0,0,1,1.286,9l-.214,1.714L87.8,173.8s-2.357-5.143-3.857-7.5-3-4.5-3.857-6-2.143-8.571-2.143-8.571-.857-9-3.214-11.143c-1.307-1.189-5.143-3.214-6.428,2.571s-.215,15.214-.215,15.214-4.928-8.785-6-9.428a4.645,4.645,0,0,0-6.463,2.688c1.668.64,4.087,2.214,5.892,6.083,3.044,6.523,2.174,10.436,4.348,13.045s3.914,6.088,6.957,10.436,5.653,9.131,5.653,9.131,5.653-1.739,9.132,0a25.226,25.226,0,0,0,5.653,2.174s10.436-6.957,17.828-4.783,16.089,5.218,19.133,10,11.306,13.48,16.959,19.133S163.267,227.723,163.267,227.723Z" transform="translate(-55.153 -59.792)"/><g transform="translate(34.819 89.39)"><path class="e" d="M108.308,224.156a6.9,6.9,0,0,0,1.225-.866C108.4,224.015,107.8,224.412,108.308,224.156Z" transform="translate(-108.123 -178.324)"/><path class="e" d="M151.26,205.323s-2.143-10.714-9.213-14.357-7.071-2.571-9.643-6.214,1.286-2.786,4.5-4.929a18.177,18.177,0,0,0,3.413-2.978c-2.887-1.906-5.44-3.472-6.2-4.736-.9-1.5-1.276-5.2-1.935-8.836-1.341,1.425-4.043,3.658-6.637,1.979a5.425,5.425,0,0,1-1.684-1.729c-.057,4.1-.673,10.729-.673,10.729s-1.929-5.143-3.214-7.714a35.169,35.169,0,0,1-2.786-9.857c-.081-.609-.147-1.334-.215-2.119-1.719,1.019-5.31,3.565-6,5.976-.857,3,.642,9.214.642,11.142s-2.143,6.214-2.143,6.214,2.571.429,5.357,1.072,1.929,5.356.215,8.142-6.643,1.928-6.643,1.928,4.714,1.715,5.571,3.643c.7,1.567-2.284,5.113-4.346,6.848,2.665-1.7,8.287-5.218,9.489-6.42,1.714-1.714,1.928-.857,9.857,3S151.26,205.323,151.26,205.323Z" transform="translate(-108.221 -154.563)"/></g><path class="f" d="M118.454,215.11s-1.928-7.285-1.286-12,.857-10.714-.642-15-6-14.571-6.214-16.928-.785-6.6,6-7.5c5-.664,9.643,11.142,11.785,18.642s1.5,10.286,9.214,13.714,14.571,9.857,17.142,18.427,6.429,11.571,12.643,15.214,17.142,10.286,16.5,11.571-29.57,1.072-29.57,1.072l-22.5-14.785s-6.642-2.572-7.928-3.643S117.81,218.753,118.454,215.11Z" transform="translate(-74.022 -68.317)"/><path class="e" d="M74.671,168.609s4.714,11.357,5.786,12.643,7.714,9.428,7.714,12a39.913,39.913,0,0,1-.642,6s1.286-6.642,2.786-6.642a4.121,4.121,0,0,1,2.142.429s-1.928-.643-1.071-2.143,2.357-5.356,2.357-5.356-3.858,5.356-4.5,5.143-3.857-5.571-5.571-7.928-1.714-1.5-3.214-4.714A95.516,95.516,0,0,0,74.671,168.609Z" transform="translate(-61.739 -70.03)"/><path class="n" d="M110.176,168.953s1.645,3.455,3.125,5.922,6.251,1.152,7.238.493,1.645-3.455.987-5.264-2.138-4.277-4.441-4.277S110.834,166.65,110.176,168.953Z" transform="translate(-74.014 -69.068)"/><g transform="translate(39.432 80.094)"><path class="p" d="M117.652,142.042a1.3,1.3,0,1,1-2.382,1.049,6.793,6.793,0,0,1,.216-2.737S117.346,141.346,117.652,142.042Z" transform="translate(-115.174 -140.355)"/><path class="q" d="M115.726,140.506l-.005.024a4.968,4.968,0,0,1,1.673,1.391,1.234,1.234,0,0,1-.569,1.647,1.128,1.128,0,0,1-.807.037,1.165,1.165,0,0,0,1.128.12,1.235,1.235,0,0,0,.569-1.648C117.431,141.432,115.726,140.506,115.726,140.506Z" transform="translate(-115.363 -140.407)"/><path class="r" d="M116.591,142.952a.406.406,0,1,1-.523-.182A.392.392,0,0,1,116.591,142.952Z" transform="translate(-115.397 -141.177)"/><path class="s" d="M116.187,143a.208.208,0,1,1-.268-.093A.2.2,0,0,1,116.187,143Z" transform="translate(-115.387 -141.23)"/></g></g></g></g></g></g></svg>