<svg xmlns="http://www.w3.org/2000/svg" width="261.5" height="185.764" viewBox="0 0 261.5 185.764"><defs><style>.a{fill:#d8f9fb;}.b{fill:#42680b;}.c{fill:#7abf26;}.d{fill:#dadada;}.e{fill:#004651;}.f{fill:#ededed;}.g{fill:#f6f6f6;}.h{fill:#be1622;}.i{fill:#b2b2b2;}.j{fill:#27b7c5;}.k{fill:#a3e4e1;}.l{fill:#005e26;}.m{fill:#3d0103;}.n{fill:#009254;}.o{fill:#00a9b8;}.p{fill:#037477;}.q{fill:#193b53;}.r{fill:#50777f;}.s{fill:#c6c6c6;}.t{fill:#273438;}.u{fill:#de2d32;}.v{fill:#ff9409;}.w{fill:#1d15b7;}.x{fill:#e50e28;}.y{fill:#9d9d9c;}</style></defs><g transform="translate(-1373.5 -4326)"><path class="a" d="M1758.689,1333.338c-36.009-.207-56.949-54.661-35.24-92.6,4.075-7.123,9.072-12.618,15.2-15.355,32.674-14.6,70.152-12.261,96.929-50.538,15.993-22.862,41.257-28.713,61.531-25.968,10.278,1.391,21.109,5.319,29.77,15.118,15.463,17.494,50.895,61.961,49.2,89.8-3.351,55.188-69.422,80.4-99.882,80.221Z" transform="translate(-341.139 3177.752)"/><g transform="translate(1398.706 4360.405)"><g transform="translate(0 100.805)"><path class="b" d="M271.877,929.963a2.648,2.648,0,0,0-2.862-2.363H61.087a2.648,2.648,0,0,0-2.861,2.363v3.382a2.648,2.648,0,0,0,2.861,2.363H269.015a2.648,2.648,0,0,0,2.862-2.363Z" transform="translate(-58.226 -902.519)"/><path class="c" d="M14.4,0H199.251a14.4,14.4,0,0,1,14.4,14.4v.11a14.4,14.4,0,0,1-14.4,14.4H14.4A14.4,14.4,0,0,1,0,14.511V14.4A14.4,14.4,0,0,1,14.4,0Z" transform="translate(0 0)"/></g><g transform="translate(4.531 0)"><path class="d" d="M14.4,0H60.533a14.4,14.4,0,0,1,14.4,14.4V44.259a14.4,14.4,0,0,1-14.4,14.4H14.4A14.4,14.4,0,0,1,0,44.259V14.4A14.4,14.4,0,0,1,14.4,0Z" transform="translate(4.948 47.213)"/><path class="d" d="M14.4,0H60.532a14.4,14.4,0,0,1,14.4,14.4V44.259a14.4,14.4,0,0,1-14.4,14.4H14.4A14.4,14.4,0,0,1,0,44.259V14.4A14.4,14.4,0,0,1,14.4,0Z" transform="translate(124.173 47.213)"/><rect class="e" width="75.589" height="6.438" rx="3.219" transform="translate(0 43.875)"/><rect class="e" width="75.589" height="6.438" rx="3.219" transform="translate(128.763 43.875)"/><rect class="d" width="24.799" height="24.918" rx="12.399" transform="translate(88.942)"/><path class="f" d="M14.4,0H49.5A14.4,14.4,0,0,1,63.9,14.4V67.15a14.4,14.4,0,0,1-14.4,14.4H14.4A14.4,14.4,0,0,1,0,67.149V14.4A14.4,14.4,0,0,1,14.4,0Z" transform="translate(69.389 24.322)"/><path class="e" d="M486.9,406.137a2.877,2.877,0,0,0-2.892-2.861H421.117a2.877,2.877,0,0,0-2.891,2.861v.715a2.876,2.876,0,0,0,2.891,2.861h62.891a2.877,2.877,0,0,0,2.892-2.861Z" transform="translate(-351.222 -381.577)"/><ellipse class="g" cx="8.107" cy="8.107" rx="8.107" ry="8.107" transform="translate(92.037 18.146) rotate(-80.759)"/><path class="h" d="M571.663,324.693h-2.694V322a.924.924,0,0,0-.924-.924h-3.079a.924.924,0,0,0-.923.924v2.694h-2.694a.924.924,0,0,0-.923.924V328.7a.924.924,0,0,0,.923.924h2.694v2.694a.924.924,0,0,0,.923.924h3.079a.924.924,0,0,0,.924-.924v-2.694h2.694a.924.924,0,0,0,.924-.924v-3.079A.924.924,0,0,0,571.663,324.693Z" transform="translate(-465.165 -315.711)"/><g transform="translate(81.55 73.204)"><rect class="i" width="33.701" height="29.329" transform="translate(3.1 3.338)"/><rect class="d" width="21.46" height="29.329" transform="translate(9.18 3.338)"/><rect class="i" width="1.987" height="29.806" transform="translate(18.837 2.861)"/><path class="e" d="M531.485,665.338a2.861,2.861,0,0,1-2.861,2.862H494.287a2.861,2.861,0,0,1-2.861-2.862h0a2.861,2.861,0,0,1,2.861-2.861h34.337a2.861,2.861,0,0,1,2.861,2.861Z" transform="translate(-491.426 -662.477)"/><path class="e" d="M565.08,753.752a.676.676,0,0,1-.676.675h-2.7a.675.675,0,0,1-.675-.675h0a.676.676,0,0,1,.675-.676h2.7a.676.676,0,0,1,.676.676Z" transform="translate(-547.196 -735.073)"/><path class="e" d="M604.679,753.752a.675.675,0,0,1-.675.675h-2.7a.675.675,0,0,1-.675-.675h0a.676.676,0,0,1,.675-.676H604a.676.676,0,0,1,.675.676Z" transform="translate(-578.927 -735.073)"/></g></g><g transform="translate(14.744 31.475)"><path class="j" d="M247.3,570.076H237.287a2.861,2.861,0,0,0-2.861,2.861v10.015a2.861,2.861,0,0,0,2.861,2.861H247.3a2.861,2.861,0,0,0,2.861-2.861V572.937A2.861,2.861,0,0,0,247.3,570.076Z" transform="translate(-214.158 -546.708)"/><path class="j" d="M350.937,572.56a2.86,2.86,0,0,0-2.834-2.484H338.088a2.861,2.861,0,0,0-2.861,2.861v10.015c0,.081.005.161.012.24a2.86,2.86,0,0,0,2.849,2.621H348.1a2.862,2.862,0,0,0,2.862-2.861V572.937A2.9,2.9,0,0,0,350.937,572.56Z" transform="translate(-294.929 -546.708)"/><path class="j" d="M348.1,666.076H338.088a2.861,2.861,0,0,0-2.861,2.862v10.015a2.87,2.87,0,0,0,2.861,2.861H348.1a2.862,2.862,0,0,0,2.862-2.861V668.938A2.862,2.862,0,0,0,348.1,666.076Z" transform="translate(-294.929 -623.632)"/><path class="j" d="M145.767,570.117a2.885,2.885,0,0,0-.465-.041H135.287a2.861,2.861,0,0,0-2.861,2.861v10.015a2.861,2.861,0,0,0,2.861,2.861H145.3a2.861,2.861,0,0,0,2.861-2.861V572.937A2.86,2.86,0,0,0,145.767,570.117Z" transform="translate(-132.426 -546.708)"/><path class="j" d="M145.681,666.1a2.87,2.87,0,0,0-.379-.028H135.287a2.861,2.861,0,0,0-2.861,2.862v10.015a2.862,2.862,0,0,0,2.861,2.861H145.3a2.861,2.861,0,0,0,2.861-2.861V668.938A2.86,2.86,0,0,0,145.681,666.1Z" transform="translate(-132.426 -623.632)"/><path class="j" d="M248.6,666.39a2.848,2.848,0,0,0-1.3-.314H237.287a2.861,2.861,0,0,0-2.861,2.862v10.015a2.861,2.861,0,0,0,2.861,2.861H247.3a2.861,2.861,0,0,0,2.861-2.861V668.938A2.86,2.86,0,0,0,248.6,666.39Z" transform="translate(-214.158 -623.632)"/><g transform="translate(63.07)"><path class="j" d="M564.7,452.476H554.687a2.861,2.861,0,0,0-2.861,2.861v10.015c0,.027,0,.054,0,.081a2.859,2.859,0,0,0,2.857,2.78H564.7a2.861,2.861,0,0,0,2.861-2.861V455.337A2.861,2.861,0,0,0,564.7,452.476Z" transform="translate(-531.558 -452.476)"/><path class="j" d="M665.5,452.476H655.488a2.861,2.861,0,0,0-2.861,2.861v10.015a2.859,2.859,0,0,0,2.861,2.861H665.5c.09,0,.179-.005.267-.013a2.859,2.859,0,0,0,2.591-2.78c0-.023,0-.045,0-.068V455.337A2.861,2.861,0,0,0,665.5,452.476Z" transform="translate(-612.329 -452.476)"/><path class="j" d="M464.071,548.824a2.851,2.851,0,0,0-1.369-.348H452.687a2.861,2.861,0,0,0-2.861,2.861v10.015a2.869,2.869,0,0,0,2.861,2.861H462.7a2.852,2.852,0,0,0,2.125-.95,2.511,2.511,0,0,1,.448-.674l.007-.007a2.847,2.847,0,0,0,.281-1.23V551.337A2.861,2.861,0,0,0,464.071,548.824Z" transform="translate(-449.826 -529.4)"/><path class="j" d="M665.5,548.476H655.488a2.861,2.861,0,0,0-2.861,2.861v10.015a2.861,2.861,0,0,0,2.861,2.861H665.5a2.862,2.862,0,0,0,2.861-2.861V551.337A2.861,2.861,0,0,0,665.5,548.476Z" transform="translate(-612.329 -529.4)"/><path class="j" d="M462.7,452.476H452.687a2.861,2.861,0,0,0-2.861,2.861v10.015a2.861,2.861,0,0,0,2.861,2.861H462.7a2.861,2.861,0,0,0,2.861-2.861V455.337A2.861,2.861,0,0,0,462.7,452.476Z" transform="translate(-449.826 -452.476)"/><path class="j" d="M564.7,548.476H554.687a2.861,2.861,0,0,0-2.861,2.861v10.015a2.864,2.864,0,0,0,2.861,2.861H564.7a2.861,2.861,0,0,0,2.861-2.861V551.337a2.869,2.869,0,0,0-2.861-2.861Z" transform="translate(-531.558 -529.4)"/><g transform="translate(64.978 23.368)"><path class="j" d="M893.121,570.455a2.847,2.847,0,0,0-1.418-.378H881.688a2.862,2.862,0,0,0-2.862,2.861v10.015a2.869,2.869,0,0,0,2.862,2.861H891.7a2.861,2.861,0,0,0,2.861-2.861V572.937A2.859,2.859,0,0,0,893.121,570.455Z" transform="translate(-858.558 -570.076)"/><path class="j" d="M995.358,572.8a2.86,2.86,0,0,0-2.855-2.727H982.488a2.861,2.861,0,0,0-2.861,2.861v10.015a2.861,2.861,0,0,0,2.861,2.861H992.5a2.861,2.861,0,0,0,2.861-2.861V572.937C995.365,572.892,995.36,572.848,995.358,572.8Z" transform="translate(-939.329 -570.076)"/><path class="j" d="M993.548,666.276a2.843,2.843,0,0,0-1.045-.2H982.488a2.861,2.861,0,0,0-2.861,2.862v10.015a2.867,2.867,0,0,0,2.861,2.861H992.5a2.862,2.862,0,0,0,2.861-2.861V668.938A2.86,2.86,0,0,0,993.548,666.276Z" transform="translate(-939.329 -647)"/><path class="j" d="M789.7,570.076H779.688a2.861,2.861,0,0,0-2.862,2.861v10.015a2.861,2.861,0,0,0,2.862,2.861H789.7a2.861,2.861,0,0,0,2.861-2.861V572.937A2.861,2.861,0,0,0,789.7,570.076Z" transform="translate(-776.826 -570.076)"/><path class="j" d="M789.7,666.076H779.688a2.861,2.861,0,0,0-2.862,2.862v10.015a2.861,2.861,0,0,0,2.862,2.861H789.7a2.861,2.861,0,0,0,2.861-2.861V668.938a2.859,2.859,0,0,0-2.861-2.862Z" transform="translate(-776.826 -647)"/><path class="j" d="M892.591,666.219a2.857,2.857,0,0,0-.888-.142H881.688a2.861,2.861,0,0,0-2.862,2.862v10.015a2.862,2.862,0,0,0,2.862,2.861H891.7a2.861,2.861,0,0,0,2.861-2.861V668.938A2.862,2.862,0,0,0,892.591,666.219Z" transform="translate(-858.558 -647)"/></g></g><path class="k" d="M258.6,667.657l-11.285,12.068a1.528,1.528,0,0,0,.072,2.16l.837.783a1.529,1.529,0,0,0,2.161-.072l9.777-10.455V670.2A2.86,2.86,0,0,0,258.6,667.657Z" transform="translate(-224.152 -624.899)"/><path class="k" d="M349.817,676.076l-.759-.709a1.385,1.385,0,0,0-1.958.066l-10.923,11.68a2.86,2.86,0,0,0,2.672,1.846h.818l10.215-10.924A1.386,1.386,0,0,0,349.817,676.076Z" transform="translate(-295.69 -630.777)"/><path class="k" d="M465.564,455.337a2.861,2.861,0,0,0-2.861-2.861h-2.413L449.826,463.7v1.65a2.861,2.861,0,0,0,2.861,2.861h1.083l11.794-12.654Z" transform="translate(-386.756 -452.476)"/><path class="k" d="M507.934,506.185v-2.75l-5.231,5.612h2.369A2.861,2.861,0,0,0,507.934,506.185Z" transform="translate(-429.126 -493.309)"/><path class="k" d="M551.83,471.631l6.563-7.041a2.519,2.519,0,0,0-.125-3.56l-.154-.143a2.519,2.519,0,0,0-3.56.126l-2.728,2.927v7.611C551.826,471.577,551.829,471.6,551.83,471.631Z" transform="translate(-468.488 -458.673)"/><path class="k" d="M462.7,548.476h-5.48l-7.4,7.935v4.941a2.848,2.848,0,0,0,.761,1.939l13.484-14.467A2.851,2.851,0,0,0,462.7,548.476Z" transform="translate(-386.756 -529.4)"/><path class="k" d="M610.866,513.115a2.861,2.861,0,0,0,2.861-2.861v-1.742l-4.29,4.6Z" transform="translate(-514.651 -497.377)"/><path class="k" d="M665.5,452.476h-6.786l-6.086,6.53v6.346a2.851,2.851,0,0,0,.223,1.11l12.066-12.945A2.509,2.509,0,0,0,665.5,452.476Z" transform="translate(-549.259 -452.476)"/><path class="k" d="M525.77,619.474a2.509,2.509,0,0,0-.448.674,2.859,2.859,0,0,0,.455-.681Z" transform="translate(-447.25 -586.284)"/><path class="k" d="M560.162,548.476l-8.336,8.944v3.932a2.858,2.858,0,0,0,1.284,2.386l13.523-14.509a2.848,2.848,0,0,0-1.931-.754Z" transform="translate(-468.488 -529.4)"/><path class="k" d="M698.148,498.314l2.591-2.78c0-.023,0-.045,0-.068v-5.409l-7.708,8.27h4.847C697.972,498.327,698.06,498.322,698.148,498.314Z" transform="translate(-581.638 -482.589)"/><path class="k" d="M652.627,553.753v5.462c.036-.033.073-.067.107-.1l9.912-10.635h-5.1Z" transform="translate(-549.259 -529.4)"/><path class="k" d="M348.152,570.076h-.6l-12.266,13.117a2.86,2.86,0,0,0,2.849,2.621h.455l12.394-13.254A2.86,2.86,0,0,0,348.152,570.076Z" transform="translate(-294.978 -546.708)"/><path class="k" d="M150.82,583.139l1.148,1.073a2.1,2.1,0,0,0,2.961-.1l7.442-7.958V573.1a2.86,2.86,0,0,0-2.4-2.82l-9.253,9.9A2.1,2.1,0,0,0,150.82,583.139Z" transform="translate(-146.632 -546.873)"/><path class="k" d="M237.287,600.237h1.161l7.071-7.561a2.1,2.1,0,0,0-.1-2.961l-1.148-1.073a2.1,2.1,0,0,0-2.961.1l-6.885,7.363v1.272A2.861,2.861,0,0,0,237.287,600.237Z" transform="translate(-214.158 -561.132)"/><path class="k" d="M149.041,669.051a2.86,2.86,0,0,0-2.483-2.834l-13.037,13.942a2.861,2.861,0,0,0,2.644,1.767h3.592L149.041,672Z" transform="translate(-133.303 -623.745)"/><path class="k" d="M137.862,676.911l-.619-.579a1.13,1.13,0,0,0-1.6.054l-3.219,3.443v4.551l5.49-5.871A1.13,1.13,0,0,0,137.862,676.911Z" transform="translate(-132.426 -631.606)"/><g transform="translate(128.047 23.368)"><path class="k" d="M779.688,585.814h1.323l11.553-12.4v-.481a2.861,2.861,0,0,0-2.861-2.861h-3.329l-9.547,10.244v2.633A2.861,2.861,0,0,0,779.688,585.814Z" transform="translate(-776.826 -570.076)"/><path class="k" d="M879.992,585.254l12.629-13.55a1.861,1.861,0,0,0,.5-1.25,2.847,2.847,0,0,0-1.418-.378h-2.893l-9.983,10.711v2.166A2.856,2.856,0,0,0,879.992,585.254Z" transform="translate(-858.558 -570.076)"/><path class="k" d="M807.471,675.156l.114.107a1.872,1.872,0,0,0,2.645-.093l6.352-6.816a2.863,2.863,0,0,0-2.8-2.278h-.4l-6,6.435A1.871,1.871,0,0,0,807.471,675.156Z" transform="translate(-800.905 -647)"/><path class="k" d="M924.184,620.518l-4.774,5.122h4.812a2.862,2.862,0,0,0,2.861-2.861v-2.668A2.327,2.327,0,0,0,924.184,620.518Z" transform="translate(-891.077 -609.902)"/><path class="k" d="M835.118,719.982v-2.7l-5.185,5.563h2.324A2.861,2.861,0,0,0,835.118,719.982Z" transform="translate(-819.38 -688.029)"/><path class="k" d="M883.779,666.076l-4.953,5.314V678.5L890.4,666.076Z" transform="translate(-858.558 -647)"/><path class="k" d="M992.5,570.076h-1.229l-11.647,12.5v.38a2.861,2.861,0,0,0,2.861,2.861h.743L995.358,572.8A2.86,2.86,0,0,0,992.5,570.076Z" transform="translate(-939.329 -570.076)"/><path class="k" d="M919,666.793l-6.591,7.072a2.326,2.326,0,0,0,.116,3.288l.142.133a2.328,2.328,0,0,0,3.288-.116l5.019-5.385v-2.272A2.862,2.862,0,0,0,919,666.793Z" transform="translate(-884.967 -647.574)"/><path class="k" d="M1045.631,632.257v-.65l-3.272,3.511h.411A2.861,2.861,0,0,0,1045.631,632.257Z" transform="translate(-989.595 -619.38)"/><path class="k" d="M988.981,666.076l-9.354,10.036v2.84a2.844,2.844,0,0,0,.545,1.675l13.376-14.352a2.843,2.843,0,0,0-1.045-.2Z" transform="translate(-939.329 -647)"/></g></g><g transform="translate(5.018 29.238)"><g transform="translate(178.924 14.114)"><path class="l" d="M1010.415,539.813c0,14.476-5.932,20.4-13.25,20.4s-13.249-5.921-13.249-20.4,7.983-27.568,13.249-27.568C1001.543,512.245,1010.415,525.337,1010.415,539.813Z" transform="translate(-983.916 -512.245)"/><path class="m" d="M2.208,0h0A2.208,2.208,0,0,1,4.416,2.208V37.971a2.208,2.208,0,0,1-2.208,2.208h0A2.208,2.208,0,0,1,0,37.971V2.208A2.208,2.208,0,0,1,2.208,0Z" transform="translate(11.041 26.201)"/></g><g transform="translate(157.5 0)"><path class="n" d="M908.656,475.091c0,17.788-7.289,25.063-16.28,25.063s-16.281-7.275-16.281-25.063,9.809-33.875,16.281-33.875C897.755,441.216,908.656,457.3,908.656,475.091Z" transform="translate(-876.095 -441.216)"/><path class="m" d="M2.713,0h0A2.713,2.713,0,0,1,5.427,2.713V46.658a2.713,2.713,0,0,1-2.713,2.713h0A2.714,2.714,0,0,1,0,46.657V2.713A2.713,2.713,0,0,1,2.713,0Z" transform="translate(13.567 32.195)"/></g><g transform="translate(0 17.192)"><path class="n" d="M109.976,555.3c0,14.476-5.932,20.4-13.249,20.4s-13.25-5.921-13.25-20.4,7.983-27.568,13.25-27.568C101.1,527.733,109.976,540.826,109.976,555.3Z" transform="translate(-83.477 -527.733)"/><rect class="m" width="4.416" height="40.18" rx="2.208" transform="translate(11.041 26.201)"/></g></g><g transform="translate(29.488 82.497)"><path class="o" d="M274.339,721.189H228.1c-1.412,0-1.634.862-2.557,2.217l-6.1,10.356h-8.533a2.376,2.376,0,0,0-2.557,2.139v13.551a2.376,2.376,0,0,0,2.557,2.139h63.431a2.2,2.2,0,0,0,2.084-1.489l.011-.031c.007-.021.013-.042.02-.063a1.808,1.808,0,0,0,.09-.556V723.394A2.2,2.2,0,0,0,274.339,721.189Z" transform="translate(-208.007 -718.815)"/><path class="p" d="M295.594,783.146h-12.5c-1.581,0-2.867-1.69-2.867-3.769V767.885c0-2.078,1.286-3.769,2.867-3.769h12.5c1.581,0,2.867,1.691,2.867,3.769v11.493C298.461,781.456,297.175,783.146,295.594,783.146Zm-12.5-18.06c-1.015,0-1.871,1.282-1.871,2.8v11.493c0,1.517.857,2.8,1.871,2.8h12.5c1.014,0,1.871-1.282,1.871-2.8V767.885c0-1.517-.857-2.8-1.871-2.8Z" transform="translate(-265.599 -753.213)"/><path class="q" d="M289.44,728.73c-.993,0-1.149.607-1.8,1.56,0,0-4.543,7.158-4.7,7.971-.16.846.805,1.56,1.8,1.56h15.884V728.73Z" transform="translate(-267.765 -724.858)"/><path class="r" d="M308.008,742.927a.808.808,0,0,0-1.141.069l-7.122,8.038H301.9l6.173-6.967A.808.808,0,0,0,308.008,742.927Z" transform="translate(-281.241 -736.072)"/><path class="r" d="M333.867,728.73l-7.45,8.409a.808.808,0,1,0,1.209,1.072l7.686-8.674v-.806Z" transform="translate(-302.45 -724.858)"/><path class="p" d="M299.147,738.707H283.22a2.341,2.341,0,0,1-1.791-.806,1.45,1.45,0,0,1-.326-1.19c.156-.841,3.9-6.9,4.652-8.1.121-.182.22-.342.31-.489.427-.693.764-1.241,1.756-1.241h11.324Zm-11.324-11.091c-.595,0-.745.244-1.146.9-.095.154-.2.322-.319.5a87.063,87.063,0,0,0-4.547,7.833.7.7,0,0,0,.172.583,1.635,1.635,0,0,0,1.236.54h15.207V727.616Z" transform="translate(-266.285 -723.376)"/><path class="g" d="M352.935,798.266a.577.577,0,0,1-.576.577h-2.933a.577.577,0,0,1-.577-.577h0a.577.577,0,0,1,.577-.576h2.933a.577.577,0,0,1,.576.576Z" transform="translate(-320.587 -780.115)"/><path class="s" d="M207.159,798.983a1.012,1.012,0,0,1,.027-.223.492.492,0,0,0-.143-.022.39.39,0,0,0-.421.349v3.8a.39.39,0,0,0,.421.349.506.506,0,0,0,.149-.023,1.022,1.022,0,0,1-.033-.244Z" transform="translate(-206.622 -780.954)"/><path class="g" d="M210.107,795.445a.811.811,0,0,0-.756.677,1.015,1.015,0,0,0-.027.223v3.986a1.022,1.022,0,0,0,.033.243.807.807,0,0,0,.751.656.848.848,0,0,0,.784-.9v-3.986A.848.848,0,0,0,210.107,795.445Z" transform="translate(-208.787 -778.316)"/><path class="d" d="M519.155,835.684h-1.65a1.187,1.187,0,0,0-1.1,1.258s.417.928.852,1.652c.344.574.7,1.019,1.31,1.019h4.818v-3.93Z" transform="translate(-454.849 -810.559)"/><path class="t" d="M275.865,864.494a1.072,1.072,0,0,1-1.075,1.07H207.7a1.072,1.072,0,0,1-1.075-1.07h0a1.072,1.072,0,0,1,1.075-1.069H274.79a1.072,1.072,0,0,1,1.075,1.069Z" transform="translate(-206.622 -832.787)"/><rect class="u" width="3.825" height="3.109" transform="translate(64.712 25.52)"/><path class="v" d="M520.766,837.672a1,1,0,0,0-1,1,14.19,14.19,0,0,0,.77,1.307,1.438,1.438,0,0,0,1.185.806h.532v-3.109Z" transform="translate(-457.545 -812.152)"/><path class="p" d="M243.243,836.73a7.443,7.443,0,0,0-7.444,7.444h14.887A7.444,7.444,0,0,0,243.243,836.73Z" transform="translate(-230.001 -811.397)"/><path class="t" d="M253.495,847.908a6.517,6.517,0,1,1-6.517-6.518A6.517,6.517,0,0,1,253.495,847.908Z" transform="translate(-233.736 -815.132)"/><path class="p" d="M450.395,836.73a7.444,7.444,0,0,0-7.444,7.444h14.887A7.444,7.444,0,0,0,450.395,836.73Z" transform="translate(-395.99 -811.397)"/><path class="t" d="M460.646,847.908a6.518,6.518,0,1,1-6.518-6.518A6.517,6.517,0,0,1,460.646,847.908Z" transform="translate(-399.725 -815.132)"/><path class="o" d="M258.5,854.625a4.852,4.852,0,1,1-4.852-4.852A4.852,4.852,0,0,1,258.5,854.625Z" transform="translate(-240.418 -821.849)"/><path class="f" d="M260.579,857.329a4.181,4.181,0,1,1-4.181-4.181A4.181,4.181,0,0,1,260.579,857.329Z" transform="translate(-243.157 -824.553)"/><path class="t" d="M269.7,869.519a1.158,1.158,0,1,1-1.158-1.158A1.158,1.158,0,0,1,269.7,869.519Z" transform="translate(-255.313 -836.743)"/><path class="o" d="M465.784,854.625a4.852,4.852,0,1,1-4.852-4.852A4.852,4.852,0,0,1,465.784,854.625Z" transform="translate(-406.511 -821.849)"/><path class="f" d="M467.861,857.329a4.181,4.181,0,1,1-4.181-4.181A4.181,4.181,0,0,1,467.861,857.329Z" transform="translate(-409.25 -824.553)"/><path class="t" d="M476.985,869.519a1.158,1.158,0,1,1-1.158-1.158A1.158,1.158,0,0,1,476.985,869.519Z" transform="translate(-421.406 -836.743)"/><path class="f" d="M436.589,743.778h-4.283v-4.284a.819.819,0,0,0-.819-.818h-2.729a.819.819,0,0,0-.819.818v4.284h-4.284a.819.819,0,0,0-.819.819v2.729a.819.819,0,0,0,.819.819h4.284v4.283a.819.819,0,0,0,.819.819h2.729a.819.819,0,0,0,.819-.819v-4.283h4.283a.819.819,0,0,0,.819-.819V744.6A.819.819,0,0,0,436.589,743.778Z" transform="translate(-379.873 -732.828)"/><path class="w" d="M332.493,709.244a1.187,1.187,0,0,0,0,2.374h1.136l1.843-2.374Z" transform="translate(-306.531 -709.244)"/><path class="x" d="M355.243,709.244h-5.568l-1.843,2.374h7.412a1.187,1.187,0,0,0,0-2.374Z" transform="translate(-319.772 -709.244)"/><path class="y" d="M344.838,709.244l-1.844,2.373h.961l1.844-2.373Z" transform="translate(-315.896 -709.244)"/></g></g></g></svg>