<svg xmlns="http://www.w3.org/2000/svg" width="173.604" height="170.875" viewBox="0 0 173.604 170.875"><defs><style>.a{fill:#c6ff00;}.b{fill:#fff;opacity:0.7;}.c{fill:#c4c4c3;}.d{fill:#ffb307;}.e{fill:#ffd400;}.f{fill:#ffc200;}.g{fill:#fd9612;}.h{fill:#dfcac8;mix-blend-mode:multiply;isolation:isolate;}.i{fill:#c0750e;}.j{fill:#975d07;}.k{fill:#ffaa0c;}.l{fill:#b7650f;}</style></defs><g transform="translate(-320 -2828.396)"><g transform="translate(320 2828.396)"><path class="a" d="M164.37,68.94c-20.741-9.58-45.725-10.057-67.252-2.833-21.759,7.3-44.239,25.69-46.312,50.129-1.521,17.929,12.576,29.12,15.044,45.84,1.5,10.151-3.227,18.915-3.955,28.711A30.389,30.389,0,0,0,69.786,213.3c17.158,19.238,50.614,26.676,70.763,7.739,7.935-7.457,14.945-17.706,25.689-21.375,21.584-7.372,54.574-9.253,57.82-38.035,1.979-17.553-8.821-33.819-17.9-47.851C194.833,96.265,184.063,78.035,164.37,68.94Z" transform="translate(-50.691 -61.16)"/><path class="b" d="M164.37,68.94c-20.741-9.58-45.725-10.057-67.252-2.833-21.759,7.3-44.239,25.69-46.312,50.129-1.521,17.929,12.576,29.12,15.044,45.84,1.5,10.151-3.227,18.915-3.955,28.711A30.389,30.389,0,0,0,69.786,213.3c17.158,19.238,50.614,26.676,70.763,7.739,7.935-7.457,14.945-17.706,25.689-21.375,21.584-7.372,54.574-9.253,57.82-38.035,1.979-17.553-8.821-33.819-17.9-47.851C194.833,96.265,184.063,78.035,164.37,68.94Z" transform="translate(-50.691 -61.16)"/></g><g transform="translate(330.823 2860.714)"><path class="c" d="M177.691,226.244c0,3.721-14.231,6.737-31.786,6.737s-31.786-3.016-31.786-6.737,14.232-6.737,31.786-6.737S177.691,222.523,177.691,226.244Z" transform="translate(-114.118 -127.439)"/><path class="c" d="M289.039,222.113c0,3.721-14.231,6.737-31.786,6.737s-31.787-3.016-31.787-6.737,14.232-6.737,31.787-6.737S289.039,218.393,289.039,222.113Z" transform="translate(-163.648 -125.602)"/><path class="c" d="M321.891,240.752c0,3.721-14.231,6.737-31.786,6.737s-31.786-3.016-31.786-6.737,14.232-6.737,31.786-6.737S321.891,237.031,321.891,240.752Z" transform="translate(-178.261 -133.893)"/><g transform="translate(5.018 45.149)"><g transform="translate(2.306 32.478)"><path class="d" d="M180.847,206.238v8.769a3.362,3.362,0,0,1-1.227,2.4,8.5,8.5,0,0,1-.781.643,13.559,13.559,0,0,1-2.008,1.171c-.249.115-.509.237-.781.352a26.788,26.788,0,0,1-3.18,1.119c-.255.076-.513.153-.776.229-1.29.345-2.687.659-4.185.927l-.781.138c-1.227.2-2.511.383-3.85.529-.259.022-.518.054-.777.077-.892.091-1.8.16-2.734.222-.259.023-.518.039-.781.054-1.165.062-2.355.1-3.569.123-.258,0-.518.007-.78.007h-.559c-1.133,0-2.248-.023-3.346-.062-.263-.007-.522-.023-.781-.031-1.12-.053-2.217-.13-3.288-.223l-.785-.068c-.741-.069-1.463-.153-2.172-.237-.264-.039-.523-.069-.782-.108-.9-.122-1.779-.26-2.623-.413-.264-.046-.522-.092-.776-.145-.736-.138-1.441-.291-2.124-.459-.263-.062-.521-.123-.776-.191-.847-.215-1.647-.445-2.4-.7-.268-.085-.526-.177-.781-.269a20.308,20.308,0,0,1-2.173-.9c-.277-.13-.536-.268-.786-.406a10.222,10.222,0,0,1-1.669-1.126,5.86,5.86,0,0,1-.784-.8,2.984,2.984,0,0,1-.723-1.854v-8.769Z" transform="translate(-127.31 -199.163)"/><path class="e" d="M180.847,200.572c0,3.909-11.985,7.077-26.769,7.077s-26.769-3.168-26.769-7.077,11.985-7.077,26.769-7.077S180.847,196.664,180.847,200.572Z" transform="translate(-127.31 -193.495)"/><path class="f" d="M179.893,200.646c0,2.688-9.836,4.867-21.972,4.867s-21.972-2.18-21.972-4.867,9.837-4.868,21.972-4.868S179.893,197.958,179.893,200.646Z" transform="translate(-131.153 -194.511)"/><path class="g" d="M136.62,201.843c2.408-2.11,11.031-3.672,21.3-3.672s18.894,1.562,21.3,3.672a1.645,1.645,0,0,0,.67-1.2c0-2.689-9.836-4.868-21.972-4.868s-21.972,2.18-21.972,4.868A1.646,1.646,0,0,0,136.62,201.843Z" transform="translate(-131.153 -194.511)"/><g transform="translate(0.723 10.138)"><path class="g" d="M129.4,213.314v7.491a5.857,5.857,0,0,1-.784-.8v-6.695Z" transform="translate(-128.613 -212.448)"/><path class="g" d="M133.818,217.274V224.1c-.277-.13-.536-.268-.786-.406v-6.418Z" transform="translate(-130.579 -214.21)"/><path class="g" d="M139.142,219.7v6.649c-.268-.085-.526-.177-.781-.269V219.7Z" transform="translate(-132.949 -215.29)"/><path class="g" d="M144.866,221.33v6.633c-.263-.062-.521-.123-.776-.191V221.33Z" transform="translate(-135.497 -216.014)"/><path class="g" d="M150.089,222.889v6.372c-.264-.046-.522-.092-.776-.145v-6.227Z" transform="translate(-137.821 -216.708)"/><path class="g" d="M156.218,223.924v6.319c-.264-.039-.523-.069-.782-.108v-6.211Z" transform="translate(-140.544 -217.168)"/><path class="g" d="M161.541,223.924v6.624l-.785-.068v-6.556Z" transform="translate(-142.911 -217.168)"/><path class="g" d="M168.874,223.924V230.8c-.263-.007-.522-.023-.781-.031v-6.847Z" transform="translate(-146.174 -217.168)"/><path class="g" d="M177.312,222.889V230.4c-.258,0-.518.007-.78.007v-7.514Z" transform="translate(-149.928 -216.708)"/><path class="g" d="M185.147,221.33v8.2c-.259.023-.518.039-.781.054V221.33Z" transform="translate(-153.413 -216.014)"/><path class="g" d="M191.475,221.33v7.9c-.259.022-.518.054-.777.077V221.33Z" transform="translate(-156.23 -216.014)"/><path class="g" d="M199.812,219.7v8.135l-.781.138V219.7Z" transform="translate(-159.936 -215.29)"/><path class="g" d="M208.752,218.143v7.844c-.255.076-.513.153-.776.229v-8.073Z" transform="translate(-163.915 -214.597)"/><path class="g" d="M215.883,214.35v8.478c-.249.115-.509.237-.781.352v-8.83Z" transform="translate(-167.085 -212.909)"/><path class="g" d="M220.906,211.755v8.1a8.5,8.5,0,0,1-.781.643v-8.747Z" transform="translate(-169.319 -211.755)"/></g><path class="h" d="M179.62,217.45a8.492,8.492,0,0,1-.781.642,13.462,13.462,0,0,1-2.008,1.172c-.249.115-.509.238-.781.353a26.794,26.794,0,0,1-3.18,1.119l-.776.23c-1.29.344-2.687.658-4.185.926-.255.047-.518.092-.781.138-1.227.2-2.511.383-3.85.529-.259.023-.518.053-.777.076-.892.092-1.8.162-2.734.223-.259.023-.518.038-.781.054-1.165.061-2.355.1-3.569.122-.258,0-.518.007-.78.007h-.559c-1.133,0-2.248-.022-3.346-.061-.263-.008-.522-.023-.781-.032-1.12-.053-2.217-.13-3.288-.222l-.785-.068c-.741-.069-1.463-.154-2.172-.238-.264-.038-.523-.069-.782-.108-.9-.122-1.779-.26-2.623-.414-.264-.046-.522-.092-.776-.145-.736-.137-1.441-.291-2.124-.46-.263-.061-.521-.123-.776-.191-.847-.215-1.647-.445-2.4-.7-.268-.084-.526-.176-.781-.268a20.3,20.3,0,0,1-2.173-.9c-.277-.13-.536-.268-.786-.406a10.257,10.257,0,0,1-1.669-1.126,5.83,5.83,0,0,1-.784-.8,2.983,2.983,0,0,1-.723-1.854v3.876a2.984,2.984,0,0,0,.723,1.854,5.859,5.859,0,0,0,.784.8,10.219,10.219,0,0,0,1.669,1.126c.249.138.509.276.786.406a20.3,20.3,0,0,0,2.173.9c.254.092.512.184.781.269.753.252,1.553.482,2.4.7.254.068.513.129.776.191.683.168,1.388.321,2.124.459.254.054.512.1.776.145.844.153,1.722.291,2.623.413.259.039.518.069.782.108.709.084,1.431.168,2.172.237l.785.068c1.071.092,2.168.169,3.288.223.259.008.517.023.781.031,1.1.039,2.213.062,3.346.062h.559c.262,0,.522-.007.78-.007,1.214-.024,2.4-.062,3.569-.123.263-.015.522-.031.781-.054.932-.061,1.843-.13,2.734-.222.259-.023.517-.054.777-.077,1.339-.145,2.623-.33,3.85-.529l.781-.138c1.5-.268,2.9-.582,4.185-.927.263-.077.521-.154.776-.229a26.791,26.791,0,0,0,3.18-1.119c.273-.115.532-.237.781-.352a13.559,13.559,0,0,0,2.008-1.171,8.5,8.5,0,0,0,.781-.643,3.362,3.362,0,0,0,1.227-2.4v-3.876A3.366,3.366,0,0,1,179.62,217.45Z" transform="translate(-127.31 -203.084)"/></g><g transform="translate(0 21.829)"><path class="d" d="M176.693,187.057v8.77a3.358,3.358,0,0,1-1.227,2.4,8.532,8.532,0,0,1-.78.643,13.67,13.67,0,0,1-2.008,1.172c-.25.115-.509.238-.781.352a26.794,26.794,0,0,1-3.18,1.119q-.383.115-.777.23c-1.289.345-2.686.658-4.184.927l-.781.138c-1.228.2-2.512.384-3.851.529-.258.023-.516.054-.776.077-.892.092-1.8.161-2.735.222-.259.023-.516.038-.781.054-1.164.062-2.356.1-3.57.123-.258,0-.517.007-.781.007h-.557c-1.133,0-2.248-.023-3.346-.062-.264-.007-.522-.023-.781-.03-1.12-.054-2.218-.13-3.288-.222l-.784-.069c-.741-.068-1.463-.153-2.174-.237-.263-.038-.522-.069-.781-.107-.9-.123-1.78-.261-2.623-.414-.264-.045-.522-.091-.778-.145-.736-.137-1.44-.291-2.123-.459-.263-.062-.522-.123-.776-.192-.849-.215-1.647-.444-2.4-.7-.268-.084-.526-.176-.78-.269a20.227,20.227,0,0,1-2.172-.9c-.277-.13-.536-.268-.786-.406a10.047,10.047,0,0,1-1.668-1.126,5.81,5.81,0,0,1-.786-.8,2.981,2.981,0,0,1-.723-1.854v-8.77Z" transform="translate(-123.157 -179.983)"/><ellipse class="e" cx="26.768" cy="7.077" rx="26.768" ry="7.077" transform="translate(0)"/><path class="f" d="M175.739,181.466c0,2.688-9.837,4.867-21.972,4.867s-21.973-2.179-21.973-4.867,9.838-4.869,21.973-4.869S175.739,178.777,175.739,181.466Z" transform="translate(-126.999 -175.33)"/><path class="g" d="M132.466,182.662c2.407-2.11,11.031-3.671,21.3-3.671s18.894,1.561,21.3,3.671a1.641,1.641,0,0,0,.671-1.2c0-2.689-9.837-4.869-21.972-4.869s-21.973,2.18-21.973,4.869A1.644,1.644,0,0,0,132.466,182.662Z" transform="translate(-126.999 -175.33)"/><g transform="translate(0.723 10.138)"><path class="g" d="M125.245,194.134v7.49a5.806,5.806,0,0,1-.786-.8v-6.694Z" transform="translate(-124.459 -193.268)"/><path class="g" d="M129.664,198.093v6.824c-.277-.13-.536-.268-.786-.406v-6.418Z" transform="translate(-126.425 -195.03)"/><path class="g" d="M134.986,200.522v6.648c-.268-.084-.526-.176-.78-.269v-6.38Z" transform="translate(-128.795 -196.11)"/><path class="g" d="M140.713,202.149v6.633c-.263-.062-.522-.123-.776-.192v-6.442Z" transform="translate(-131.344 -196.834)"/><path class="g" d="M145.936,203.708v6.372c-.264-.045-.522-.091-.778-.145v-6.227Z" transform="translate(-133.666 -197.527)"/><path class="g" d="M152.064,204.743v6.319c-.263-.038-.522-.069-.781-.107v-6.212Z" transform="translate(-136.391 -197.988)"/><path class="g" d="M157.388,204.743v6.626l-.784-.069v-6.556Z" transform="translate(-138.758 -197.988)"/><path class="g" d="M164.721,204.743v6.878c-.264-.007-.522-.023-.781-.03v-6.848Z" transform="translate(-142.021 -197.988)"/><path class="g" d="M173.157,203.708v7.507c-.258,0-.517.007-.781.007v-7.514Z" transform="translate(-145.773 -197.527)"/><path class="g" d="M180.993,202.149v8.2c-.259.023-.516.038-.781.054v-8.249Z" transform="translate(-149.259 -196.834)"/><path class="g" d="M187.32,202.149v7.9c-.258.023-.516.054-.776.077v-7.974Z" transform="translate(-152.076 -196.834)"/><path class="g" d="M195.659,200.522v8.134l-.781.138v-8.272Z" transform="translate(-155.783 -196.11)"/><path class="g" d="M204.6,198.963v7.843q-.383.115-.777.23v-8.073Z" transform="translate(-159.761 -195.417)"/><path class="g" d="M211.73,195.168v8.479c-.25.115-.509.238-.781.352v-8.831Z" transform="translate(-162.931 -193.728)"/><path class="g" d="M216.752,192.575v8.1a8.54,8.54,0,0,1-.78.643v-8.747Z" transform="translate(-165.166 -192.575)"/></g><path class="h" d="M175.466,198.27a8.537,8.537,0,0,1-.78.643,13.674,13.674,0,0,1-2.008,1.172c-.25.115-.509.238-.781.353a27,27,0,0,1-3.18,1.119l-.777.229c-1.289.345-2.686.658-4.184.926-.255.047-.519.092-.781.138-1.228.2-2.512.383-3.851.529-.258.023-.516.053-.776.077-.892.091-1.8.161-2.735.222-.259.023-.516.038-.781.053-1.164.062-2.356.1-3.57.123-.258,0-.517.008-.781.008h-.557c-1.133,0-2.248-.023-3.346-.062-.264-.007-.522-.023-.781-.031-1.12-.054-2.218-.13-3.288-.223l-.784-.068c-.741-.069-1.463-.154-2.174-.238-.263-.038-.522-.069-.781-.108-.9-.122-1.78-.26-2.623-.414-.264-.046-.522-.092-.778-.145-.736-.137-1.44-.291-2.123-.459-.263-.061-.522-.122-.776-.192-.849-.214-1.647-.444-2.4-.7-.268-.084-.526-.176-.78-.268a20.341,20.341,0,0,1-2.172-.9c-.277-.13-.536-.267-.786-.405a10.146,10.146,0,0,1-1.668-1.126,5.84,5.84,0,0,1-.786-.8,2.98,2.98,0,0,1-.723-1.853v3.875a2.981,2.981,0,0,0,.723,1.854,5.81,5.81,0,0,0,.786.8,10.047,10.047,0,0,0,1.668,1.126c.25.138.509.276.786.406a20.224,20.224,0,0,0,2.172.9c.254.093.512.184.78.269.755.253,1.553.482,2.4.7.254.069.512.13.776.192.683.168,1.387.322,2.123.459.255.054.514.1.778.145.842.153,1.722.291,2.623.414.258.038.517.069.781.107.71.084,1.432.169,2.174.237l.784.069c1.07.092,2.169.168,3.288.222.259.007.517.023.781.03,1.1.039,2.212.062,3.346.062h.557c.264,0,.522-.007.781-.007,1.214-.023,2.406-.062,3.57-.123.264-.016.521-.031.781-.054.932-.061,1.843-.13,2.735-.222.26-.023.518-.053.776-.077,1.34-.145,2.624-.33,3.851-.529l.781-.138c1.5-.269,2.9-.582,4.184-.927q.394-.116.777-.23a26.8,26.8,0,0,0,3.18-1.119c.273-.114.531-.237.781-.352a13.67,13.67,0,0,0,2.008-1.172,8.532,8.532,0,0,0,.78-.643,3.358,3.358,0,0,0,1.227-2.4v-3.875A3.357,3.357,0,0,1,175.466,198.27Z" transform="translate(-123.157 -183.904)"/></g><g transform="translate(2.306 10.648)"><path class="d" d="M180.847,166.918v8.77a3.365,3.365,0,0,1-1.227,2.4,8.682,8.682,0,0,1-.781.643,13.509,13.509,0,0,1-2.008,1.171c-.249.115-.509.238-.781.353a26.7,26.7,0,0,1-3.18,1.118c-.255.077-.513.153-.776.23-1.29.344-2.687.658-4.185.926-.255.047-.518.093-.781.139-1.227.2-2.511.383-3.85.528-.259.023-.518.054-.777.077-.892.092-1.8.161-2.734.222-.259.023-.518.038-.781.054-1.165.061-2.355.1-3.569.122-.258,0-.518.008-.78.008h-.559c-1.133,0-2.248-.023-3.346-.061-.263-.008-.522-.023-.781-.031-1.12-.054-2.217-.13-3.288-.222l-.785-.069c-.741-.069-1.463-.153-2.172-.238-.264-.038-.523-.069-.782-.107-.9-.123-1.779-.26-2.623-.414-.264-.046-.522-.092-.776-.145-.736-.137-1.441-.291-2.124-.459-.263-.062-.521-.123-.776-.192-.847-.215-1.647-.444-2.4-.7-.268-.084-.526-.176-.781-.268a20.3,20.3,0,0,1-2.173-.9c-.277-.13-.536-.268-.786-.406a10.221,10.221,0,0,1-1.669-1.126,5.768,5.768,0,0,1-.784-.8,2.98,2.98,0,0,1-.723-1.854v-8.77Z" transform="translate(-127.31 -159.844)"/><path class="e" d="M180.847,161.254c0,3.908-11.985,7.077-26.769,7.077s-26.769-3.169-26.769-7.077,11.985-7.078,26.769-7.078S180.847,157.345,180.847,161.254Z" transform="translate(-127.31 -154.176)"/><path class="f" d="M179.893,161.328c0,2.689-9.836,4.868-21.972,4.868s-21.972-2.179-21.972-4.868,9.837-4.868,21.972-4.868S179.893,158.64,179.893,161.328Z" transform="translate(-131.153 -155.192)"/><path class="g" d="M136.62,162.525c2.408-2.11,11.031-3.671,21.3-3.671s18.894,1.561,21.3,3.671a1.645,1.645,0,0,0,.67-1.2c0-2.688-9.836-4.868-21.972-4.868s-21.972,2.18-21.972,4.868A1.646,1.646,0,0,0,136.62,162.525Z" transform="translate(-131.153 -155.192)"/><g transform="translate(0.723 10.138)"><path class="g" d="M129.4,174v7.49a5.766,5.766,0,0,1-.784-.8V174Z" transform="translate(-128.613 -173.13)"/><path class="g" d="M133.818,177.955v6.824c-.277-.13-.536-.268-.786-.406v-6.418Z" transform="translate(-130.579 -174.891)"/><path class="g" d="M139.142,180.383v6.648c-.268-.084-.526-.176-.781-.268v-6.38Z" transform="translate(-132.949 -175.971)"/><path class="g" d="M144.866,182.011v6.633c-.263-.062-.521-.123-.776-.192v-6.442Z" transform="translate(-135.497 -176.695)"/><path class="g" d="M150.089,183.57v6.372c-.264-.046-.522-.092-.776-.145V183.57Z" transform="translate(-137.821 -177.389)"/><path class="g" d="M156.218,184.6v6.319c-.264-.038-.523-.069-.782-.107V184.6Z" transform="translate(-140.544 -177.849)"/><path class="g" d="M161.541,184.6v6.625l-.785-.069V184.6Z" transform="translate(-142.911 -177.849)"/><path class="g" d="M168.874,184.6v6.878c-.263-.008-.522-.023-.781-.031V184.6Z" transform="translate(-146.174 -177.849)"/><path class="g" d="M177.312,183.57v7.506c-.258,0-.518.008-.78.008V183.57Z" transform="translate(-149.928 -177.389)"/><path class="g" d="M185.147,182.011v8.2c-.259.023-.518.038-.781.054v-8.249Z" transform="translate(-153.413 -176.695)"/><path class="g" d="M191.475,182.011v7.9c-.259.023-.518.054-.777.077v-7.974Z" transform="translate(-156.23 -176.695)"/><path class="g" d="M199.812,180.383v8.134c-.255.047-.518.093-.781.139v-8.273Z" transform="translate(-159.936 -175.971)"/><path class="g" d="M208.752,178.824v7.843c-.255.077-.513.153-.776.23v-8.073Z" transform="translate(-163.915 -175.278)"/><path class="g" d="M215.883,175.03v8.479c-.249.115-.509.238-.781.353V175.03Z" transform="translate(-167.085 -173.59)"/><path class="g" d="M220.906,172.436v8.1a8.679,8.679,0,0,1-.781.643v-8.747Z" transform="translate(-169.319 -172.436)"/></g><path class="h" d="M179.62,178.131a8.5,8.5,0,0,1-.781.643,13.507,13.507,0,0,1-2.008,1.171c-.249.115-.509.238-.781.353a26.7,26.7,0,0,1-3.18,1.119l-.776.23c-1.29.345-2.687.658-4.185.927l-.781.138c-1.227.2-2.511.383-3.85.528-.259.022-.518.054-.777.077-.892.091-1.8.16-2.734.222-.259.023-.518.038-.781.054-1.165.061-2.355.1-3.569.122-.258,0-.518.008-.78.008h-.559c-1.133,0-2.248-.023-3.346-.061-.263-.008-.522-.023-.781-.031-1.12-.054-2.217-.13-3.288-.223l-.785-.068c-.741-.069-1.463-.154-2.172-.238-.264-.039-.523-.069-.782-.108-.9-.122-1.779-.26-2.623-.414-.264-.046-.522-.092-.776-.145-.736-.137-1.441-.291-2.124-.459-.263-.061-.521-.123-.776-.192-.847-.215-1.647-.444-2.4-.7-.268-.085-.526-.177-.781-.268a20.417,20.417,0,0,1-2.173-.9c-.277-.13-.536-.268-.786-.405a10.257,10.257,0,0,1-1.669-1.126,5.8,5.8,0,0,1-.784-.8,2.98,2.98,0,0,1-.723-1.853v3.875a2.98,2.98,0,0,0,.723,1.854,5.769,5.769,0,0,0,.784.8,10.221,10.221,0,0,0,1.669,1.126c.249.138.509.276.786.406a20.3,20.3,0,0,0,2.173.9c.254.092.512.184.781.268.753.253,1.553.482,2.4.7.254.068.513.13.776.192.683.168,1.388.322,2.124.459.254.054.512.1.776.145.844.153,1.722.291,2.623.414.259.038.518.069.782.107.709.084,1.431.169,2.172.238l.785.069c1.071.092,2.168.168,3.288.222.259.008.517.023.781.031,1.1.038,2.213.061,3.346.061h.559c.262,0,.522-.008.78-.008,1.214-.023,2.4-.061,3.569-.122.263-.016.522-.031.781-.054.932-.061,1.843-.13,2.734-.222.259-.023.517-.054.777-.077,1.339-.145,2.623-.329,3.85-.528.263-.046.526-.092.781-.139,1.5-.268,2.9-.582,4.185-.926.263-.077.521-.153.776-.23a26.7,26.7,0,0,0,3.18-1.118c.273-.115.532-.238.781-.353a13.507,13.507,0,0,0,2.008-1.171,8.682,8.682,0,0,0,.781-.643,3.365,3.365,0,0,0,1.227-2.4v-3.875A3.362,3.362,0,0,1,179.62,178.131Z" transform="translate(-127.31 -163.765)"/></g><g transform="translate(5.188)"><path class="d" d="M186.04,147.738v8.77a3.363,3.363,0,0,1-1.227,2.4,8.651,8.651,0,0,1-.782.643,13.586,13.586,0,0,1-2.008,1.172c-.25.115-.509.238-.781.353a26.651,26.651,0,0,1-3.181,1.119c-.254.076-.512.153-.776.229-1.289.345-2.685.658-4.184.927-.254.047-.517.093-.781.138-1.227.2-2.512.383-3.85.529-.26.023-.519.053-.777.077-.893.092-1.8.16-2.736.222-.257.023-.517.039-.779.053-1.165.062-2.356.1-3.57.123-.259,0-.517.008-.78.008h-.559c-1.133,0-2.248-.023-3.347-.062-.262-.008-.521-.023-.779-.031-1.12-.053-2.217-.13-3.289-.222l-.785-.069c-.741-.069-1.463-.154-2.172-.238-.263-.038-.522-.069-.782-.108-.9-.122-1.779-.259-2.623-.414-.263-.045-.522-.091-.777-.145-.736-.137-1.441-.291-2.124-.459-.263-.062-.521-.123-.775-.192-.848-.214-1.647-.444-2.4-.7-.268-.084-.526-.176-.78-.268a20.418,20.418,0,0,1-2.173-.9c-.277-.13-.536-.268-.786-.405a10.162,10.162,0,0,1-1.668-1.126,5.711,5.711,0,0,1-.785-.8,2.979,2.979,0,0,1-.724-1.854v-8.77Z" transform="translate(-132.502 -140.664)"/><path class="e" d="M186.04,142.073c0,3.908-11.985,7.077-26.769,7.077s-26.769-3.169-26.769-7.077S144.487,135,159.271,135,186.04,138.165,186.04,142.073Z" transform="translate(-132.502 -134.996)"/><path class="f" d="M185.086,142.147c0,2.688-9.837,4.867-21.972,4.867s-21.972-2.179-21.972-4.867,9.837-4.868,21.972-4.868S185.086,139.459,185.086,142.147Z" transform="translate(-136.345 -136.012)"/><path class="g" d="M141.813,143.344c2.408-2.11,11.031-3.671,21.3-3.671s18.893,1.561,21.3,3.671a1.645,1.645,0,0,0,.67-1.2c0-2.689-9.837-4.868-21.972-4.868s-21.972,2.18-21.972,4.868A1.644,1.644,0,0,0,141.813,143.344Z" transform="translate(-136.345 -136.012)"/><g transform="translate(0.724 10.138)"><path class="g" d="M134.591,154.815v7.491a5.709,5.709,0,0,1-.785-.8v-6.694Z" transform="translate(-133.806 -153.949)"/><path class="g" d="M139.01,158.774V165.6c-.277-.13-.536-.268-.786-.405v-6.419Z" transform="translate(-135.771 -155.711)"/><path class="g" d="M144.333,161.2v6.649c-.268-.084-.526-.176-.78-.268V161.2Z" transform="translate(-138.142 -156.791)"/><path class="g" d="M150.058,162.831v6.633c-.263-.062-.521-.123-.775-.192v-6.441Z" transform="translate(-140.69 -157.515)"/><path class="g" d="M155.281,164.39v6.372c-.263-.045-.522-.091-.777-.145V164.39Z" transform="translate(-143.013 -158.209)"/><path class="g" d="M161.409,165.424v6.319c-.263-.038-.522-.069-.782-.108v-6.211Z" transform="translate(-145.737 -158.669)"/><path class="g" d="M166.733,165.424v6.626l-.785-.069v-6.557Z" transform="translate(-148.103 -158.669)"/><path class="g" d="M174.065,165.424V172.3c-.262-.008-.521-.023-.779-.031v-6.848Z" transform="translate(-151.367 -158.669)"/><path class="g" d="M182.5,164.39V171.9c-.259,0-.517.008-.78.008V164.39Z" transform="translate(-155.121 -158.209)"/><path class="g" d="M190.339,162.831v8.2c-.257.023-.517.039-.779.053v-8.248Z" transform="translate(-158.606 -157.515)"/><path class="g" d="M196.668,162.831v7.9c-.26.023-.519.053-.777.077v-7.973Z" transform="translate(-161.423 -157.515)"/><path class="g" d="M205,161.2v8.134c-.254.047-.517.093-.781.138V161.2Z" transform="translate(-165.129 -156.791)"/><path class="g" d="M213.943,159.645v7.843c-.254.076-.512.153-.776.229v-8.072Z" transform="translate(-169.107 -156.098)"/><path class="g" d="M221.076,155.85v8.479c-.25.115-.509.238-.781.353V155.85Z" transform="translate(-172.278 -154.41)"/><path class="g" d="M226.1,153.256v8.1a8.642,8.642,0,0,1-.782.643v-8.747Z" transform="translate(-174.512 -153.256)"/></g><path class="h" d="M184.813,158.951a8.741,8.741,0,0,1-.782.643,13.638,13.638,0,0,1-2.008,1.171c-.25.115-.509.237-.781.353a26.841,26.841,0,0,1-3.181,1.119c-.254.076-.512.153-.776.229-1.289.345-2.685.658-4.184.927-.254.047-.517.093-.781.139-1.227.2-2.512.383-3.85.529-.26.022-.519.053-.777.076-.893.091-1.8.161-2.736.222-.257.023-.517.038-.779.054-1.165.061-2.356.1-3.57.123-.259,0-.517.007-.78.007h-.559c-1.133,0-2.248-.023-3.347-.062-.262-.007-.521-.023-.779-.031-1.12-.053-2.217-.13-3.289-.223l-.785-.068c-.741-.069-1.463-.154-2.172-.238-.263-.038-.522-.069-.782-.107-.9-.122-1.779-.26-2.623-.414-.263-.045-.522-.092-.777-.145-.736-.138-1.441-.291-2.124-.459-.263-.062-.521-.123-.775-.191-.848-.215-1.647-.445-2.4-.7-.268-.084-.526-.176-.78-.268a20.3,20.3,0,0,1-2.173-.9c-.277-.13-.536-.268-.786-.406a10.158,10.158,0,0,1-1.668-1.126,5.739,5.739,0,0,1-.785-.8,2.982,2.982,0,0,1-.724-1.854v3.876a2.979,2.979,0,0,0,.724,1.854,5.712,5.712,0,0,0,.785.8,10.162,10.162,0,0,0,1.668,1.126c.25.138.509.275.786.405a20.415,20.415,0,0,0,2.173.9c.254.092.512.184.78.268.754.253,1.553.483,2.4.7.254.069.512.13.775.192.683.168,1.388.321,2.124.459.255.054.514.1.777.145.843.154,1.722.292,2.623.414.259.039.519.069.782.108.709.084,1.432.169,2.172.238l.785.069c1.072.092,2.169.169,3.289.222.258.008.517.023.779.031,1.1.038,2.214.062,3.347.062h.559c.263,0,.521-.008.78-.008,1.214-.023,2.405-.062,3.57-.123.263-.014.522-.03.779-.053.933-.061,1.843-.13,2.736-.222.258-.023.516-.054.777-.077,1.337-.146,2.623-.33,3.85-.529.263-.046.526-.092.781-.138,1.5-.268,2.9-.582,4.184-.927.264-.076.522-.153.776-.229a26.646,26.646,0,0,0,3.181-1.119c.271-.115.531-.237.781-.353a13.585,13.585,0,0,0,2.008-1.172,8.648,8.648,0,0,0,.782-.643,3.363,3.363,0,0,0,1.227-2.4v-3.876A3.363,3.363,0,0,1,184.813,158.951Z" transform="translate(-132.502 -144.585)"/></g></g><g transform="translate(66.836 45.149)"><g transform="translate(2.306 32.478)"><path class="d" d="M292.195,206.238v8.769a3.364,3.364,0,0,1-1.227,2.4,8.566,8.566,0,0,1-.781.643,13.534,13.534,0,0,1-2.008,1.171c-.249.115-.508.237-.781.352a26.763,26.763,0,0,1-3.181,1.119c-.254.076-.512.153-.776.229-1.29.345-2.687.659-4.184.927l-.781.138c-1.227.2-2.512.383-3.85.529-.258.022-.518.054-.776.077-.893.091-1.8.16-2.735.222-.259.023-.518.039-.781.054-1.165.062-2.355.1-3.57.123-.259,0-.517.007-.779.007h-.559c-1.133,0-2.248-.023-3.346-.062-.264-.007-.522-.023-.781-.031-1.12-.053-2.217-.13-3.287-.223l-.786-.068c-.741-.069-1.463-.153-2.173-.237-.263-.039-.521-.069-.781-.108-.9-.122-1.779-.26-2.622-.413-.264-.046-.523-.092-.777-.145-.736-.138-1.441-.291-2.124-.459-.263-.062-.522-.123-.776-.191-.847-.215-1.646-.445-2.4-.7-.268-.085-.526-.177-.781-.269a20.3,20.3,0,0,1-2.172-.9c-.277-.13-.537-.268-.786-.406a10.144,10.144,0,0,1-1.668-1.126,5.834,5.834,0,0,1-.785-.8,2.985,2.985,0,0,1-.724-1.854v-8.769Z" transform="translate(-238.657 -199.163)"/><path class="e" d="M292.195,200.572c0,3.909-11.985,7.077-26.769,7.077s-26.769-3.168-26.769-7.077,11.985-7.077,26.769-7.077S292.195,196.664,292.195,200.572Z" transform="translate(-238.657 -193.495)"/><path class="f" d="M291.242,200.646c0,2.688-9.837,4.867-21.972,4.867s-21.972-2.18-21.972-4.867,9.837-4.868,21.972-4.868S291.242,197.958,291.242,200.646Z" transform="translate(-242.501 -194.511)"/><path class="g" d="M247.968,201.843c2.408-2.11,11.031-3.672,21.3-3.672s18.893,1.562,21.3,3.672a1.645,1.645,0,0,0,.67-1.2c0-2.689-9.837-4.868-21.972-4.868s-21.972,2.18-21.972,4.868A1.645,1.645,0,0,0,247.968,201.843Z" transform="translate(-242.501 -194.511)"/><g transform="translate(0.724 10.138)"><path class="g" d="M240.746,213.314v7.491a5.835,5.835,0,0,1-.785-.8v-6.695Z" transform="translate(-239.961 -212.448)"/><path class="g" d="M245.166,217.274V224.1c-.277-.13-.537-.268-.786-.406v-6.418Z" transform="translate(-241.927 -214.21)"/><path class="g" d="M250.489,219.7v6.649c-.268-.085-.526-.177-.781-.269V219.7Z" transform="translate(-244.297 -215.29)"/><path class="g" d="M256.213,221.33v6.633c-.263-.062-.522-.123-.776-.191V221.33Z" transform="translate(-246.845 -216.014)"/><path class="g" d="M261.438,222.889v6.372c-.264-.046-.523-.092-.777-.145v-6.227Z" transform="translate(-249.169 -216.708)"/><path class="g" d="M267.564,223.924v6.319c-.263-.039-.521-.069-.781-.108v-6.211Z" transform="translate(-251.892 -217.168)"/><path class="g" d="M272.89,223.924v6.624l-.786-.068v-6.556Z" transform="translate(-254.259 -217.168)"/><path class="g" d="M280.222,223.924V230.8c-.264-.007-.522-.023-.781-.031v-6.847Z" transform="translate(-257.522 -217.168)"/><path class="g" d="M288.659,222.889V230.4c-.259,0-.517.007-.779.007v-7.514Z" transform="translate(-261.276 -216.708)"/><path class="g" d="M296.5,221.33v8.2c-.259.023-.518.039-.781.054V221.33Z" transform="translate(-264.761 -216.014)"/><path class="g" d="M302.823,221.33v7.9c-.258.022-.518.054-.776.077V221.33Z" transform="translate(-267.578 -216.014)"/><path class="g" d="M311.16,219.7v8.135l-.781.138V219.7Z" transform="translate(-271.284 -215.29)"/><path class="g" d="M320.1,218.143v7.844c-.254.076-.512.153-.776.229v-8.073Z" transform="translate(-275.263 -214.597)"/><path class="g" d="M327.231,214.35v8.478c-.249.115-.508.237-.781.352v-8.83Z" transform="translate(-278.433 -212.909)"/><path class="g" d="M332.254,211.755v8.1a8.577,8.577,0,0,1-.781.643v-8.747Z" transform="translate(-280.667 -211.755)"/></g><path class="h" d="M290.968,217.45a8.563,8.563,0,0,1-.781.642,13.437,13.437,0,0,1-2.008,1.172c-.249.115-.508.238-.781.353a26.769,26.769,0,0,1-3.181,1.119l-.776.23c-1.29.344-2.687.658-4.184.926-.255.047-.518.092-.781.138-1.227.2-2.512.383-3.85.529-.258.023-.518.053-.776.076-.893.092-1.8.162-2.735.223-.259.023-.518.038-.781.054-1.165.061-2.355.1-3.57.122-.259,0-.517.007-.779.007h-.559c-1.133,0-2.248-.022-3.346-.061-.264-.008-.522-.023-.781-.032-1.12-.053-2.217-.13-3.287-.222l-.786-.068c-.741-.069-1.463-.154-2.173-.238-.263-.038-.521-.069-.781-.108-.9-.122-1.779-.26-2.622-.414-.264-.046-.523-.092-.777-.145-.736-.137-1.441-.291-2.124-.46-.263-.061-.522-.123-.776-.191-.847-.215-1.646-.445-2.4-.7-.268-.084-.526-.176-.781-.268a20.294,20.294,0,0,1-2.172-.9c-.277-.13-.537-.268-.786-.406a10.178,10.178,0,0,1-1.668-1.126,5.8,5.8,0,0,1-.785-.8,2.984,2.984,0,0,1-.724-1.854v3.876a2.985,2.985,0,0,0,.724,1.854,5.833,5.833,0,0,0,.785.8,10.141,10.141,0,0,0,1.668,1.126c.249.138.509.276.786.406a20.294,20.294,0,0,0,2.172.9c.255.092.512.184.781.269.754.252,1.553.482,2.4.7.254.068.514.129.776.191.683.168,1.388.321,2.124.459.254.054.512.1.777.145.843.153,1.722.291,2.622.413.26.039.519.069.781.108.709.084,1.432.168,2.173.237l.786.068c1.07.092,2.167.169,3.287.223.259.008.517.023.781.031,1.1.039,2.212.062,3.346.062h.559c.262,0,.521-.007.779-.007,1.215-.024,2.405-.062,3.57-.123.263-.015.522-.031.781-.054.932-.061,1.841-.13,2.735-.222.258-.023.517-.054.776-.077,1.339-.145,2.623-.33,3.85-.529l.781-.138c1.5-.268,2.895-.582,4.184-.927.264-.077.522-.154.776-.229a26.766,26.766,0,0,0,3.181-1.119c.273-.115.531-.237.781-.352a13.534,13.534,0,0,0,2.008-1.171,8.566,8.566,0,0,0,.781-.643,3.364,3.364,0,0,0,1.227-2.4v-3.876A3.368,3.368,0,0,1,290.968,217.45Z" transform="translate(-238.657 -203.084)"/></g><g transform="translate(0 21.829)"><path class="d" d="M288.041,187.057v8.77a3.359,3.359,0,0,1-1.226,2.4,8.541,8.541,0,0,1-.781.643,13.62,13.62,0,0,1-2.008,1.172c-.249.115-.509.238-.781.352a26.7,26.7,0,0,1-3.181,1.119q-.381.115-.776.23c-1.289.345-2.686.658-4.184.927l-.782.138c-1.227.2-2.512.384-3.85.529-.259.023-.517.054-.776.077-.893.092-1.8.161-2.735.222-.259.023-.517.038-.781.054-1.164.062-2.356.1-3.57.123-.258,0-.517.007-.78.007h-.557c-1.134,0-2.249-.023-3.347-.062-.263-.007-.521-.023-.781-.03-1.12-.054-2.217-.13-3.288-.222l-.786-.069c-.741-.068-1.463-.153-2.172-.237-.264-.038-.522-.069-.781-.107-.9-.123-1.78-.261-2.623-.414-.263-.045-.522-.091-.777-.145-.736-.137-1.441-.291-2.124-.459-.263-.062-.522-.123-.776-.192-.848-.215-1.647-.444-2.4-.7-.268-.084-.526-.176-.78-.269a20.178,20.178,0,0,1-2.172-.9c-.277-.13-.536-.268-.786-.406a10.076,10.076,0,0,1-1.668-1.126,5.8,5.8,0,0,1-.785-.8,2.982,2.982,0,0,1-.723-1.854v-8.77Z" transform="translate(-234.504 -179.983)"/><path class="e" d="M288.041,181.392c0,3.908-11.985,7.077-26.768,7.077S234.5,185.3,234.5,181.392s11.985-7.077,26.769-7.077S288.041,177.483,288.041,181.392Z" transform="translate(-234.504 -174.315)"/><path class="f" d="M287.088,181.466c0,2.688-9.838,4.867-21.972,4.867s-21.972-2.179-21.972-4.867,9.837-4.869,21.972-4.869S287.088,178.777,287.088,181.466Z" transform="translate(-238.347 -175.33)"/><path class="g" d="M243.815,182.662c2.408-2.11,11.031-3.671,21.3-3.671s18.893,1.561,21.3,3.671a1.641,1.641,0,0,0,.671-1.2c0-2.689-9.838-4.869-21.972-4.869s-21.972,2.18-21.972,4.869A1.641,1.641,0,0,0,243.815,182.662Z" transform="translate(-238.347 -175.33)"/><g transform="translate(0.723 10.138)"><path class="g" d="M236.592,194.134v7.49a5.8,5.8,0,0,1-.785-.8v-6.694Z" transform="translate(-235.807 -193.268)"/><path class="g" d="M241.012,198.093v6.824c-.277-.13-.536-.268-.786-.406v-6.418Z" transform="translate(-237.773 -195.03)"/><path class="g" d="M246.334,200.522v6.648c-.268-.084-.526-.176-.78-.269v-6.38Z" transform="translate(-240.143 -196.11)"/><path class="g" d="M252.06,202.149v6.633c-.263-.062-.522-.123-.776-.192v-6.442Z" transform="translate(-242.691 -196.834)"/><path class="g" d="M257.284,203.708v6.372c-.263-.045-.522-.091-.777-.145v-6.227Z" transform="translate(-245.015 -197.527)"/><path class="g" d="M263.412,204.743v6.319c-.264-.038-.522-.069-.781-.107v-6.212Z" transform="translate(-247.739 -197.988)"/><path class="g" d="M268.736,204.743v6.626l-.786-.069v-6.556Z" transform="translate(-250.105 -197.988)"/><path class="g" d="M276.068,204.743v6.878c-.263-.007-.521-.023-.781-.03v-6.848Z" transform="translate(-253.368 -197.988)"/><path class="g" d="M284.505,203.708v7.507c-.258,0-.517.007-.78.007v-7.514Z" transform="translate(-257.122 -197.527)"/><path class="g" d="M292.341,202.149v8.2c-.259.023-.517.038-.781.054v-8.249Z" transform="translate(-260.607 -196.834)"/><path class="g" d="M298.668,202.149v7.9c-.259.023-.517.054-.776.077v-7.974Z" transform="translate(-263.424 -196.834)"/><path class="g" d="M307.007,200.522v8.134l-.782.138v-8.272Z" transform="translate(-267.13 -196.11)"/><path class="g" d="M315.946,198.963v7.843c-.254.077-.512.153-.776.23v-8.073Z" transform="translate(-271.109 -195.417)"/><path class="g" d="M323.078,195.168v8.479c-.249.115-.509.238-.781.352v-8.831Z" transform="translate(-274.279 -193.728)"/><path class="g" d="M328.1,192.575v8.1a8.559,8.559,0,0,1-.781.643v-8.747Z" transform="translate(-276.514 -192.575)"/></g><path class="h" d="M286.814,198.27a8.546,8.546,0,0,1-.781.643,13.624,13.624,0,0,1-2.008,1.172c-.249.115-.509.238-.781.353a26.906,26.906,0,0,1-3.181,1.119q-.381.114-.776.229c-1.289.345-2.686.658-4.184.926-.255.047-.519.092-.782.138-1.227.2-2.512.383-3.85.529-.259.023-.517.053-.776.077-.893.091-1.8.161-2.735.222-.259.023-.517.038-.781.053-1.164.062-2.356.1-3.57.123-.258,0-.517.008-.78.008h-.557c-1.134,0-2.249-.023-3.347-.062-.263-.007-.521-.023-.781-.031-1.12-.054-2.217-.13-3.288-.223l-.786-.068c-.741-.069-1.463-.154-2.172-.238-.264-.038-.522-.069-.781-.108-.9-.122-1.78-.26-2.623-.414-.263-.046-.522-.092-.777-.145-.736-.137-1.441-.291-2.124-.459-.263-.061-.522-.122-.776-.192-.848-.214-1.647-.444-2.4-.7-.268-.084-.526-.176-.78-.268a20.292,20.292,0,0,1-2.172-.9c-.277-.13-.536-.267-.786-.405a10.175,10.175,0,0,1-1.668-1.126,5.834,5.834,0,0,1-.785-.8,2.981,2.981,0,0,1-.723-1.853v3.875a2.981,2.981,0,0,0,.723,1.854,5.8,5.8,0,0,0,.785.8,10.076,10.076,0,0,0,1.668,1.126c.25.138.509.276.786.406a20.175,20.175,0,0,0,2.172.9c.254.093.512.184.78.269.754.253,1.553.482,2.4.7.254.069.513.13.776.192.683.168,1.388.322,2.124.459.255.054.514.1.777.145.843.153,1.722.291,2.623.414.258.038.517.069.781.107.709.084,1.432.169,2.172.237l.786.069c1.071.092,2.168.168,3.288.222.259.007.518.023.781.03,1.1.039,2.213.062,3.347.062h.557c.263,0,.522-.007.78-.007,1.214-.023,2.406-.062,3.57-.123.264-.016.522-.031.781-.054.932-.061,1.842-.13,2.735-.222.259-.023.517-.053.776-.077,1.339-.145,2.623-.33,3.85-.529l.782-.138c1.5-.269,2.9-.582,4.184-.927q.395-.116.776-.23a26.707,26.707,0,0,0,3.181-1.119c.272-.114.532-.237.781-.352a13.62,13.62,0,0,0,2.008-1.172,8.541,8.541,0,0,0,.781-.643,3.359,3.359,0,0,0,1.226-2.4v-3.875A3.358,3.358,0,0,1,286.814,198.27Z" transform="translate(-234.504 -183.904)"/></g><g transform="translate(2.306 10.648)"><path class="d" d="M292.195,166.918v8.77a3.367,3.367,0,0,1-1.227,2.4,8.756,8.756,0,0,1-.781.643,13.485,13.485,0,0,1-2.008,1.171c-.249.115-.508.238-.781.353a26.674,26.674,0,0,1-3.181,1.118c-.254.077-.512.153-.776.23-1.29.344-2.687.658-4.184.926-.255.047-.518.093-.781.139-1.227.2-2.512.383-3.85.528-.258.023-.518.054-.776.077-.893.092-1.8.161-2.735.222-.259.023-.518.038-.781.054-1.165.061-2.355.1-3.57.122-.259,0-.517.008-.779.008h-.559c-1.133,0-2.248-.023-3.346-.061-.264-.008-.522-.023-.781-.031-1.12-.054-2.217-.13-3.287-.222l-.786-.069c-.741-.069-1.463-.153-2.173-.238-.263-.038-.521-.069-.781-.107-.9-.123-1.779-.26-2.622-.414-.264-.046-.523-.092-.777-.145-.736-.137-1.441-.291-2.124-.459-.263-.062-.522-.123-.776-.192-.847-.215-1.646-.444-2.4-.7-.268-.084-.526-.176-.781-.268a20.288,20.288,0,0,1-2.172-.9c-.277-.13-.537-.268-.786-.406a10.143,10.143,0,0,1-1.668-1.126,5.743,5.743,0,0,1-.785-.8,2.981,2.981,0,0,1-.724-1.854v-8.77Z" transform="translate(-238.657 -159.844)"/><path class="e" d="M292.195,161.254c0,3.908-11.985,7.077-26.769,7.077s-26.769-3.169-26.769-7.077,11.985-7.078,26.769-7.078S292.195,157.345,292.195,161.254Z" transform="translate(-238.657 -154.176)"/><path class="f" d="M291.242,161.328c0,2.689-9.837,4.868-21.972,4.868s-21.972-2.179-21.972-4.868,9.837-4.868,21.972-4.868S291.242,158.64,291.242,161.328Z" transform="translate(-242.501 -155.192)"/><path class="g" d="M247.968,162.525c2.408-2.11,11.031-3.671,21.3-3.671s18.893,1.561,21.3,3.671a1.645,1.645,0,0,0,.67-1.2c0-2.688-9.837-4.868-21.972-4.868s-21.972,2.18-21.972,4.868A1.645,1.645,0,0,0,247.968,162.525Z" transform="translate(-242.501 -155.192)"/><g transform="translate(0.724 10.138)"><path class="g" d="M240.746,174v7.49a5.744,5.744,0,0,1-.785-.8V174Z" transform="translate(-239.961 -173.13)"/><path class="g" d="M245.166,177.955v6.824c-.277-.13-.537-.268-.786-.406v-6.418Z" transform="translate(-241.927 -174.891)"/><path class="g" d="M250.489,180.383v6.648c-.268-.084-.526-.176-.781-.268v-6.38Z" transform="translate(-244.297 -175.971)"/><path class="g" d="M256.213,182.011v6.633c-.263-.062-.522-.123-.776-.192v-6.442Z" transform="translate(-246.845 -176.695)"/><path class="g" d="M261.438,183.57v6.372c-.264-.046-.523-.092-.777-.145V183.57Z" transform="translate(-249.169 -177.389)"/><path class="g" d="M267.564,184.6v6.319c-.263-.038-.521-.069-.781-.107V184.6Z" transform="translate(-251.892 -177.849)"/><path class="g" d="M272.89,184.6v6.625l-.786-.069V184.6Z" transform="translate(-254.259 -177.849)"/><path class="g" d="M280.222,184.6v6.878c-.264-.008-.522-.023-.781-.031V184.6Z" transform="translate(-257.522 -177.849)"/><path class="g" d="M288.659,183.57v7.506c-.259,0-.517.008-.779.008V183.57Z" transform="translate(-261.276 -177.389)"/><path class="g" d="M296.5,182.011v8.2c-.259.023-.518.038-.781.054v-8.249Z" transform="translate(-264.761 -176.695)"/><path class="g" d="M302.823,182.011v7.9c-.258.023-.518.054-.776.077v-7.974Z" transform="translate(-267.578 -176.695)"/><path class="g" d="M311.16,180.383v8.134c-.255.047-.518.093-.781.139v-8.273Z" transform="translate(-271.284 -175.971)"/><path class="g" d="M320.1,178.824v7.843c-.254.077-.512.153-.776.23v-8.073Z" transform="translate(-275.263 -175.278)"/><path class="g" d="M327.231,175.03v8.479c-.249.115-.508.238-.781.353V175.03Z" transform="translate(-278.433 -173.59)"/><path class="g" d="M332.254,172.436v8.1a8.762,8.762,0,0,1-.781.643v-8.747Z" transform="translate(-280.667 -172.436)"/></g><path class="h" d="M290.968,178.131a8.566,8.566,0,0,1-.781.643,13.482,13.482,0,0,1-2.008,1.171c-.249.115-.508.238-.781.353a26.671,26.671,0,0,1-3.181,1.119l-.776.23c-1.29.345-2.687.658-4.184.927l-.781.138c-1.227.2-2.512.383-3.85.528-.258.022-.518.054-.776.077-.893.091-1.8.16-2.735.222-.259.023-.518.038-.781.054-1.165.061-2.355.1-3.57.122-.259,0-.517.008-.779.008h-.559c-1.133,0-2.248-.023-3.346-.061-.264-.008-.522-.023-.781-.031-1.12-.054-2.217-.13-3.287-.223l-.786-.068c-.741-.069-1.463-.154-2.173-.238-.263-.039-.521-.069-.781-.108-.9-.122-1.779-.26-2.622-.414-.264-.046-.523-.092-.777-.145-.736-.137-1.441-.291-2.124-.459-.263-.061-.522-.123-.776-.192-.847-.215-1.646-.444-2.4-.7-.268-.085-.526-.177-.781-.268a20.406,20.406,0,0,1-2.172-.9c-.277-.13-.537-.268-.786-.405a10.178,10.178,0,0,1-1.668-1.126,5.774,5.774,0,0,1-.785-.8,2.981,2.981,0,0,1-.724-1.853v3.875a2.981,2.981,0,0,0,.724,1.854,5.744,5.744,0,0,0,.785.8,10.143,10.143,0,0,0,1.668,1.126c.249.138.509.276.786.406a20.294,20.294,0,0,0,2.172.9c.255.092.512.184.781.268.754.253,1.553.482,2.4.7.254.068.514.13.776.192.683.168,1.388.322,2.124.459.254.054.512.1.777.145.843.153,1.722.291,2.622.414.26.038.519.069.781.107.709.084,1.432.169,2.173.238l.786.069c1.07.092,2.167.168,3.287.222.259.008.517.023.781.031,1.1.038,2.212.061,3.346.061h.559c.262,0,.521-.008.779-.008,1.215-.023,2.405-.061,3.57-.122.263-.016.522-.031.781-.054.932-.061,1.841-.13,2.735-.222.258-.023.517-.054.776-.077,1.339-.145,2.623-.329,3.85-.528.263-.046.526-.092.781-.139,1.5-.268,2.895-.582,4.184-.926.264-.077.522-.153.776-.23a26.677,26.677,0,0,0,3.181-1.118c.273-.115.531-.238.781-.353a13.482,13.482,0,0,0,2.008-1.171,8.756,8.756,0,0,0,.781-.643,3.367,3.367,0,0,0,1.227-2.4v-3.875A3.364,3.364,0,0,1,290.968,178.131Z" transform="translate(-238.657 -163.765)"/></g><g transform="translate(5.189)"><path class="d" d="M297.387,147.738v8.77a3.363,3.363,0,0,1-1.227,2.4,8.642,8.642,0,0,1-.781.643,13.615,13.615,0,0,1-2.008,1.172c-.25.115-.509.238-.781.353a26.72,26.72,0,0,1-3.181,1.119c-.254.076-.512.153-.776.229-1.289.345-2.686.658-4.185.927-.254.047-.517.093-.781.138-1.227.2-2.511.383-3.849.529-.26.023-.519.053-.777.077-.893.092-1.8.16-2.735.222-.258.023-.517.039-.78.053-1.164.062-2.355.1-3.57.123-.259,0-.517.008-.78.008h-.558c-1.133,0-2.248-.023-3.346-.062-.263-.008-.521-.023-.781-.031-1.12-.053-2.217-.13-3.288-.222l-.785-.069c-.741-.069-1.463-.154-2.172-.238-.263-.038-.522-.069-.782-.108-.9-.122-1.779-.259-2.623-.414-.263-.045-.522-.091-.777-.145-.736-.137-1.441-.291-2.124-.459-.262-.062-.521-.123-.775-.192-.849-.214-1.647-.444-2.4-.7-.269-.084-.527-.176-.781-.268a20.369,20.369,0,0,1-2.173-.9c-.277-.13-.536-.268-.786-.405a10.145,10.145,0,0,1-1.668-1.126,5.766,5.766,0,0,1-.784-.8,2.979,2.979,0,0,1-.724-1.854v-8.77Z" transform="translate(-243.85 -140.664)"/><path class="e" d="M297.387,142.073c0,3.908-11.985,7.077-26.769,7.077s-26.769-3.169-26.769-7.077S255.835,135,270.619,135,297.387,138.165,297.387,142.073Z" transform="translate(-243.85 -134.996)"/><path class="f" d="M296.434,142.147c0,2.688-9.837,4.867-21.972,4.867s-21.972-2.179-21.972-4.867,9.837-4.868,21.972-4.868S296.434,139.459,296.434,142.147Z" transform="translate(-247.693 -136.012)"/><path class="g" d="M253.161,143.344c2.408-2.11,11.031-3.671,21.3-3.671s18.893,1.561,21.3,3.671a1.644,1.644,0,0,0,.671-1.2c0-2.689-9.837-4.868-21.972-4.868s-21.972,2.18-21.972,4.868A1.643,1.643,0,0,0,253.161,143.344Z" transform="translate(-247.693 -136.012)"/><g transform="translate(0.724 10.138)"><path class="g" d="M245.938,154.815v7.491a5.764,5.764,0,0,1-.784-.8v-6.694Z" transform="translate(-245.154 -153.949)"/><path class="g" d="M250.358,158.774V165.6c-.277-.13-.536-.268-.786-.405v-6.419Z" transform="translate(-247.119 -155.711)"/><path class="g" d="M255.682,161.2v6.649c-.269-.084-.527-.176-.781-.268V161.2Z" transform="translate(-249.49 -156.791)"/><path class="g" d="M261.405,162.831v6.633c-.262-.062-.521-.123-.774-.192v-6.441Z" transform="translate(-252.038 -157.515)"/><path class="g" d="M266.629,164.39v6.372c-.263-.045-.522-.091-.777-.145V164.39Z" transform="translate(-254.361 -158.209)"/><path class="g" d="M272.757,165.424v6.319c-.263-.038-.522-.069-.782-.108v-6.211Z" transform="translate(-257.085 -158.669)"/><path class="g" d="M278.081,165.424v6.626l-.785-.069v-6.557Z" transform="translate(-259.451 -158.669)"/><path class="g" d="M285.414,165.424V172.3c-.263-.008-.521-.023-.781-.031v-6.848Z" transform="translate(-262.715 -158.669)"/><path class="g" d="M293.851,164.39V171.9c-.259,0-.517.008-.78.008V164.39Z" transform="translate(-266.468 -158.209)"/><path class="g" d="M301.686,162.831v8.2c-.258.023-.517.039-.78.053v-8.248Z" transform="translate(-269.954 -157.515)"/><path class="g" d="M308.015,162.831v7.9c-.26.023-.519.053-.777.077v-7.973Z" transform="translate(-272.77 -157.515)"/><path class="g" d="M316.352,161.2v8.134c-.254.047-.517.093-.781.138V161.2Z" transform="translate(-276.477 -156.791)"/><path class="g" d="M325.291,159.645v7.843c-.254.076-.512.153-.776.229v-8.072Z" transform="translate(-280.455 -156.098)"/><path class="g" d="M332.424,155.85v8.479c-.25.115-.509.238-.781.353V155.85Z" transform="translate(-283.626 -154.41)"/><path class="g" d="M337.446,153.256v8.1a8.624,8.624,0,0,1-.781.643v-8.747Z" transform="translate(-285.86 -153.256)"/></g><path class="h" d="M296.16,158.951a8.732,8.732,0,0,1-.781.643,13.666,13.666,0,0,1-2.008,1.171c-.25.115-.509.237-.781.353a26.911,26.911,0,0,1-3.181,1.119c-.254.076-.512.153-.776.229-1.289.345-2.686.658-4.185.927-.254.047-.517.093-.781.139-1.227.2-2.511.383-3.849.529-.26.022-.519.053-.777.076-.893.091-1.8.161-2.735.222-.258.023-.517.038-.78.054-1.164.061-2.355.1-3.57.123-.259,0-.517.007-.78.007h-.558c-1.133,0-2.248-.023-3.346-.062-.263-.007-.521-.023-.781-.031-1.12-.053-2.217-.13-3.288-.223l-.785-.068c-.741-.069-1.463-.154-2.172-.238-.263-.038-.522-.069-.782-.107-.9-.122-1.779-.26-2.623-.414-.263-.045-.522-.092-.777-.145-.736-.138-1.441-.291-2.124-.459-.262-.062-.521-.123-.775-.191-.849-.215-1.647-.445-2.4-.7-.269-.084-.527-.176-.781-.268a20.254,20.254,0,0,1-2.173-.9c-.277-.13-.536-.268-.786-.406a10.141,10.141,0,0,1-1.668-1.126,5.8,5.8,0,0,1-.784-.8,2.982,2.982,0,0,1-.724-1.854v3.876a2.979,2.979,0,0,0,.724,1.854,5.767,5.767,0,0,0,.784.8,10.145,10.145,0,0,0,1.668,1.126c.25.138.509.275.786.405a20.366,20.366,0,0,0,2.173.9c.254.092.512.184.781.268.753.253,1.552.483,2.4.7.254.069.512.13.775.192.683.168,1.388.321,2.124.459.255.054.514.1.777.145.843.154,1.722.292,2.623.414.259.039.519.069.782.108.709.084,1.432.169,2.172.238l.785.069c1.072.092,2.169.169,3.288.222.259.008.517.023.781.031,1.1.038,2.213.062,3.346.062h.558c.263,0,.521-.008.78-.008,1.215-.023,2.406-.062,3.57-.123.263-.014.522-.03.78-.053.932-.061,1.843-.13,2.735-.222.259-.023.517-.054.777-.077,1.338-.146,2.622-.33,3.849-.529.264-.046.526-.092.781-.138,1.5-.268,2.9-.582,4.185-.927.264-.076.522-.153.776-.229a26.715,26.715,0,0,0,3.181-1.119c.271-.115.531-.237.781-.353a13.613,13.613,0,0,0,2.008-1.172,8.639,8.639,0,0,0,.781-.643,3.363,3.363,0,0,0,1.227-2.4v-3.876A3.363,3.363,0,0,1,296.16,158.951Z" transform="translate(-243.85 -144.585)"/></g></g><g transform="translate(68.545 0)"><g transform="translate(2.306 32.478)"><path class="d" d="M295.275,124.914v8.77a3.361,3.361,0,0,1-1.227,2.4,8.5,8.5,0,0,1-.782.644,13.528,13.528,0,0,1-2.008,1.171c-.25.115-.509.238-.781.353a26.812,26.812,0,0,1-3.181,1.119c-.254.076-.512.153-.776.229-1.29.344-2.686.658-4.184.927-.255.046-.518.092-.781.138-1.228.2-2.512.384-3.85.529-.259.023-.518.053-.776.077-.892.092-1.8.161-2.735.222-.259.023-.518.038-.781.053-1.165.063-2.356.1-3.57.123-.259,0-.517.008-.78.008h-.559c-1.133,0-2.248-.023-3.346-.062-.264-.007-.522-.023-.781-.031-1.119-.054-2.217-.13-3.287-.222l-.786-.069c-.74-.069-1.463-.153-2.172-.238-.263-.038-.522-.069-.782-.108-.9-.122-1.779-.26-2.622-.414-.264-.045-.522-.091-.776-.145-.736-.138-1.441-.291-2.125-.459-.263-.062-.521-.123-.776-.192-.847-.214-1.647-.445-2.4-.7-.268-.084-.525-.177-.781-.269a20.394,20.394,0,0,1-2.172-.9c-.277-.13-.536-.268-.785-.406a10.179,10.179,0,0,1-1.669-1.126,5.736,5.736,0,0,1-.784-.8,2.979,2.979,0,0,1-.724-1.854v-8.77Z" transform="translate(-241.737 -117.84)"/><path class="e" d="M295.275,119.249c0,3.909-11.985,7.077-26.769,7.077s-26.769-3.168-26.769-7.077,11.985-7.077,26.769-7.077S295.275,115.34,295.275,119.249Z" transform="translate(-241.737 -112.172)"/><path class="f" d="M294.321,119.323c0,2.688-9.837,4.867-21.972,4.867s-21.972-2.18-21.972-4.867,9.837-4.868,21.972-4.868S294.321,116.634,294.321,119.323Z" transform="translate(-245.58 -113.188)"/><path class="g" d="M251.047,120.52c2.409-2.11,11.031-3.672,21.3-3.672s18.893,1.562,21.3,3.672a1.646,1.646,0,0,0,.671-1.2c0-2.689-9.837-4.868-21.972-4.868s-21.972,2.179-21.972,4.868A1.645,1.645,0,0,0,251.047,120.52Z" transform="translate(-245.58 -113.188)"/><g transform="translate(0.724 10.138)"><path class="g" d="M243.825,131.991v7.491a5.736,5.736,0,0,1-.784-.8v-6.694Z" transform="translate(-243.041 -131.125)"/><path class="g" d="M248.246,135.951v6.824c-.277-.13-.536-.268-.785-.406v-6.418Z" transform="translate(-245.007 -132.887)"/><path class="g" d="M253.568,138.379v6.649c-.268-.084-.525-.177-.781-.269v-6.38Z" transform="translate(-247.376 -133.967)"/><path class="g" d="M259.293,140.007v6.633c-.263-.062-.521-.123-.776-.192v-6.442Z" transform="translate(-249.925 -134.691)"/><path class="g" d="M264.517,141.565v6.372c-.264-.045-.522-.091-.776-.145v-6.227Z" transform="translate(-252.249 -135.384)"/><path class="g" d="M270.644,142.6v6.319c-.263-.038-.522-.069-.782-.108V142.6Z" transform="translate(-254.971 -135.845)"/><path class="g" d="M275.969,142.6v6.625l-.786-.069V142.6Z" transform="translate(-257.338 -135.845)"/><path class="g" d="M283.3,142.6v6.878c-.264-.007-.522-.023-.781-.031V142.6Z" transform="translate(-260.602 -135.845)"/><path class="g" d="M291.739,141.565v7.507c-.259,0-.517.008-.78.008v-7.514Z" transform="translate(-264.356 -135.384)"/><path class="g" d="M299.575,140.007v8.2c-.259.023-.518.038-.781.053v-8.248Z" transform="translate(-267.841 -134.691)"/><path class="g" d="M305.9,140.007v7.9c-.259.023-.518.053-.776.077v-7.974Z" transform="translate(-270.658 -134.691)"/><path class="g" d="M314.24,138.379v8.134c-.255.046-.518.092-.781.138v-8.272Z" transform="translate(-274.364 -133.967)"/><path class="g" d="M323.178,136.82v7.844c-.254.075-.512.153-.776.229V136.82Z" transform="translate(-278.342 -133.274)"/><path class="g" d="M330.311,133.026V141.5c-.25.115-.509.238-.781.353v-8.831Z" transform="translate(-281.513 -131.586)"/><path class="g" d="M335.334,130.432v8.1a8.486,8.486,0,0,1-.782.644v-8.747Z" transform="translate(-283.747 -130.432)"/></g><path class="h" d="M294.048,136.127a8.5,8.5,0,0,1-.782.643,13.482,13.482,0,0,1-2.008,1.171c-.25.115-.509.238-.781.353a26.62,26.62,0,0,1-3.181,1.118q-.381.114-.776.23c-1.29.344-2.686.658-4.184.926l-.781.138c-1.228.2-2.512.383-3.85.529-.259.023-.518.054-.776.077-.892.091-1.8.161-2.735.222-.259.023-.518.038-.781.054-1.165.061-2.356.1-3.57.122-.259,0-.517.008-.78.008h-.559c-1.133,0-2.248-.023-3.346-.061-.264-.008-.522-.023-.781-.031-1.119-.053-2.217-.13-3.287-.223l-.786-.068c-.74-.069-1.463-.154-2.172-.238-.263-.038-.522-.069-.782-.108-.9-.122-1.779-.26-2.622-.413-.264-.046-.522-.092-.776-.145-.736-.137-1.441-.291-2.125-.459-.263-.062-.521-.123-.776-.192-.847-.215-1.647-.445-2.4-.7-.268-.085-.525-.177-.781-.269a20.277,20.277,0,0,1-2.172-.9c-.277-.13-.536-.268-.785-.406a10.179,10.179,0,0,1-1.669-1.126,5.768,5.768,0,0,1-.784-.8,2.978,2.978,0,0,1-.724-1.854V137.6a2.979,2.979,0,0,0,.724,1.854,5.738,5.738,0,0,0,.784.8,10.179,10.179,0,0,0,1.669,1.126c.249.138.508.276.785.406a20.39,20.39,0,0,0,2.172.9c.255.092.513.184.781.269.754.252,1.553.482,2.4.7.254.068.513.13.776.192.683.168,1.389.321,2.125.459.254.054.512.1.776.145.843.154,1.722.291,2.622.414.26.038.519.069.782.108.709.084,1.432.169,2.172.238l.786.069c1.07.092,2.168.168,3.287.222.259.008.517.024.781.031,1.1.039,2.212.062,3.346.062h.559c.263,0,.521-.008.78-.008,1.214-.023,2.405-.061,3.57-.123.263-.015.522-.03.781-.053.932-.061,1.843-.13,2.735-.222.258-.023.517-.054.776-.077,1.339-.145,2.623-.33,3.85-.529.263-.046.526-.092.781-.138,1.5-.268,2.894-.582,4.184-.927.264-.076.522-.154.776-.229a26.807,26.807,0,0,0,3.181-1.119c.272-.115.531-.238.781-.353a13.53,13.53,0,0,0,2.008-1.171,8.5,8.5,0,0,0,.782-.644,3.361,3.361,0,0,0,1.227-2.4v-3.876A3.363,3.363,0,0,1,294.048,136.127Z" transform="translate(-241.737 -121.761)"/></g><g transform="translate(0 21.829)"><path class="d" d="M291.12,105.734v8.77a3.359,3.359,0,0,1-1.226,2.4,8.625,8.625,0,0,1-.781.643,13.641,13.641,0,0,1-2.008,1.172c-.249.115-.509.237-.781.352a26.811,26.811,0,0,1-3.181,1.119c-.255.077-.514.153-.777.23-1.289.345-2.685.658-4.184.927-.254.046-.519.092-.782.138-1.226.2-2.511.384-3.85.529-.259.023-.517.054-.776.077-.893.092-1.8.161-2.735.222-.259.023-.517.039-.781.054-1.164.061-2.356.1-3.569.123-.258,0-.518.008-.781.008h-.557c-1.134,0-2.248-.023-3.346-.062-.263-.008-.521-.023-.781-.031-1.12-.053-2.216-.13-3.288-.222l-.786-.069c-.741-.069-1.462-.153-2.172-.238-.263-.038-.522-.069-.781-.108-.9-.122-1.78-.26-2.623-.414-.264-.046-.522-.092-.777-.145-.736-.137-1.441-.29-2.122-.46-.264-.061-.523-.122-.777-.191-.848-.214-1.646-.444-2.4-.7-.268-.084-.526-.176-.78-.268a20.129,20.129,0,0,1-2.172-.9c-.278-.13-.536-.268-.786-.406a10.115,10.115,0,0,1-1.669-1.126,5.8,5.8,0,0,1-.785-.8,2.981,2.981,0,0,1-.723-1.853v-8.77Z" transform="translate(-237.583 -98.659)"/><path class="e" d="M291.12,100.069c0,3.908-11.985,7.077-26.768,7.077s-26.769-3.168-26.769-7.077,11.985-7.078,26.769-7.078S291.12,96.16,291.12,100.069Z" transform="translate(-237.583 -92.991)"/><path class="f" d="M290.168,100.143c0,2.688-9.838,4.867-21.972,4.867s-21.972-2.179-21.972-4.867,9.837-4.869,21.972-4.869S290.168,97.454,290.168,100.143Z" transform="translate(-241.426 -94.007)"/><path class="g" d="M246.894,101.339c2.407-2.11,11.03-3.671,21.3-3.671s18.893,1.562,21.3,3.671a1.643,1.643,0,0,0,.672-1.2c0-2.689-9.838-4.869-21.972-4.869s-21.972,2.18-21.972,4.869A1.642,1.642,0,0,0,246.894,101.339Z" transform="translate(-241.426 -94.007)"/><g transform="translate(0.723 10.138)"><path class="g" d="M239.671,112.811v7.49a5.8,5.8,0,0,1-.785-.8v-6.694Z" transform="translate(-238.886 -111.945)"/><path class="g" d="M244.092,116.771V123.6c-.278-.13-.536-.268-.786-.406v-6.418Z" transform="translate(-240.852 -113.707)"/><path class="g" d="M249.414,119.2v6.648c-.268-.084-.526-.176-.78-.268V119.2Z" transform="translate(-243.222 -114.787)"/><path class="g" d="M255.14,120.826v6.633c-.264-.061-.523-.122-.777-.191v-6.442Z" transform="translate(-245.771 -115.511)"/><path class="g" d="M260.363,122.385v6.372c-.264-.046-.522-.092-.777-.145v-6.227Z" transform="translate(-248.094 -116.204)"/><path class="g" d="M266.491,123.42v6.319c-.263-.038-.522-.069-.781-.108V123.42Z" transform="translate(-250.818 -116.665)"/><path class="g" d="M271.815,123.42v6.626l-.786-.069V123.42Z" transform="translate(-253.184 -116.665)"/><path class="g" d="M279.147,123.42V130.3c-.263-.008-.521-.023-.781-.031V123.42Z" transform="translate(-256.447 -116.665)"/><path class="g" d="M287.585,122.385v7.507c-.258,0-.518.008-.781.008v-7.514Z" transform="translate(-260.201 -116.204)"/><path class="g" d="M295.42,120.826v8.2c-.259.023-.517.039-.781.054v-8.249Z" transform="translate(-263.686 -115.511)"/><path class="g" d="M301.748,120.826v7.9c-.259.023-.517.054-.776.077v-7.974Z" transform="translate(-266.503 -115.511)"/><path class="g" d="M310.086,119.2v8.135c-.254.046-.519.092-.782.138V119.2Z" transform="translate(-270.209 -114.787)"/><path class="g" d="M319.026,117.64v7.843c-.255.077-.514.153-.777.23V117.64Z" transform="translate(-274.188 -114.094)"/><path class="g" d="M326.158,113.845v8.479c-.249.115-.509.237-.781.352v-8.831Z" transform="translate(-277.359 -112.405)"/><path class="g" d="M331.18,111.252v8.1a8.634,8.634,0,0,1-.781.643v-8.747Z" transform="translate(-279.593 -111.252)"/></g><path class="h" d="M289.894,116.947a8.725,8.725,0,0,1-.781.643,13.641,13.641,0,0,1-2.008,1.172c-.249.115-.509.238-.781.352a26.71,26.71,0,0,1-3.181,1.119c-.255.076-.514.153-.777.229-1.289.345-2.685.658-4.184.927l-.782.138c-1.226.2-2.511.384-3.85.529-.259.023-.517.054-.776.077-.893.092-1.8.16-2.735.221-.259.024-.517.039-.781.054-1.164.061-2.356.1-3.569.123-.258,0-.518.008-.781.008h-.557c-1.134,0-2.248-.023-3.346-.061-.263-.008-.521-.023-.781-.031-1.12-.053-2.216-.13-3.288-.222l-.786-.069c-.741-.069-1.462-.154-2.172-.238-.263-.038-.522-.069-.781-.108-.9-.122-1.78-.26-2.623-.414-.264-.046-.522-.092-.777-.145-.736-.137-1.441-.291-2.122-.459-.264-.062-.523-.123-.777-.192-.848-.214-1.646-.444-2.4-.7-.268-.084-.526-.176-.78-.268a20.357,20.357,0,0,1-2.172-.9c-.278-.13-.536-.268-.786-.406a10.183,10.183,0,0,1-1.669-1.126,5.833,5.833,0,0,1-.785-.8,2.982,2.982,0,0,1-.723-1.854v3.876a2.981,2.981,0,0,0,.723,1.853,5.8,5.8,0,0,0,.785.8,10.114,10.114,0,0,0,1.669,1.126c.25.138.508.276.786.406a20.129,20.129,0,0,0,2.172.9c.254.092.512.184.78.268.754.253,1.553.483,2.4.7.254.069.514.13.777.191.682.169,1.387.323,2.122.46.255.054.514.1.777.145.843.154,1.722.292,2.623.414.259.039.518.069.781.108.71.084,1.431.168,2.172.238l.786.069c1.072.092,2.168.169,3.288.222.26.008.518.023.781.031,1.1.038,2.212.062,3.346.062h.557c.263,0,.522-.008.781-.008,1.213-.023,2.406-.062,3.569-.123.264-.015.522-.031.781-.054.933-.061,1.843-.13,2.735-.222.259-.023.517-.054.776-.077,1.339-.145,2.624-.329,3.85-.529.263-.046.527-.092.782-.138,1.5-.268,2.9-.582,4.184-.927.263-.077.521-.153.777-.23a26.808,26.808,0,0,0,3.181-1.119c.272-.115.531-.237.781-.352a13.643,13.643,0,0,0,2.008-1.172,8.633,8.633,0,0,0,.781-.643,3.359,3.359,0,0,0,1.226-2.4v-3.876A3.36,3.36,0,0,1,289.894,116.947Z" transform="translate(-237.583 -102.58)"/></g><g transform="translate(2.306 10.649)"><path class="d" d="M295.275,85.6v8.769a3.365,3.365,0,0,1-1.227,2.4,8.678,8.678,0,0,1-.782.643,13.578,13.578,0,0,1-2.008,1.172c-.25.115-.509.237-.781.352a26.521,26.521,0,0,1-3.181,1.118c-.254.077-.512.153-.776.23-1.29.345-2.686.658-4.184.926l-.781.139c-1.228.2-2.512.383-3.85.528-.259.023-.518.054-.776.077-.892.09-1.8.16-2.735.222-.259.023-.518.039-.781.054-1.165.061-2.356.1-3.57.123-.259,0-.517.007-.78.007h-.559q-1.7,0-3.346-.061c-.264-.008-.522-.023-.781-.031-1.119-.053-2.217-.13-3.287-.223l-.786-.068c-.74-.069-1.463-.153-2.172-.238-.263-.038-.522-.068-.782-.107-.9-.122-1.779-.26-2.622-.414-.264-.045-.522-.092-.776-.145-.736-.137-1.441-.291-2.125-.459-.263-.062-.521-.123-.776-.191-.847-.215-1.647-.445-2.4-.7-.268-.085-.525-.177-.781-.269a20.28,20.28,0,0,1-2.172-.9c-.277-.13-.536-.268-.785-.406a10.179,10.179,0,0,1-1.669-1.126,5.737,5.737,0,0,1-.784-.8,2.978,2.978,0,0,1-.724-1.854V85.6Z" transform="translate(-241.737 -78.522)"/><ellipse class="e" cx="26.769" cy="7.077" rx="26.769" ry="7.077"/><path class="f" d="M294.321,80c0,2.688-9.837,4.868-21.972,4.868S250.377,82.693,250.377,80s9.837-4.868,21.972-4.868S294.321,77.317,294.321,80Z" transform="translate(-245.58 -73.869)"/><path class="g" d="M251.047,81.2c2.409-2.11,11.031-3.671,21.3-3.671s18.893,1.562,21.3,3.671a1.647,1.647,0,0,0,.671-1.2c0-2.688-9.837-4.868-21.972-4.868S250.377,77.317,250.377,80A1.646,1.646,0,0,0,251.047,81.2Z" transform="translate(-245.58 -73.869)"/><g transform="translate(0.724 10.138)"><path class="g" d="M243.825,92.673v7.491a5.735,5.735,0,0,1-.784-.8V92.673Z" transform="translate(-243.041 -91.807)"/><path class="g" d="M248.246,96.632v6.824c-.277-.13-.536-.268-.785-.406V96.632Z" transform="translate(-245.007 -93.569)"/><path class="g" d="M253.568,99.06v6.649c-.268-.085-.525-.177-.781-.269V99.06Z" transform="translate(-247.376 -94.649)"/><path class="g" d="M259.293,100.688v6.633c-.263-.062-.521-.123-.776-.191v-6.442Z" transform="translate(-249.925 -95.373)"/><path class="g" d="M264.517,102.247v6.372c-.264-.045-.522-.092-.776-.145v-6.227Z" transform="translate(-252.249 -96.066)"/><path class="g" d="M270.644,103.282V109.6c-.263-.038-.522-.068-.782-.107v-6.211Z" transform="translate(-254.971 -96.527)"/><path class="g" d="M275.969,103.282v6.624l-.786-.068v-6.556Z" transform="translate(-257.338 -96.527)"/><path class="g" d="M283.3,103.282v6.878c-.264-.008-.522-.023-.781-.031v-6.847Z" transform="translate(-260.602 -96.527)"/><path class="g" d="M291.739,102.247v7.507c-.259,0-.517.007-.78.007v-7.514Z" transform="translate(-264.356 -96.066)"/><path class="g" d="M299.575,100.688v8.2c-.259.023-.518.039-.781.054v-8.249Z" transform="translate(-267.841 -95.373)"/><path class="g" d="M305.9,100.688v7.9c-.259.023-.518.054-.776.077v-7.974Z" transform="translate(-270.658 -95.373)"/><path class="g" d="M314.24,99.06v8.134l-.781.139V99.06Z" transform="translate(-274.364 -94.649)"/><path class="g" d="M323.178,97.5v7.843c-.254.077-.512.153-.776.23V97.5Z" transform="translate(-278.342 -93.955)"/><path class="g" d="M330.311,93.708v8.479c-.25.115-.509.237-.781.352V93.708Z" transform="translate(-281.513 -92.268)"/><path class="g" d="M335.334,91.114v8.1a8.668,8.668,0,0,1-.782.643V91.114Z" transform="translate(-283.747 -91.114)"/></g><path class="h" d="M294.048,96.808a8.683,8.683,0,0,1-.782.643,13.481,13.481,0,0,1-2.008,1.171c-.25.115-.509.238-.781.353a26.524,26.524,0,0,1-3.181,1.118c-.254.077-.512.153-.776.23-1.29.344-2.686.658-4.184.927l-.781.138c-1.228.2-2.512.383-3.85.528-.259.023-.518.053-.776.077-.892.092-1.8.16-2.735.222-.259.023-.518.038-.781.053-1.165.062-2.356.1-3.57.123-.259,0-.517.008-.78.008h-.559c-1.133,0-2.248-.023-3.346-.061-.264-.008-.522-.023-.781-.031-1.119-.053-2.217-.13-3.287-.222l-.786-.069c-.74-.069-1.463-.153-2.172-.237-.263-.039-.522-.069-.782-.108-.9-.122-1.779-.26-2.622-.414-.264-.046-.522-.091-.776-.145-.736-.138-1.441-.291-2.125-.459-.263-.061-.521-.123-.776-.192-.847-.215-1.647-.444-2.4-.7-.268-.085-.525-.177-.781-.269a20.282,20.282,0,0,1-2.172-.9c-.277-.13-.536-.268-.785-.406a10.213,10.213,0,0,1-1.669-1.125,5.739,5.739,0,0,1-.784-.8,2.977,2.977,0,0,1-.724-1.854v3.876a2.978,2.978,0,0,0,.724,1.854,5.738,5.738,0,0,0,.784.8,10.179,10.179,0,0,0,1.669,1.126c.249.138.508.276.785.406a20.279,20.279,0,0,0,2.172.9c.255.092.513.184.781.269.754.253,1.553.482,2.4.7.254.068.513.129.776.191.683.168,1.389.322,2.125.459.254.054.512.1.776.145.843.153,1.722.291,2.622.414.26.039.519.069.782.107.709.084,1.432.169,2.172.238l.786.068c1.07.093,2.168.17,3.287.223.259.008.517.023.781.031q1.646.058,3.346.061h.559c.263,0,.521-.007.78-.007,1.214-.023,2.405-.062,3.57-.123.263-.015.522-.031.781-.054.932-.061,1.843-.131,2.735-.222.258-.023.517-.054.776-.077,1.339-.145,2.623-.329,3.85-.528l.781-.139c1.5-.268,2.894-.581,4.184-.926.264-.077.522-.153.776-.23a26.52,26.52,0,0,0,3.181-1.118c.272-.115.531-.237.781-.352a13.578,13.578,0,0,0,2.008-1.172,8.681,8.681,0,0,0,.782-.643,3.365,3.365,0,0,0,1.227-2.4V94.41A3.363,3.363,0,0,1,294.048,96.808Z" transform="translate(-241.737 -82.442)"/></g><g transform="translate(5.189)"><path class="d" d="M300.466,66.415v8.77a3.36,3.36,0,0,1-1.226,2.4,8.711,8.711,0,0,1-.781.643,13.564,13.564,0,0,1-2.008,1.172c-.25.115-.509.238-.781.352a26.646,26.646,0,0,1-3.181,1.119q-.381.114-.776.229c-1.289.345-2.686.658-4.184.927-.255.046-.518.092-.782.138-1.226.2-2.511.383-3.849.529-.259.023-.519.054-.777.077-.892.092-1.8.16-2.735.222-.258.023-.517.038-.78.053-1.165.061-2.356.1-3.57.123-.259,0-.517.008-.781.008H273.7c-1.133,0-2.248-.023-3.347-.062-.263-.008-.521-.023-.78-.031-1.12-.053-2.217-.13-3.288-.222l-.786-.069c-.741-.069-1.464-.154-2.173-.238-.263-.038-.521-.069-.781-.107-.9-.122-1.779-.26-2.623-.414-.263-.045-.521-.092-.776-.145-.737-.137-1.442-.291-2.125-.459-.262-.062-.521-.123-.775-.192-.848-.214-1.647-.444-2.4-.7-.269-.084-.527-.176-.78-.268a20.615,20.615,0,0,1-2.174-.9c-.277-.13-.535-.268-.785-.406a10.117,10.117,0,0,1-1.669-1.126,5.825,5.825,0,0,1-.784-.8,2.984,2.984,0,0,1-.724-1.854v-8.77Z" transform="translate(-246.929 -59.341)"/><path class="e" d="M300.466,60.75c0,3.908-11.984,7.077-26.768,7.077s-26.769-3.169-26.769-7.077,11.985-7.077,26.769-7.077S300.466,56.841,300.466,60.75Z" transform="translate(-246.929 -53.673)"/><path class="f" d="M299.513,60.824c0,2.688-9.837,4.867-21.972,4.867s-21.972-2.18-21.972-4.867,9.837-4.868,21.972-4.868S299.513,58.136,299.513,60.824Z" transform="translate(-250.772 -54.689)"/><path class="g" d="M256.24,62.021c2.408-2.11,11.031-3.671,21.3-3.671s18.893,1.561,21.3,3.671a1.644,1.644,0,0,0,.67-1.2c0-2.689-9.837-4.868-21.972-4.868s-21.972,2.18-21.972,4.868A1.645,1.645,0,0,0,256.24,62.021Z" transform="translate(-250.772 -54.689)"/><g transform="translate(0.724 10.138)"><path class="g" d="M249.017,73.492v7.491a5.826,5.826,0,0,1-.784-.8V73.492Z" transform="translate(-248.233 -72.627)"/><path class="g" d="M253.437,77.452v6.824c-.277-.13-.535-.268-.785-.406V77.452Z" transform="translate(-250.199 -74.389)"/><path class="g" d="M258.761,79.879v6.649c-.269-.084-.527-.176-.78-.268V79.879Z" transform="translate(-252.569 -75.468)"/><path class="g" d="M264.485,81.508v6.633c-.262-.062-.521-.123-.775-.192V81.508Z" transform="translate(-255.117 -76.193)"/><path class="g" d="M269.709,83.066v6.372c-.263-.045-.521-.092-.776-.145V83.066Z" transform="translate(-257.441 -76.886)"/><path class="g" d="M275.836,84.1V90.42c-.263-.038-.521-.069-.781-.107V84.1Z" transform="translate(-260.164 -77.346)"/><path class="g" d="M281.162,84.1v6.626l-.786-.069V84.1Z" transform="translate(-262.531 -77.346)"/><path class="g" d="M288.493,84.1v6.878c-.263-.008-.521-.023-.78-.031V84.1Z" transform="translate(-265.794 -77.346)"/><path class="g" d="M296.931,83.066v7.507c-.259,0-.517.008-.781.008V83.066Z" transform="translate(-269.547 -76.886)"/><path class="g" d="M304.766,81.508v8.2c-.258.023-.517.038-.78.053V81.508Z" transform="translate(-273.033 -76.193)"/><path class="g" d="M311.094,81.508v7.9c-.259.023-.519.054-.777.077V81.508Z" transform="translate(-275.849 -76.193)"/><path class="g" d="M319.432,79.879v8.134c-.255.046-.518.092-.782.138V79.879Z" transform="translate(-279.556 -75.468)"/><path class="g" d="M328.37,78.321v7.844c-.254.076-.512.153-.776.229V78.321Z" transform="translate(-283.534 -74.775)"/><path class="g" d="M335.5,74.527v8.479c-.25.115-.509.238-.781.352V74.527Z" transform="translate(-286.705 -73.087)"/><path class="g" d="M340.526,71.934v8.1a8.717,8.717,0,0,1-.781.643V71.934Z" transform="translate(-288.939 -71.934)"/></g><path class="h" d="M299.24,77.628a8.711,8.711,0,0,1-.781.643,13.516,13.516,0,0,1-2.008,1.171c-.25.116-.509.238-.781.353a26.655,26.655,0,0,1-3.181,1.118q-.381.115-.776.23c-1.289.345-2.686.658-4.184.927-.255.047-.518.092-.782.138-1.226.2-2.511.383-3.849.529-.259.023-.519.053-.777.077-.892.092-1.8.161-2.735.222-.258.023-.517.038-.78.053-1.165.062-2.356.1-3.57.123-.259,0-.517.008-.781.008H273.7c-1.133,0-2.248-.023-3.347-.062-.263-.007-.521-.023-.78-.03q-1.681-.082-3.288-.223l-.786-.069c-.741-.069-1.464-.154-2.173-.238-.263-.038-.521-.069-.781-.107-.9-.123-1.779-.26-2.623-.414-.263-.045-.521-.091-.776-.145-.737-.138-1.442-.291-2.125-.459-.262-.062-.521-.123-.775-.192-.848-.214-1.647-.444-2.4-.7-.269-.084-.527-.176-.78-.268a20.268,20.268,0,0,1-2.174-.9c-.277-.13-.535-.268-.785-.406a10.15,10.15,0,0,1-1.669-1.126,5.764,5.764,0,0,1-.784-.8,2.981,2.981,0,0,1-.724-1.854v3.876a2.984,2.984,0,0,0,.724,1.854,5.825,5.825,0,0,0,.784.8,10.116,10.116,0,0,0,1.669,1.126c.25.138.508.275.785.406a20.614,20.614,0,0,0,2.174.9c.253.092.511.184.78.268.753.253,1.552.482,2.4.7.254.069.513.13.775.192.683.168,1.388.321,2.125.459.254.054.512.1.776.145.844.154,1.722.292,2.623.414.26.038.519.069.781.107.709.084,1.432.169,2.173.238l.786.069c1.07.092,2.167.169,3.288.222.259.008.517.023.78.031,1.1.039,2.214.062,3.347.062h.557c.263,0,.521-.008.781-.008,1.214-.023,2.405-.062,3.57-.123.263-.015.522-.03.78-.053.933-.062,1.844-.13,2.735-.222.259-.023.518-.054.777-.077,1.339-.146,2.623-.33,3.849-.529.264-.046.527-.092.782-.138,1.5-.268,2.9-.582,4.184-.927q.4-.115.776-.229a26.648,26.648,0,0,0,3.181-1.119c.271-.114.531-.237.781-.352a13.564,13.564,0,0,0,2.008-1.172,8.712,8.712,0,0,0,.781-.643,3.36,3.36,0,0,0,1.226-2.4V75.23A3.362,3.362,0,0,1,299.24,77.628Z" transform="translate(-246.929 -63.262)"/></g></g><path class="i" d="M206.425,89.676c0,.444-.009.879-.036,1.315-.018.364-.044.72-.089,1.074a21.739,21.739,0,0,1-.355,2.326c-.071.366-.15.721-.239,1.076a23.086,23.086,0,0,1-1.545,4.253c-.159.365-.346.728-.532,1.074a23.217,23.217,0,0,1-1.5,2.407,12.961,12.961,0,0,1-.808,1.074,20.107,20.107,0,0,1-2.114,2.327c-.391.381-.791.737-1.2,1.074a22.442,22.442,0,0,1-3.082,2.185,19.9,19.9,0,0,1-2.024,1.074,23.257,23.257,0,0,1-9.937,2.211h-5.329V66.207h5.329a23.3,23.3,0,0,1,10.691,2.584,18.876,18.876,0,0,1,1.882,1.074,22.225,22.225,0,0,1,3.063,2.327c.392.338.764.7,1.129,1.074a23.747,23.747,0,0,1,3.2,4.076c.212.347.426.7.621,1.066a22.95,22.95,0,0,1,1.856,4.4c.107.355.213.71.3,1.074a22.109,22.109,0,0,1,.6,3.517c.044.355.071.711.088,1.074Q206.425,89.077,206.425,89.676Z" transform="translate(-142.372 -59.248)"/><g transform="translate(43.914 9.543)"><path class="j" d="M224.105,110.848c-.018.364-.044.72-.089,1.074h-6.553v-1.074Z" transform="translate(-204.002 -88.649)"/><path class="j" d="M221.982,116.972c-.07.366-.15.721-.239,1.076h-8.053v-1.076Z" transform="translate(-202.323 -91.373)"/><path class="j" d="M218.632,126.57c-.159.365-.346.728-.532,1.074h-7.93V126.57Z" transform="translate(-200.757 -95.642)"/><path class="j" d="M214.506,132.84a12.961,12.961,0,0,1-.808,1.074h-8.232V132.84Z" transform="translate(-198.665 -98.431)"/><path class="j" d="M209.351,138.967c-.391.381-.791.737-1.2,1.074h-7.708v-1.074Z" transform="translate(-196.432 -101.156)"/><path class="j" d="M201.855,144.836a19.9,19.9,0,0,1-2.024,1.074h-6.616v-1.074Z" transform="translate(-193.216 -103.767)"/><path class="j" d="M223.758,105.46h-7.094v-1.074h7.006C223.714,104.741,223.741,105.1,223.758,105.46Z" transform="translate(-203.646 -85.774)"/><path class="j" d="M222.417,97.192h-7.211V96.118h6.909C222.222,96.473,222.328,96.828,222.417,97.192Z" transform="translate(-202.998 -82.096)"/><path class="j" d="M218.517,87.33H211.29V86.264H217.9C218.108,86.611,218.323,86.966,218.517,87.33Z" transform="translate(-201.256 -77.713)"/><path class="j" d="M210.986,78.061H202.94V76.987h6.916C210.248,77.325,210.62,77.689,210.986,78.061Z" transform="translate(-197.541 -73.587)"/><path class="j" d="M203.634,71.936h-7.8V70.862h5.914A18.873,18.873,0,0,1,203.634,71.936Z" transform="translate(-194.382 -70.862)"/></g><path class="f" d="M182.294,89.677a23.467,23.467,0,1,1-23.467-23.466A23.466,23.466,0,0,1,182.294,89.677Z" transform="translate(-123.567 -59.25)"/><path class="k" d="M181.5,92.873a19.479,19.479,0,1,1-19.479-19.479A19.478,19.478,0,0,1,181.5,92.873Z" transform="translate(-126.763 -62.445)"/><path class="l" d="M163.651,114.664a19.474,19.474,0,0,1-14.562-32.409,19.475,19.475,0,1,0,27.5,27.49A19.4,19.4,0,0,1,163.651,114.664Z" transform="translate(-126.763 -66.387)"/><path class="i" d="M338.816,207.385c-.346.278-.691.544-1.047.8-.295.214-.589.416-.893.6a21.746,21.746,0,0,1-2.035,1.18c-.329.175-.656.334-.989.487a23.064,23.064,0,0,1-4.282,1.46c-.385.1-.786.186-1.171.259a23.231,23.231,0,0,1-2.817.337,12.8,12.8,0,0,1-1.343.044,20.275,20.275,0,0,1-3.138-.189c-.542-.066-1.07-.154-1.588-.261a22.582,22.582,0,0,1-3.634-1.034,20.2,20.2,0,0,1-2.1-.9,23.256,23.256,0,0,1-7.949-6.359l-3.339-4.153,36.586-29.407,3.338,4.153a23.3,23.3,0,0,1,4.684,9.952,18.829,18.829,0,0,1,.342,2.141,22.174,22.174,0,0,1,.105,3.845c-.017.516-.068,1.035-.13,1.553a23.753,23.753,0,0,1-1.174,5.045c-.137.381-.28.772-.442,1.151a23.01,23.01,0,0,1-2.27,4.207c-.21.306-.42.611-.648.908a22,22,0,0,1-2.363,2.674c-.249.257-.509.5-.782.742Q339.283,207.009,338.816,207.385Z" transform="translate(-197.908 -105.525)"/><g transform="translate(111.721 74.212)"><path class="j" d="M362.033,234.429c-.295.214-.589.416-.893.6l-4.106-5.107.838-.673Z" transform="translate(-333.893 -205.986)"/><path class="j" d="M355.929,236.61c-.329.175-.656.334-.989.487l-5.045-6.277.838-.674Z" transform="translate(-330.717 -206.384)"/><path class="j" d="M346.351,240.012c-.385.1-.786.186-1.171.259l-4.968-6.181.837-.674Z" transform="translate(-326.41 -207.838)"/><path class="j" d="M338.878,240.725a12.8,12.8,0,0,1-1.343.044l-5.158-6.417.837-.673Z" transform="translate(-322.925 -207.955)"/><path class="j" d="M330.873,240.546c-.542-.066-1.07-.154-1.588-.261l-4.83-6.008.837-.673Z" transform="translate(-319.402 -207.922)"/><path class="j" d="M321.6,238.381a20.191,20.191,0,0,1-2.1-.9l-4.145-5.157.837-.672Z" transform="translate(-315.352 -207.051)"/><path class="j" d="M366.015,230.783l-4.444-5.53.838-.673,4.388,5.461C366.548,230.3,366.288,230.541,366.015,230.783Z" transform="translate(-335.911 -203.908)"/><path class="j" d="M371.62,224.558l-4.518-5.62.837-.673,4.329,5.385C372.058,223.956,371.848,224.26,371.62,224.558Z" transform="translate(-338.371 -201.099)"/><path class="j" d="M376.868,215.339l-4.528-5.633.831-.667,4.139,5.149C377.173,214.57,377.03,214.96,376.868,215.339Z" transform="translate(-340.701 -196.995)"/><path class="j" d="M379.368,203.663l-5.041-6.271.838-.673,4.333,5.391C379.481,202.626,379.43,203.145,379.368,203.663Z" transform="translate(-341.585 -191.515)"/><path class="j" d="M379.538,194.1l-4.884-6.077.838-.673,3.7,4.61A18.836,18.836,0,0,1,379.538,194.1Z" transform="translate(-341.73 -187.345)"/></g><path class="f" d="M331.334,196.209a23.467,23.467,0,1,1,3.588-32.992A23.466,23.466,0,0,1,331.334,196.209Z" transform="translate(-193.761 -98.501)"/><path class="k" d="M332.03,196.3a19.478,19.478,0,1,1,2.979-27.385A19.478,19.478,0,0,1,332.03,196.3Z" transform="translate(-196.957 -101.696)"/><path class="l" d="M306.934,193.569a19.474,19.474,0,0,1,16.137-31.655,19.475,19.475,0,1,0-4.2,38.655A19.4,19.4,0,0,1,306.934,193.569Z" transform="translate(-196.957 -101.699)"/><path class="i" d="M325.707,192.262c0,.444-.01.879-.036,1.315-.017.364-.044.719-.089,1.074a21.9,21.9,0,0,1-.355,2.326c-.071.366-.15.721-.24,1.076a23.073,23.073,0,0,1-1.545,4.253c-.16.364-.346.728-.532,1.074a23.316,23.316,0,0,1-1.5,2.407,13.048,13.048,0,0,1-.808,1.074,20.194,20.194,0,0,1-2.113,2.327c-.391.381-.791.737-1.2,1.074a22.445,22.445,0,0,1-3.082,2.185,19.948,19.948,0,0,1-2.024,1.074,23.259,23.259,0,0,1-9.937,2.212h-5.328v-46.94h5.328a23.308,23.308,0,0,1,10.692,2.584,18.9,18.9,0,0,1,1.881,1.075,22.214,22.214,0,0,1,3.064,2.327c.39.337.764.7,1.128,1.074a23.674,23.674,0,0,1,3.2,4.076c.211.346.426.7.621,1.066a23.016,23.016,0,0,1,1.857,4.4c.106.355.212.71.3,1.074a21.978,21.978,0,0,1,.6,3.516c.046.355.071.711.089,1.074C325.7,191.463,325.707,191.863,325.707,192.262Z" transform="translate(-195.431 -104.88)"/><g transform="translate(110.136 66.496)"><path class="j" d="M343.386,213.434c-.017.364-.044.719-.089,1.074h-6.553v-1.074Z" transform="translate(-323.282 -191.234)"/><path class="j" d="M341.263,219.558c-.07.366-.15.721-.24,1.076h-8.054v-1.076Z" transform="translate(-321.603 -193.958)"/><path class="j" d="M337.913,229.156c-.16.364-.346.728-.532,1.074H329.45v-1.074Z" transform="translate(-320.037 -198.227)"/><path class="j" d="M333.787,235.426a13.062,13.062,0,0,1-.808,1.074h-8.232v-1.074Z" transform="translate(-317.945 -201.016)"/><path class="j" d="M328.633,241.553c-.391.381-.791.737-1.2,1.074h-7.708v-1.074Z" transform="translate(-315.712 -203.742)"/><path class="j" d="M321.136,247.423a19.945,19.945,0,0,1-2.024,1.074H312.5v-1.074Z" transform="translate(-312.496 -206.353)"/><path class="j" d="M343.039,208.045h-7.095v-1.074h7.006C343,207.326,343.021,207.682,343.039,208.045Z" transform="translate(-322.926 -188.359)"/><path class="j" d="M341.7,199.777h-7.211V198.7H341.4C341.5,199.058,341.609,199.413,341.7,199.777Z" transform="translate(-322.278 -184.681)"/><path class="j" d="M337.8,189.916H330.57V188.85h6.607C337.389,189.2,337.6,189.552,337.8,189.916Z" transform="translate(-320.536 -180.299)"/><path class="j" d="M330.266,180.648h-8.045v-1.074h6.918C329.529,179.911,329.9,180.275,330.266,180.648Z" transform="translate(-316.822 -176.172)"/><path class="j" d="M322.916,174.522h-7.8v-1.075h5.914A18.89,18.89,0,0,1,322.916,174.522Z" transform="translate(-313.663 -173.447)"/></g><path class="f" d="M301.576,192.263A23.467,23.467,0,1,1,278.109,168.8,23.466,23.466,0,0,1,301.576,192.263Z" transform="translate(-176.626 -104.882)"/><path class="k" d="M300.783,195.458a19.479,19.479,0,1,1-19.478-19.478A19.478,19.478,0,0,1,300.783,195.458Z" transform="translate(-179.821 -108.077)"/><path class="l" d="M282.932,217.25a19.475,19.475,0,0,1-14.563-32.409,19.475,19.475,0,1,0,27.5,27.49A19.4,19.4,0,0,1,282.932,217.25Z" transform="translate(-179.821 -112.019)"/></g><path class="j" d="M137.167,94.269a1.015,1.015,0,0,0-1.015-1.015H121.808a1.015,1.015,0,0,0,0,2.03h4.1a5.148,5.148,0,0,1,5.038,4.125h-9.142a1.015,1.015,0,0,0,0,2.03h9.142a5.147,5.147,0,0,1-5.038,4.124h-4.1a1.015,1.015,0,0,0-.7,1.752l10.259,9.694a1.015,1.015,0,0,0,1.395-1.475l-8.4-7.941h1.552a7.18,7.18,0,0,0,7.1-6.155h3.143a1.015,1.015,0,0,0,0-2.03h-3.143a7.157,7.157,0,0,0-2.1-4.124h5.248a1.015,1.015,0,0,0,1.015-1.015Zm0,0" transform="translate(236.992 2787.272)"/><path class="j" d="M137.167,94.269a1.015,1.015,0,0,0-1.015-1.015H121.808a1.015,1.015,0,0,0,0,2.03h4.1a5.148,5.148,0,0,1,5.038,4.125h-9.142a1.015,1.015,0,0,0,0,2.03h9.142a5.147,5.147,0,0,1-5.038,4.124h-4.1a1.015,1.015,0,0,0-.7,1.752l10.259,9.694a1.015,1.015,0,0,0,1.395-1.475l-8.4-7.941h1.552a7.18,7.18,0,0,0,7.1-6.155h3.143a1.015,1.015,0,0,0,0-2.03h-3.143a7.157,7.157,0,0,0-2.1-4.124h5.248a1.015,1.015,0,0,0,1.015-1.015Zm0,0" transform="translate(303.241 2843.257)"/></g></svg>